0
SECTION
2
HEADER
9
$INSUNITS
70
4
9
$ACADVER
1
AC1014
9
$HANDSEED
5
FFFF
0
ENDSEC
0
SECTION
2
TABLES
0
TABLE
2
VPORT
5
8
100
AcDbSymbolTable
0
ENDTAB
0
TABLE
2
LTYPE
5
5
100
AcDbSymbolTable
0
LTYPE
5
14
100
AcDbSymbolTableRecord
100
AcDbLinetypeTableRecord
2
BYBLOCK
70
0
0
LTYPE
5
15
100
AcDbSymbolTableRecord
100
AcDbLinetypeTableRecord
2
BYLAYER
70
0
0
ENDTAB
0
TABLE
2
LAYER
5
2
100
AcDbSymbolTable
70
2
0
LAYER
5
50
100
AcDbSymbolTableRecord
100
AcDbLayerTableRecord
2
0
70
0
6
CONTINUOUS
0
ENDTAB
0
TABLE
2
STYLE
5
3
100
AcDbSymbolTable
70
1
0
STYLE
5
11
100
AcDbSymbolTableRecord
100
AcDbTextStyleTableRecord
2
STANDARD
70
0
0
ENDTAB
0
TABLE
2
VIEW
5
6
100
AcDbSymbolTable
70
0
0
ENDTAB
0
TABLE
2
UCS
5
7
100
AcDbSymbolTable
70
0
0
ENDTAB
0
TABLE
2
APPID
5
9
100
AcDbSymbolTable
70
2
0
APPID
5
12
100
AcDbSymbolTableRecord
100
AcDbRegAppTableRecord
2
ACAD
70
0
0
ENDTAB
0
TABLE
2
DIMSTYLE
5
A
100
AcDbSymbolTable
70
1
0
ENDTAB
0
TABLE
2
BLOCK_RECORD
5
1
100
AcDbSymbolTable
70
1
0
BLOCK_RECORD
5
1F
100
AcDbSymbolTableRecord
100
AcDbBlockTableRecord
2
*MODEL_SPACE
0
BLOCK_RECORD
5
1B
100
AcDbSymbolTableRecord
100
AcDbBlockTableRecord
2
*PAPER_SPACE
0
ENDTAB
0
ENDSEC
0
SECTION
2
BLOCKS
0
BLOCK
5
20
100
AcDbEntity
100
AcDbBlockBegin
2
*MODEL_SPACE
0
ENDBLK
5
21
100
AcDbEntity
100
AcDbBlockEnd
0
BLOCK
5
1C
100
AcDbEntity
100
AcDbBlockBegin
2
*PAPER_SPACE
0
ENDBLK
5
1D
100
AcDbEntity
100
AcDbBlockEnd
0
ENDSEC
0
SECTION
2
ENTITIES
0
LINE
5
100
100
AcDbEntity
8
0
100
AcDbLine
10
91.713800000000006
20
-46.842680000000001
30
0
11
97.713800000000006
21
-46.842680000000001
31
0
0
LINE
5
101
100
AcDbEntity
8
0
100
AcDbLine
10
97.713800000000006
20
-46.842680000000001
30
0
11
97.713800000000006
21
-94.264402999999987
31
0
0
LINE
5
102
100
AcDbEntity
8
0
100
AcDbLine
10
97.713800000000006
20
-94.264402999999987
30
0
11
150.72044500000001
21
-94.264403000000016
31
0
0
LINE
5
103
100
AcDbEntity
8
0
100
AcDbLine
10
150.72044500000001
20
-94.264403000000016
30
0
11
166.491376
21
-96.140313000000006
31
0
0
LINE
5
104
100
AcDbEntity
8
0
100
AcDbLine
10
166.491376
20
-96.140313000000006
30
0
11
167.22275400000001
21
-98.372130999999996
31
0
0
LINE
5
105
100
AcDbEntity
8
0
100
AcDbLine
10
167.22275400000001
20
-98.372130999999996
30
0
11
226.75196380898601
21
-105.45297105775009
31
0
0
LINE
5
106
100
AcDbEntity
8
0
100
AcDbLine
10
226.75196380898601
20
-105.45297105775009
30
0
11
231.40855400000004
21
-66.304631000000001
31
0
0
LINE
5
107
100
AcDbEntity
8
0
100
AcDbLine
10
230.61676000000003
20
-47.015400000000007
30
0
11
225.97363999999999
21
-45.440600000000011
31
0
0
LINE
5
108
100
AcDbEntity
8
0
100
AcDbLine
10
228.24440000000004
20
-27.025600000000001
30
0
11
223.45139900000004
21
-26.477243000000001
31
0
0
LINE
5
109
100
AcDbEntity
8
0
100
AcDbLine
10
223.45139900000004
20
-26.477243000000001
30
0
11
223.97829632284359
21
-22.047573494186135
31
0
0
LINE
5
110
100
AcDbEntity
8
0
100
AcDbLine
10
223.97829632284359
20
-22.047573494186135
30
0
11
199.26300000000001
21
-19.050000000000004
31
0
0
LINE
5
111
100
AcDbEntity
8
0
100
AcDbLine
10
199.26300000000001
20
-19.050000000000004
30
0
11
198.72977500000002
21
-23.446494000000001
31
0
0
LINE
5
112
100
AcDbEntity
8
0
100
AcDbLine
10
198.72977500000002
20
-23.446494000000001
30
0
11
147.92959999999999
21
-17.195799999999998
31
0
0
LINE
5
113
100
AcDbEntity
8
0
100
AcDbLine
10
147.92959999999999
20
-17.195799999999998
30
0
11
92.684600000000017
21
-17.195799999999998
31
0
0
LINE
5
114
100
AcDbEntity
8
0
100
AcDbLine
10
230.61676000000003
20
-47.015400000000007
30
0
11
228.41482600000003
21
-64.937640000000002
31
0
0
LINE
5
115
100
AcDbEntity
8
0
100
AcDbLine
10
228.41482600000003
20
-64.937640000000002
30
0
11
231.40855400000004
21
-66.304631000000001
31
0
0
LINE
5
116
100
AcDbEntity
8
0
100
AcDbLine
10
228.24440000000004
20
-27.025600000000001
30
0
11
225.97363999999999
21
-45.440600000000011
31
0
0
LINE
5
117
100
AcDbEntity
8
0
100
AcDbLine
10
91.713800000000006
20
-46.842680000000001
30
0
11
91.713800000000006
21
-98.064402999999984
31
0
0
LINE
5
118
100
AcDbEntity
8
0
100
AcDbLine
10
93.913800000000009
20
-100.26440299999999
30
0
11
150.29966512847648
21
-100.26440299999993
31
0
0
LINE
5
119
100
AcDbEntity
8
0
100
AcDbLine
10
150.42959128254972
20
-100.27210304372065
30
0
11
161.28488146454515
21
-101.56331073496686
31
0
0
LINE
5
120
100
AcDbEntity
8
0
100
AcDbLine
10
162.20025848788856
20
-102.31305957493979
30
0
11
162.49456893826081
21
-103.21115517082706
31
0
0
LINE
5
121
100
AcDbEntity
8
0
100
AcDbLine
10
232.26112776552901
20
-109.93505901984167
30
0
11
237.86574820683592
21
-62.816549997015372
31
0
0
LINE
5
122
100
AcDbEntity
8
0
100
AcDbLine
10
192.40342688616107
20
-16.622820787867159
30
0
11
148.36426323141555
21
-11.204033627746778
31
0
0
LINE
5
123
100
AcDbEntity
8
0
100
AcDbLine
10
148.22992712898187
20
-11.195799999999988
30
0
11
93.913800000000009
21
-11.195800000000006
31
0
0
LINE
5
124
100
AcDbEntity
8
0
100
AcDbLine
10
91.713799999999992
20
-13.395800000000005
30
0
11
91.713800000000006
21
-17.195799999999998
31
0
0
LINE
5
125
100
AcDbEntity
8
0
100
AcDbLine
10
91.713800000000006
20
-17.195799999999998
30
0
11
92.684600000000017
21
-17.195799999999998
31
0
0
LINE
5
126
100
AcDbEntity
8
0
100
AcDbLine
10
163.40994596160419
20
-103.96090401080001
30
0
11
229.81667554482399
21
-111.85980662425376
31
0
0
LINE
5
127
100
AcDbEntity
8
0
100
AcDbLine
10
193.62976075127762
20
-15.663496426681512
30
0
11
193.89661752557635
21
-13.463235360407701
31
0
0
LINE
5
128
100
AcDbEntity
8
0
100
AcDbLine
10
195.12105729932682
20
-12.503679608792424
30
0
11
228.99425633367119
21
-16.611961470450485
31
0
0
CIRCLE
5
129
100
AcDbEntity
8
0
100
AcDbCircle
10
94.71380000000002
20
-14.195799999999988
30
0
40
2.1000000000000001
210
0
220
0
230
1
0
CIRCLE
5
130
100
AcDbEntity
8
0
100
AcDbCircle
10
94.71380000000002
20
-49.842680000000001
30
0
40
2.1000000000000023
210
0
220
0
230
1
0
CIRCLE
5
131
100
AcDbEntity
8
0
100
AcDbCircle
10
95.213800000000006
20
-96.764402999999987
30
0
40
2.1000000000000023
210
0
220
0
230
1
0
CIRCLE
5
132
100
AcDbEntity
8
0
100
AcDbCircle
10
228.93917699581789
20
-108.23075767218768
30
0
40
2.099999999999993
210
0
220
0
230
1
0
LINE
5
133
100
AcDbEntity
8
0
100
AcDbLine
10
230.90244822805712
20
-18.452822822297978
30
0
11
237.85998620881713
21
-62.515056756183007
31
0
0
CIRCLE
5
134
100
AcDbEntity
8
0
100
AcDbCircle
10
227.16338765956991
20
-20.419218419940044
30
0
40
2.0999999999999943
210
0
220
0
230
1
0
ARC
5
135
100
AcDbEntity
8
0
100
AcDbCircle
10
93.913800000000066
20
-98.064402999999928
30
0
40
2.2000000000000597
210
0
220
0
230
1
100
AcDbArc
50
180
51
269.99999999999852
0
ARC
5
136
100
AcDbEntity
8
0
100
AcDbCircle
10
150.29966512847687
20
-101.36440299999252
30
0
40
1.099999999992586
210
0
220
-0
230
1
100
AcDbArc
50
83.216691813437194
51
90.000000000020719
0
ARC
5
137
100
AcDbEntity
8
0
100
AcDbCircle
10
161.15495531047176
20
-102.65561069124638
30
0
40
1.1000000000002583
210
0
220
-0
230
1
100
AcDbArc
50
18.144230569725028
51
83.216691813456308
0
ARC
5
138
100
AcDbEntity
8
0
100
AcDbCircle
10
163.53987211567755
20
-102.86860405452057
30
0
40
1.1000000000001577
210
0
220
0
230
1
100
AcDbArc
50
198.14423056972029
51
263.2166918134572
0
ARC
5
139
100
AcDbEntity
8
0
100
AcDbCircle
10
230.07652785297051
20
-109.67520671169522
30
0
40
2.199999999999962
210
0
220
0
230
1
100
AcDbArc
50
263.21669181346141
51
353.21669181346311
0
ARC
5
140
100
AcDbEntity
8
0
100
AcDbCircle
10
236.77344825055536
20
-62.68662384294224
30
0
40
1.1000000000012451
210
-0
220
0
230
1
100
AcDbArc
50
-6.7833081865239979
51
8.9730619702906935
0
ARC
5
141
100
AcDbEntity
8
0
100
AcDbCircle
10
228.72937231153603
20
-18.795956995816216
30
0
40
2.1999999999999997
210
0
220
-0
230
1
100
AcDbArc
50
8.9730619702948129
51
83.084706212196323
0
ARC
5
142
100
AcDbEntity
8
0
100
AcDbCircle
10
194.98861528825921
20
-13.595677371475261
30
0
40
1.0999999999999801
210
0
220
-0
230
1
100
AcDbArc
50
83.084706212194703
51
173.08470621219746
0
ARC
5
143
100
AcDbEntity
8
0
100
AcDbCircle
10
192.53776298859469
20
-15.531054415613896
30
0
40
1.1000000000000503
210
0
220
0
230
1
100
AcDbArc
50
262.98531506245104
51
353.08470621219499
0
ARC
5
144
100
AcDbEntity
8
0
100
AcDbCircle
10
148.22992712898176
20
-12.295800000002197
30
0
40
1.1000000000022099
210
0
220
-0
230
1
100
AcDbArc
50
82.985315062455925
51
89.999999999994088
0
ARC
5
145
100
AcDbEntity
8
0
100
AcDbCircle
10
93.913799999999995
20
-13.395800000000005
30
0
40
2.1999999999999997
210
0
220
-0
230
1
100
AcDbArc
50
89.999999999999616
51
180
0
ENDSEC
0
SECTION
2
OBJECTS
0
DICTIONARY
5
C
100
AcDbDictionary
3
ACAD_GROUP
350
D
3
ACAD_MLINESTYLE
350
17
0
DICTIONARY
5
D
100
AcDbDictionary
0
DICTIONARY
5
1A
330
C
100
AcDbDictionary
0
DICTIONARY
5
17
100
AcDbDictionary
0
ENDSEC
0
EOF
