0
SECTION
2
HEADER
9
$INSUNITS
70
4
9
$ACADVER
1
AC1014
9
$HANDSEED
5
FFFF
0
ENDSEC
0
SECTION
2
TABLES
0
TABLE
2
VPORT
5
8
100
AcDbSymbolTable
0
ENDTAB
0
TABLE
2
LTYPE
5
5
100
AcDbSymbolTable
0
LTYPE
5
14
100
AcDbSymbolTableRecord
100
AcDbLinetypeTableRecord
2
BYBLOCK
70
0
0
LTYPE
5
15
100
AcDbSymbolTableRecord
100
AcDbLinetypeTableRecord
2
BYLAYER
70
0
0
ENDTAB
0
TABLE
2
LAYER
5
2
100
AcDbSymbolTable
70
2
0
LAYER
5
50
100
AcDbSymbolTableRecord
100
AcDbLayerTableRecord
2
0
70
0
6
CONTINUOUS
0
ENDTAB
0
TABLE
2
STYLE
5
3
100
AcDbSymbolTable
70
1
0
STYLE
5
11
100
AcDbSymbolTableRecord
100
AcDbTextStyleTableRecord
2
STANDARD
70
0
0
ENDTAB
0
TABLE
2
VIEW
5
6
100
AcDbSymbolTable
70
0
0
ENDTAB
0
TABLE
2
UCS
5
7
100
AcDbSymbolTable
70
0
0
ENDTAB
0
TABLE
2
APPID
5
9
100
AcDbSymbolTable
70
2
0
APPID
5
12
100
AcDbSymbolTableRecord
100
AcDbRegAppTableRecord
2
ACAD
70
0
0
ENDTAB
0
TABLE
2
DIMSTYLE
5
A
100
AcDbSymbolTable
70
1
0
ENDTAB
0
TABLE
2
BLOCK_RECORD
5
1
100
AcDbSymbolTable
70
1
0
BLOCK_RECORD
5
1F
100
AcDbSymbolTableRecord
100
AcDbBlockTableRecord
2
*MODEL_SPACE
0
BLOCK_RECORD
5
1B
100
AcDbSymbolTableRecord
100
AcDbBlockTableRecord
2
*PAPER_SPACE
0
ENDTAB
0
ENDSEC
0
SECTION
2
BLOCKS
0
BLOCK
5
20
100
AcDbEntity
100
AcDbBlockBegin
2
*MODEL_SPACE
0
ENDBLK
5
21
100
AcDbEntity
100
AcDbBlockEnd
0
BLOCK
5
1C
100
AcDbEntity
100
AcDbBlockBegin
2
*PAPER_SPACE
0
ENDBLK
5
1D
100
AcDbEntity
100
AcDbBlockEnd
0
ENDSEC
0
SECTION
2
ENTITIES
0
LWPOLYLINE
5
100
100
AcDbEntity
8
0
100
AcDbPolyline
90
22
70
1
43
0.0
10
91.713800000000006
20
-98.064403000000027
10
91.713800000000006
20
-13.395800000000015
42
-0.41421356237309509
10
93.913800000000009
20
-11.195800000000009
10
148.16248442257273
20
-11.195799999999981
42
-0.030571021638853203
10
148.29807826153544
20
-11.204098239800084
10
192.40362704773469
20
-16.622845398066634
42
0.41466802042758893
10
193.62976075127787
20
-15.66349642667946
10
193.89661752557635
20
-13.463235360407744
42
-0.41421356237309964
10
195.12105729932682
20
-12.503679608792433
10
228.99425633367122
20
-16.611961470450531
42
-0.33513708502713402
10
230.90244822805715
20
-18.452822822298025
10
237.85998620881713
20
-62.515056756183085
42
-0.068858657223866707
10
237.86574820683592
20
-62.816549997015443
10
232.26112776552901
20
-109.93505901984166
42
-0.41421356237309742
10
229.81667554482399
20
-111.85980662425376
10
163.40994596160419
20
-103.96090401079996
42
-0.29181648396539589
10
162.49456893826081
20
-103.21115517082708
10
162.20025848788853
20
-102.3130595749398
42
0.29181648396543702
10
161.28488146454518
20
-101.56331073496686
10
150.42959128254981
20
-100.27210304372065
42
0.029606411358981066
10
150.29966512847659
20
-100.26440299999993
10
93.913800000000009
20
-100.26440300000003
42
-0.41421356237308082
0
LWPOLYLINE
5
101
100
AcDbEntity
8
0
100
AcDbPolyline
90
41
70
1
43
0.0
10
141.69254152447473
20
-36.154719999999983
10
97.728639999999928
20
-36.154719999999983
42
0.41421356237309509
10
96.728639999999928
20
-37.154719999999983
10
96.728639999999928
20
-46.842679999999994
42
-0.4142135623730977
10
95.728639999999956
20
-47.842679999999987
10
94.713799999999978
20
-47.842679999999987
42
0.99999999999999989
10
94.713799999999978
20
-51.842679999999994
10
95.728639999999956
20
-51.842679999999973
42
-0.41421356237310281
10
96.728639999999956
20
-52.842680000000001
10
96.728639999999984
20
-94.25472000000002
42
0.41421356237310542
10
97.728639999999984
20
-95.25472000000002
10
145.07924000000003
20
-95.25472000000002
42
0.41421356237310542
10
146.07924000000003
20
-94.25472000000002
10
146.07923999999997
20
-77.204719999999767
42
-0.41421356237311319
10
147.07924000000003
20
-76.204719999999767
10
151.84540661288406
20
-76.20471999999998
10
162.78424192389676
20
-77.601190853581016
42
-0.41390733244289479
10
163.64968929500765
20
-78.718737073243688
10
161.55155280442892
20
-95.291799607179712
42
0.413271170685241
10
162.41484501891054
20
-96.409068315760038
10
227.52762465630454
20
-104.8653125461996
42
0.41560047616019435
10
228.64868425685358
20
-103.99773480879068
10
231.01995142661502
20
-85.036839257597592
42
0.41421356237312085
10
230.15177525249842
20
-83.920474563290114
10
228.13214822592246
20
-83.667898135644506
42
-0.41382865716727646
10
227.26380980842015
20
-82.552837716351505
10
229.35718677367478
20
-65.633414642231969
42
0.41337005395052467
10
228.49040254444873
20
-64.518549827603479
10
225.68401856441733
20
-64.163115154609173
42
-0.4131243520063228
10
224.81713160859627
20
-63.049083482597126
10
226.89676860112149
20
-46.124134449493106
42
0.41352782964077117
10
226.02851402771066
20
-45.009930523334134
10
223.24967535613968
20
-44.661875704744041
42
-0.413605560780405
10
222.38145319872643
20
-43.54740825276469
10
224.41968472911543
20
-26.995740859416813
42
0.41260928961155202
10
223.55483959451573
20
-25.881702225311265
10
148.08663882782864
20
-16.168119750991305
42
0.41273493830360458
10
146.9678201542342
20
-17.027272162505206
10
144.76783063438597
20
-33.4636297156732
42
-0.29012316891382084
10
144.08006527948484
20
-34.283828590359015
42
0.20824164640200254
10
142.59673349204115
20
-35.58184631128092
42
-0.29012316891383133
0
CIRCLE
5
102
100
AcDbEntity
8
0
100
AcDbCircle
10
94.71380000000002
20
-14.195799999999988
30
0
40
1.0999999999999945
210
0
220
0
230
1
0
CIRCLE
5
103
100
AcDbEntity
8
0
100
AcDbCircle
10
94.71380000000002
20
-14.195799999999988
30
0
40
1.100000000000001
210
0
220
-0
230
1
0
CIRCLE
5
104
100
AcDbEntity
8
0
100
AcDbCircle
10
95.213800000000006
20
-96.764402999999987
30
0
40
1.0999999999999974
210
0
220
0
230
1
0
CIRCLE
5
105
100
AcDbEntity
8
0
100
AcDbCircle
10
95.213800000000006
20
-96.764402999999987
30
0
40
1.0999999999999985
210
0
220
-0
230
1
0
CIRCLE
5
106
100
AcDbEntity
8
0
100
AcDbCircle
10
228.93917699581789
20
-108.23075767218768
30
0
40
1.099999999999999
210
0
220
0
230
1
0
CIRCLE
5
107
100
AcDbEntity
8
0
100
AcDbCircle
10
228.93917699581789
20
-108.23075767218768
30
0
40
1.0999999999999952
210
0
220
-0
230
1
0
CIRCLE
5
108
100
AcDbEntity
8
0
100
AcDbCircle
10
227.16338765956991
20
-20.419218419940044
30
0
40
1.1000000000000103
210
0
220
0
230
1
0
CIRCLE
5
109
100
AcDbEntity
8
0
100
AcDbCircle
10
227.16338765956991
20
-20.419218419940044
30
0
40
1.0999999999999912
210
0
220
-0
230
1
0
ENDSEC
0
SECTION
2
OBJECTS
0
DICTIONARY
5
C
100
AcDbDictionary
3
ACAD_GROUP
350
D
3
ACAD_MLINESTYLE
350
17
0
DICTIONARY
5
D
100
AcDbDictionary
0
DICTIONARY
5
1A
330
C
100
AcDbDictionary
0
DICTIONARY
5
17
100
AcDbDictionary
0
ENDSEC
0
EOF
