0
SECTION
2
HEADER
9
$INSUNITS
70
4
9
$ACADVER
1
AC1014
9
$HANDSEED
5
FFFF
0
ENDSEC
0
SECTION
2
TABLES
0
TABLE
2
VPORT
5
8
100
AcDbSymbolTable
0
ENDTAB
0
TABLE
2
LTYPE
5
5
100
AcDbSymbolTable
0
LTYPE
5
14
100
AcDbSymbolTableRecord
100
AcDbLinetypeTableRecord
2
BYBLOCK
70
0
0
LTYPE
5
15
100
AcDbSymbolTableRecord
100
AcDbLinetypeTableRecord
2
BYLAYER
70
0
0
ENDTAB
0
TABLE
2
LAYER
5
2
100
AcDbSymbolTable
70
2
0
LAYER
5
50
100
AcDbSymbolTableRecord
100
AcDbLayerTableRecord
2
0
70
0
6
CONTINUOUS
0
ENDTAB
0
TABLE
2
STYLE
5
3
100
AcDbSymbolTable
70
1
0
STYLE
5
11
100
AcDbSymbolTableRecord
100
AcDbTextStyleTableRecord
2
STANDARD
70
0
0
ENDTAB
0
TABLE
2
VIEW
5
6
100
AcDbSymbolTable
70
0
0
ENDTAB
0
TABLE
2
UCS
5
7
100
AcDbSymbolTable
70
0
0
ENDTAB
0
TABLE
2
APPID
5
9
100
AcDbSymbolTable
70
2
0
APPID
5
12
100
AcDbSymbolTableRecord
100
AcDbRegAppTableRecord
2
ACAD
70
0
0
ENDTAB
0
TABLE
2
DIMSTYLE
5
A
100
AcDbSymbolTable
70
1
0
ENDTAB
0
TABLE
2
BLOCK_RECORD
5
1
100
AcDbSymbolTable
70
1
0
BLOCK_RECORD
5
1F
100
AcDbSymbolTableRecord
100
AcDbBlockTableRecord
2
*MODEL_SPACE
0
BLOCK_RECORD
5
1B
100
AcDbSymbolTableRecord
100
AcDbBlockTableRecord
2
*PAPER_SPACE
0
ENDTAB
0
ENDSEC
0
SECTION
2
BLOCKS
0
BLOCK
5
20
100
AcDbEntity
100
AcDbBlockBegin
2
*MODEL_SPACE
0
ENDBLK
5
21
100
AcDbEntity
100
AcDbBlockEnd
0
BLOCK
5
1C
100
AcDbEntity
100
AcDbBlockBegin
2
*PAPER_SPACE
0
ENDBLK
5
1D
100
AcDbEntity
100
AcDbBlockEnd
0
ENDSEC
0
SECTION
2
ENTITIES
0
LWPOLYLINE
5
100
100
AcDbEntity
8
0
100
AcDbPolyline
90
22
70
1
43
0.0
10
150.29966512847645
20
-100.26440299999993
10
93.913800000000009
20
-100.26440300000002
42
-0.4142135623730856
10
91.713800000000006
20
-98.06440299999997
10
91.713800000000006
20
-13.395800000000005
42
-0.41421356237309742
10
93.913800000000009
20
-11.195800000000016
10
148.16250675309342
20
-11.19579999999999
42
-0.030570534562017086
10
148.29664056879523
20
-11.204008756453277
10
192.40362917289292
20
-16.62284565916066
42
0.41466745013119038
10
193.62976075127762
20
-15.663496426681506
10
193.89661752557635
20
-13.46323536040771
42
-0.41421356237308488
10
195.12105729932682
20
-12.503679608792453
10
228.99425633367122
20
-16.611961470450531
42
-0.3351370850271333
10
230.90244822805715
20
-18.452822822298014
10
237.85998620881713
20
-62.51505675618305
42
-0.068858657223639805
10
237.86574820683592
20
-62.816549997015407
10
232.26112776552907
20
-109.93505901984167
42
-0.41421356237310442
10
229.81667554482402
20
-111.85980662425376
10
163.40994596160417
20
-103.96090401079999
42
-0.29181648396542142
10
162.49456893826081
20
-103.21115517082708
10
162.20025848788856
20
-102.31305957493979
42
0.29181648396541143
10
161.28488146454518
20
-101.56331073496686
10
150.42959128254969
20
-100.27210304372063
42
0.02960641135886841
0
CIRCLE
5
101
100
AcDbEntity
8
0
100
AcDbCircle
10
94.71380000000002
20
-14.195799999999988
30
0
40
1.100000000000001
210
0
220
0
230
1
0
CIRCLE
5
102
100
AcDbEntity
8
0
100
AcDbCircle
10
94.71380000000002
20
-49.842680000000001
30
0
40
1.1000000000000068
210
0
220
0
230
1
0
CIRCLE
5
103
100
AcDbEntity
8
0
100
AcDbCircle
10
95.213800000000006
20
-96.764402999999987
30
0
40
1.0999999999999985
210
0
220
0
230
1
0
CIRCLE
5
104
100
AcDbEntity
8
0
100
AcDbCircle
10
228.93917699581789
20
-108.23075767218768
30
0
40
1.0999999999999952
210
0
220
0
230
1
0
CIRCLE
5
105
100
AcDbEntity
8
0
100
AcDbCircle
10
227.16338765956991
20
-20.419218419940044
30
0
40
1.0999999999999912
210
0
220
0
230
1
0
CIRCLE
5
106
100
AcDbEntity
8
0
100
AcDbCircle
10
140.05244500000001
20
-75.436351999999999
30
0
40
1.0999999999999921
210
0
220
0
230
1
0
CIRCLE
5
107
100
AcDbEntity
8
0
100
AcDbCircle
10
145.3896
20
-36.855400000000003
30
0
40
1.1000000000000021
210
0
220
0
230
1
0
CIRCLE
5
108
100
AcDbEntity
8
0
100
AcDbCircle
10
206.82904500000004
20
-43.965752000000002
30
0
40
1.099999999999999
210
0
220
0
230
1
0
CIRCLE
5
109
100
AcDbEntity
8
0
100
AcDbCircle
10
188.18544499999999
20
-79.881352000000007
30
0
40
1.100000000000005
210
0
220
0
230
1
0
LWPOLYLINE
5
110
100
AcDbEntity
8
0
100
AcDbPolyline
90
4
70
1
43
0.0
10
114.22864000000003
20
-77.75472000000002
10
100.22864000000001
20
-77.75472000000002
10
100.22864000000001
20
-91.75472000000002
10
114.22864000000003
20
-91.75472000000002
0
LWPOLYLINE
5
111
100
AcDbEntity
8
0
100
AcDbPolyline
90
4
70
1
43
0.0
10
138.07924000000003
20
-77.75472000000002
10
124.07924000000001
20
-77.75472000000002
10
124.07924000000001
20
-91.75472000000002
10
138.07924000000003
20
-91.75472000000002
0
LWPOLYLINE
5
112
100
AcDbEntity
8
0
100
AcDbPolyline
90
4
70
1
43
0.0
10
121.37239000000001
20
-58.704719999999995
10
107.37239000000001
20
-58.704719999999995
10
107.37239000000001
20
-72.704719999999995
10
121.37239000000001
20
-72.704719999999995
0
LWPOLYLINE
5
113
100
AcDbEntity
8
0
100
AcDbPolyline
90
4
70
1
43
0.0
10
147.56614000000002
20
-58.704719999999995
10
133.56614000000002
20
-58.704719999999995
10
133.56614000000002
20
-72.704719999999995
10
147.56614000000002
20
-72.704719999999995
0
LWPOLYLINE
5
114
100
AcDbEntity
8
0
100
AcDbPolyline
90
4
70
1
43
0.0
10
119.02924000000002
20
-39.654719999999998
10
105.02924000000002
20
-39.654719999999998
10
105.02924000000002
20
-53.654720000000005
10
119.02924000000002
20
-53.654720000000005
0
LWPOLYLINE
5
115
100
AcDbEntity
8
0
100
AcDbPolyline
90
4
70
1
43
0.0
10
142.87984
20
-39.654719999999998
10
128.87984
20
-39.654719999999998
10
128.87984
20
-53.654720000000005
10
142.87984
20
-53.654720000000005
0
LWPOLYLINE
5
116
100
AcDbEntity
8
0
100
AcDbPolyline
90
4
70
1
43
0.0
10
185.41905214917375
20
-81.92742332196913
10
171.52696047162198
20
-80.192549026091257
10
169.76860651655801
20
-94.081688357551286
10
183.69294756169825
20
-95.845617410797161
0
LWPOLYLINE
5
117
100
AcDbEntity
8
0
100
AcDbPolyline
90
4
70
1
43
0.0
10
162.28103705029272
20
-35.696453252333924
10
163.99234512355514
20
-21.744230331145047
10
150.10688940206654
20
-19.9570203808088
10
148.24956744177231
20
-33.833271860794618
0
LWPOLYLINE
5
118
100
AcDbEntity
8
0
100
AcDbPolyline
90
4
70
1
43
0.0
10
181.17674986507583
20
-37.998735258988042
10
182.8869309155435
20
-24.056340106828756
10
168.99952182683836
20
-22.284372611937734
10
167.17104319136357
20
-36.164454235603074
0
LWPOLYLINE
5
119
100
AcDbEntity
8
0
100
AcDbPolyline
90
4
70
1
43
0.0
10
166.37626191835744
20
-41.195186570299789
10
152.48223081855951
20
-39.475913526873889
10
150.75221244356689
20
-53.368610760391491
10
164.6671390729104
20
-55.099554827880048
0
LWPOLYLINE
5
120
100
AcDbEntity
8
0
100
AcDbPolyline
90
4
70
1
43
0.0
10
201.752847687464
20
-26.347759479217828
10
187.85928766447017
20
-24.624683773548682
10
186.12122924357931
20
-38.516377440109657
10
200.04596628181594
20
-40.256092868624513
0
LWPOLYLINE
5
121
100
AcDbEntity
8
0
100
AcDbPolyline
90
4
70
1
43
0.0
10
220.68505577221282
20
-28.686378863749383
10
206.79493147137779
20
-26.93582269288504
10
205.00498756134928
20
-40.820926250257301
10
218.96981568186291
20
-42.615161267478499
0
LWPOLYLINE
5
122
100
AcDbEntity
8
0
100
AcDbPolyline
90
4
70
1
43
0.0
10
223.11871574357241
20
-48.172819992511833
10
209.22725657185003
20
-46.432888361564778
10
207.45776079676949
20
-60.320612606449956
10
221.40816741088329
20
-62.093972315480528
0
LWPOLYLINE
5
123
100
AcDbEntity
8
0
100
AcDbPolyline
90
4
70
1
43
0.0
10
225.57758049431362
20
-67.67759422191294
10
211.68853288064804
20
-65.918515944709512
10
209.88527433616608
20
-79.801896607276987
10
223.85351183460637
20
-81.612135179694292
0
LWPOLYLINE
5
124
100
AcDbEntity
8
0
100
AcDbPolyline
90
4
70
1
43
0.0
10
204.22125726690982
20
-45.858924879740442
10
190.33137580499397
20
-44.106442932921695
10
188.53918928883135
20
-57.991257209363596
10
202.50831064780988
20
-59.788786606742185
0
LWPOLYLINE
5
125
100
AcDbEntity
8
0
100
AcDbPolyline
90
4
70
1
43
0.0
10
185.26916020275993
20
-43.505593138976792
10
171.37286376678904
20
-41.804727076165548
10
169.67532544747655
20
-55.701430413808815
10
183.56723844327115
20
-57.39825408298028
0
LWPOLYLINE
5
126
100
AcDbEntity
8
0
100
AcDbPolyline
90
4
70
1
43
0.0
10
206.64796781182378
20
-65.340258150677045
10
192.75570808220135
20
-63.606730070514352
10
190.99892317938694
20
-77.496067952690154
10
204.93605668141197
20
-79.256037789957418
0
LWPOLYLINE
5
127
100
AcDbEntity
8
0
100
AcDbPolyline
90
4
70
1
43
0.0
10
187.73530021787292
20
-63.015267920797278
10
173.84235492845065
20
-61.287242693805922
10
172.09558672680305
20
-75.177843863291457
10
186.02607245848731
20
-76.927004517859871
0
LWPOLYLINE
5
128
100
AcDbEntity
8
0
100
AcDbPolyline
90
4
70
1
43
0.0
10
168.84073396179986
20
-60.703924137051366
10
154.94989873399757
20
-58.959018215791488
10
153.17412611954859
20
-72.845941259496058
10
167.1237881259018
20
-74.626779516523939
0
LWPOLYLINE
5
129
100
AcDbEntity
8
0
100
AcDbPolyline
90
36
70
1
43
0.0
10
218.52959619643917
20
-85.994258300457403
10
204.63781011788942
20
-84.256938659174949
10
204.05461924915741
20
-88.920616222067522
10
202.54140472077205
20
-88.731389397638495
10
203.3144428297507
20
-82.549535947251087
10
196.61660803197969
20
-81.711974593220987
10
195.84356992300081
20
-87.89382804360838
10
195.02494566993985
20
-87.791459433671378
10
194.67937405942519
20
-90.554936457640665
10
195.49799831248612
20
-90.657305067577681
10
194.71813562951138
20
-96.893733468169131
10
196.42980452227511
20
-97.107776925310176
10
196.21576106513407
20
-98.819445818073916
10
199.49025807737783
20
-99.228920257822011
10
199.70430153451886
20
-97.517251365058257
10
201.41597042728262
20
-97.731294822199303
10
201.93401364716283
20
-93.588591857017192
10
203.44722774359352
20
-93.777818841424306
10
202.90201797985557
20
-98.137774235959569
10
216.78542594449738
20
-99.94082256462309
10
217.33892114063849
20
-95.515018194598611
10
218.85213355281195
20
-95.704261941244113
10
218.33403064708443
20
-99.847065926194716
10
220.04569714610042
20
-100.06112852485926
10
219.8316345474359
20
-101.77279502387506
10
223.10612698033569
20
-102.18230608218977
10
223.32018957900021
20
-100.47063958317393
10
225.03185607801464
20
-100.68470218184645
10
225.81178850271399
20
-94.448282502823673
10
226.63041161094011
20
-94.550660267394321
10
226.97601412530571
20
-91.787187108113741
10
226.15739101708127
20
-91.684809343535107
10
226.9304982574734
20
-85.502964538400462
10
220.2326728265422
20
-84.665328282756818
10
219.45956558616385
20
-90.847173087899634
10
217.94635317399099
20
-90.657929341254061
0
LWPOLYLINE
5
130
100
AcDbEntity
8
0
100
AcDbPolyline
90
4
70
1
43
0.0
10
122.79624
20
-20.536120000000004
10
94.85624
20
-20.536120000000004
42
-0.99999999999999989
10
94.85624
20
-18.53612
10
122.79624
20
-18.53612
42
-0.99999999999999989
0
LWPOLYLINE
5
131
100
AcDbEntity
8
0
100
AcDbPolyline
90
4
70
1
43
0.0
10
122.79624
20
-35.756120000000003
10
94.85624
20
-35.756120000000003
42
-0.99999999999999989
10
94.85624
20
-33.756120000000003
10
122.79624
20
-33.756120000000003
42
-0.99999999999999989
0
ENDSEC
0
SECTION
2
OBJECTS
0
DICTIONARY
5
C
100
AcDbDictionary
3
ACAD_GROUP
350
D
3
ACAD_MLINESTYLE
350
17
0
DICTIONARY
5
D
100
AcDbDictionary
0
DICTIONARY
5
1A
330
C
100
AcDbDictionary
0
DICTIONARY
5
17
100
AcDbDictionary
0
ENDSEC
0
EOF
