0
SECTION
2
HEADER
9
$INSUNITS
70
4
9
$ACADVER
1
AC1014
9
$HANDSEED
5
FFFF
0
ENDSEC
0
SECTION
2
TABLES
0
TABLE
2
VPORT
5
8
100
AcDbSymbolTable
0
ENDTAB
0
TABLE
2
LTYPE
5
5
100
AcDbSymbolTable
0
LTYPE
5
14
100
AcDbSymbolTableRecord
100
AcDbLinetypeTableRecord
2
BYBLOCK
70
0
0
LTYPE
5
15
100
AcDbSymbolTableRecord
100
AcDbLinetypeTableRecord
2
BYLAYER
70
0
0
ENDTAB
0
TABLE
2
LAYER
5
2
100
AcDbSymbolTable
70
2
0
LAYER
5
50
100
AcDbSymbolTableRecord
100
AcDbLayerTableRecord
2
0
70
0
6
CONTINUOUS
0
ENDTAB
0
TABLE
2
STYLE
5
3
100
AcDbSymbolTable
70
1
0
STYLE
5
11
100
AcDbSymbolTableRecord
100
AcDbTextStyleTableRecord
2
STANDARD
70
0
0
ENDTAB
0
TABLE
2
VIEW
5
6
100
AcDbSymbolTable
70
0
0
ENDTAB
0
TABLE
2
UCS
5
7
100
AcDbSymbolTable
70
0
0
ENDTAB
0
TABLE
2
APPID
5
9
100
AcDbSymbolTable
70
2
0
APPID
5
12
100
AcDbSymbolTableRecord
100
AcDbRegAppTableRecord
2
ACAD
70
0
0
ENDTAB
0
TABLE
2
DIMSTYLE
5
A
100
AcDbSymbolTable
70
1
0
ENDTAB
0
TABLE
2
BLOCK_RECORD
5
1
100
AcDbSymbolTable
70
1
0
BLOCK_RECORD
5
1F
100
AcDbSymbolTableRecord
100
AcDbBlockTableRecord
2
*MODEL_SPACE
0
BLOCK_RECORD
5
1B
100
AcDbSymbolTableRecord
100
AcDbBlockTableRecord
2
*PAPER_SPACE
0
ENDTAB
0
ENDSEC
0
SECTION
2
BLOCKS
0
BLOCK
5
20
100
AcDbEntity
100
AcDbBlockBegin
2
*MODEL_SPACE
0
ENDBLK
5
21
100
AcDbEntity
100
AcDbBlockEnd
0
BLOCK
5
1C
100
AcDbEntity
100
AcDbBlockBegin
2
*PAPER_SPACE
0
ENDBLK
5
1D
100
AcDbEntity
100
AcDbBlockEnd
0
ENDSEC
0
SECTION
2
ENTITIES
0
LWPOLYLINE
5
100
100
AcDbEntity
8
0
100
AcDbPolyline
90
33
70
1
43
0.0
10
150.29966512847645
20
-100.26440299999993
10
93.913800000000009
20
-100.26440300000002
42
-0.4142135623730856
10
91.713800000000006
20
-98.06440299999997
10
91.71380000000002
20
-46.993319999999997
42
-0.4142135623730977
10
92.713800000000006
20
-45.993320000000004
10
98.837040000000002
20
-45.993320000000004
10
98.837040000000002
20
-38.683320000000009
42
-0.4142135623730977
10
99.837040000000002
20
-37.683320000000002
10
123.71380000000002
20
-37.683320000000002
42
0.41421356237310414
10
124.71380000000002
20
-36.683320000000002
10
124.71380000000002
20
-18.195800000000006
42
0.41421356237309698
10
123.71380000000002
20
-17.195800000000006
10
92.713800000000006
20
-17.195800000000009
42
-0.41421356237309698
10
91.713800000000006
20
-16.195800000000006
10
91.713800000000006
20
-13.395800000000005
42
-0.41421356237309742
10
93.913800000000009
20
-11.195800000000016
10
148.16250675309342
20
-11.19579999999999
42
-0.030570534562017086
10
148.29664056879523
20
-11.204008756453277
10
192.40362917289292
20
-16.62284565916066
42
0.41466745013119038
10
193.62976075127762
20
-15.663496426681506
10
193.89661752557635
20
-13.46323536040771
42
-0.41421356237308488
10
195.12105729932682
20
-12.503679608792453
10
228.99425633367122
20
-16.611961470450531
42
-0.3351370850271333
10
230.90244822805715
20
-18.452822822298014
10
237.85998620881713
20
-62.51505675618305
42
-0.068858657223639805
10
237.86574820683592
20
-62.816549997015407
10
232.26112776552907
20
-109.93505901984167
42
-0.41421356237310442
10
229.81667554482402
20
-111.85980662425376
10
163.40994596160417
20
-103.96090401079999
42
-0.29181648396542142
10
162.49456893826081
20
-103.21115517082708
10
162.20025848788856
20
-102.31305957493979
42
0.29181648396541143
10
161.28488146454518
20
-101.56331073496686
10
150.42959128254969
20
-100.27210304372063
42
0.02960641135886841
0
LWPOLYLINE
5
101
100
AcDbEntity
8
0
100
AcDbPolyline
90
8
70
1
43
0.0
10
119.02924000000002
20
-39.654719999999998
10
105.02924000000002
20
-39.654719999999998
10
105.02924000000002
20
-53.654720000000005
10
109.02924000000002
20
-53.654720000000005
10
109.02924000000002
20
-54.654719999999998
10
115.02924000000002
20
-54.654719999999998
10
115.02924000000002
20
-53.654720000000005
10
119.02924000000002
20
-53.654720000000005
0
LWPOLYLINE
5
102
100
AcDbEntity
8
0
100
AcDbPolyline
90
40
70
1
43
0.0
10
218.52959619642365
20
-85.99425830045567
10
204.63781011788942
20
-84.256938659174949
10
204.05461924915741
20
-88.920616222067522
10
202.54140472077205
20
-88.731389397638495
10
203.3144428297507
20
-82.549535947251087
10
196.61660803197969
20
-81.711974593220987
10
195.84356992300081
20
-87.89382804360838
10
195.02494566993985
20
-87.791459433671378
10
194.67937405942519
20
-90.554936457640665
10
195.49799831248612
20
-90.657305067577681
10
194.71813562951138
20
-96.893733468169131
10
196.42980452227511
20
-97.107776925310176
10
196.21576106513407
20
-98.819445818073916
10
199.49025807737783
20
-99.228920257822011
10
199.70430153451886
20
-97.517251365058257
10
201.41597042728262
20
-97.731294822199303
10
201.93401729081242
20
-93.588562719375091
10
203.44723181919784
20
-93.77778954380409
10
202.9020146921647
20
-98.137800579538904
10
206.87110202158397
20
-98.634132899102582
10
206.74701894169306
20
-99.626404731457399
10
212.69224645161063
20
-100.43674391224445
10
212.81634071170603
20
-99.444473478032407
10
216.78542244855424
20
-99.940850518414067
10
217.33892114063849
20
-95.515018194598611
10
218.85213355281195
20
-95.704261941244113
10
218.33403064708386
20
-99.847065926201111
10
220.04569714609966
20
-100.06112852486564
10
219.8316345474351
20
-101.77279502388144
10
223.10612698033492
20
-102.18230608219615
10
223.32018957899942
20
-100.47063958318034
10
225.03185607801521
20
-100.68470218184486
10
225.81178850271459
20
-94.448282502822067
10
226.63041161093955
20
-94.550660267400715
10
226.97601412530514
20
-91.78718710812015
10
226.15739101708019
20
-91.684809343541446
10
226.9304982574744
20
-85.502964538400349
10
220.23267282654325
20
-84.665328282756661
10
219.45956558614887
20
-90.847173087897744
10
217.94635317397547
20
-90.657929341252341
0
CIRCLE
5
103
100
AcDbEntity
8
0
100
AcDbCircle
10
94.71380000000002
20
-14.195799999999988
30
0
40
2.0999999999999948
210
0
220
0
230
1
0
CIRCLE
5
104
100
AcDbEntity
8
0
100
AcDbCircle
10
94.71380000000002
20
-14.195799999999988
30
0
40
2.1000000000000001
210
0
220
-0
230
1
0
CIRCLE
5
105
100
AcDbEntity
8
0
100
AcDbCircle
10
94.71380000000002
20
-49.842680000000001
30
0
40
2.1000000000000001
210
0
220
0
230
1
0
CIRCLE
5
106
100
AcDbEntity
8
0
100
AcDbCircle
10
94.71380000000002
20
-49.842680000000001
30
0
40
2.1000000000000023
210
0
220
-0
230
1
0
CIRCLE
5
107
100
AcDbEntity
8
0
100
AcDbCircle
10
95.213800000000006
20
-96.764402999999987
30
0
40
2.1000000000000059
210
0
220
0
230
1
0
CIRCLE
5
108
100
AcDbEntity
8
0
100
AcDbCircle
10
95.213800000000006
20
-96.764402999999987
30
0
40
2.1000000000000023
210
0
220
-0
230
1
0
CIRCLE
5
109
100
AcDbEntity
8
0
100
AcDbCircle
10
228.93917699581789
20
-108.23075767218768
30
0
40
2.0999999999999868
210
0
220
0
230
1
0
CIRCLE
5
110
100
AcDbEntity
8
0
100
AcDbCircle
10
228.93917699581789
20
-108.23075767218768
30
0
40
2.099999999999993
210
0
220
-0
230
1
0
CIRCLE
5
111
100
AcDbEntity
8
0
100
AcDbCircle
10
227.16338765956991
20
-20.419218419940044
30
0
40
2.1000000000000081
210
0
220
0
230
1
0
CIRCLE
5
112
100
AcDbEntity
8
0
100
AcDbCircle
10
227.16338765956991
20
-20.419218419940044
30
0
40
2.0999999999999943
210
0
220
-0
230
1
0
CIRCLE
5
113
100
AcDbEntity
8
0
100
AcDbCircle
10
145.3896
20
-36.855400000000003
30
0
40
2.100000000000001
210
0
220
0
230
1
0
CIRCLE
5
114
100
AcDbEntity
8
0
100
AcDbCircle
10
188.18544499999999
20
-79.881352000000007
30
0
40
2.1000000000000001
210
0
220
0
230
1
0
CIRCLE
5
115
100
AcDbEntity
8
0
100
AcDbCircle
10
206.82904500000004
20
-43.965752000000002
30
0
40
2.0999999999999872
210
0
220
0
230
1
0
LWPOLYLINE
5
116
100
AcDbEntity
8
0
100
AcDbPolyline
90
8
70
1
43
0.0
10
105.02924000000002
20
-39.654719999999998
10
105.02924000000002
20
-53.654720000000005
10
109.02924000000002
20
-53.654720000000005
10
109.02924000000002
20
-54.654719999999998
10
115.02924000000002
20
-54.654719999999998
10
115.02924000000002
20
-53.654720000000005
10
119.02924000000002
20
-53.654720000000005
10
119.02924000000002
20
-39.654719999999998
0
LWPOLYLINE
5
117
100
AcDbEntity
8
0
100
AcDbPolyline
90
8
70
1
43
0.0
10
128.87984
20
-39.654719999999998
10
128.87984
20
-53.654720000000005
10
132.87984
20
-53.654720000000005
10
132.87984
20
-54.654719999999998
10
138.87984
20
-54.654719999999998
10
138.87984
20
-53.654720000000005
10
142.87984
20
-53.654720000000005
10
142.87984
20
-39.654719999999998
0
LWPOLYLINE
5
118
100
AcDbEntity
8
0
100
AcDbPolyline
90
8
70
1
43
0.0
10
107.37239000000001
20
-58.704719999999995
10
107.37239000000001
20
-72.704719999999995
10
111.37239000000001
20
-72.704719999999995
10
111.37239000000001
20
-73.704719999999995
10
117.37239000000001
20
-73.704719999999995
10
117.37239000000001
20
-72.704719999999995
10
121.37239000000001
20
-72.704719999999995
10
121.37239000000001
20
-58.704719999999995
0
LWPOLYLINE
5
119
100
AcDbEntity
8
0
100
AcDbPolyline
90
10
70
1
43
0.0
10
133.56614000000002
20
-58.704719999999995
10
133.56614000000002
20
-72.704719999999995
10
137.56614000000002
20
-72.704719999999995
10
137.56614000000002
20
-73.704719999999995
10
138.86440012855115
20
-73.704719999999995
42
3.2251576452050825
10
141.24048987144889
20
-73.704719999999995
10
143.56614000000002
20
-73.704719999999995
10
143.56614000000002
20
-72.704719999999995
10
147.56614000000002
20
-72.704719999999995
10
147.56614000000002
20
-58.704719999999995
0
LWPOLYLINE
5
120
100
AcDbEntity
8
0
100
AcDbPolyline
90
8
70
1
43
0.0
10
100.22864000000001
20
-77.75472000000002
10
100.22864000000001
20
-91.75472000000002
10
104.22864000000003
20
-91.75472000000002
10
104.22864000000003
20
-92.754720000000006
10
110.22864000000001
20
-92.754720000000006
10
110.22864000000001
20
-91.75472000000002
10
114.22864000000003
20
-91.75472000000002
10
114.22864000000003
20
-77.75472000000002
0
LWPOLYLINE
5
121
100
AcDbEntity
8
0
100
AcDbPolyline
90
8
70
1
43
0.0
10
124.07924000000001
20
-77.75472000000002
10
124.07924000000001
20
-91.75472000000002
10
128.07924000000003
20
-91.75472000000002
10
128.07924000000003
20
-92.754720000000006
10
134.07924000000003
20
-92.754720000000006
10
134.07924000000003
20
-91.75472000000002
10
138.07924000000003
20
-91.75472000000002
10
138.07924000000003
20
-77.75472000000002
0
LWPOLYLINE
5
122
100
AcDbEntity
8
0
100
AcDbPolyline
90
8
70
1
43
0.0
10
105.02924000000002
20
-39.654719999999998
10
105.02924000000002
20
-53.654720000000005
10
109.02924000000002
20
-53.654720000000005
10
109.02924000000002
20
-54.654719999999998
10
115.02924000000002
20
-54.654719999999998
10
115.02924000000002
20
-53.654720000000005
10
119.02924000000002
20
-53.654720000000005
10
119.02924000000002
20
-39.654719999999998
0
LWPOLYLINE
5
123
100
AcDbEntity
8
0
100
AcDbPolyline
90
8
70
1
43
0.0
10
150.0262953423468
20
-19.987942534674712
10
148.32012453467473
20
-33.88358865765322
10
152.29030914124002
20
-34.371066031273813
10
152.16843979783488
20
-35.363612182915134
10
158.12371670768277
20
-36.094828243346015
10
158.24558605108794
20
-35.102282091704694
10
162.21577065765325
20
-35.58975946532528
10
163.92194146532532
20
-21.694113342346775
0
LWPOLYLINE
5
124
100
AcDbEntity
8
0
100
AcDbPolyline
90
8
70
1
43
0.0
10
166.36514746532529
20
-41.187163342346771
10
152.46950134234677
20
-39.480992534674712
10
150.76333053467471
20
-53.376638657653217
10
154.73351514123999
20
-53.864116031273809
10
154.61164579783485
20
-54.85666218291513
10
160.56692270768278
20
-55.587878243346012
10
160.68879205108794
20
-54.595332091704691
10
164.65897665765323
20
-55.082809465325283
0
LWPOLYLINE
5
125
100
AcDbEntity
8
0
100
AcDbPolyline
90
8
70
1
43
0.0
10
168.80835346532533
20
-60.680214342346773
10
154.91270734234681
20
-58.974043534674713
10
153.20653653467471
20
-72.869689657653225
10
157.17672114124002
20
-73.357167031273804
10
157.05485179783489
20
-74.349713182915139
10
163.01012870768278
20
-75.08092924334602
10
163.13199805108795
20
-74.088383091704685
10
167.10218265765323
20
-74.575860465325277
0
LWPOLYLINE
5
126
100
AcDbEntity
8
0
100
AcDbPolyline
90
8
70
1
43
0.0
10
182.82994546532532
20
-24.015724342346772
10
168.93429934234683
20
-22.309553534674713
10
167.22812853467474
20
-36.205199657653218
10
171.19831314123999
20
-36.69267703127381
10
171.07644379783488
20
-37.685223182915131
10
177.03172070768278
20
-38.416439243346012
10
177.15359005108795
20
-37.423893091704691
10
181.12377465765323
20
-37.911370465325277
0
LWPOLYLINE
5
127
100
AcDbEntity
8
0
100
AcDbPolyline
90
8
70
1
43
0.0
10
185.2731514653253
20
-43.508774342346783
10
171.37750534234675
20
-41.802603534674716
10
169.67133453467468
20
-55.698249657653221
10
173.64151914124
20
-56.185727031273814
10
173.51964979783486
20
-57.178273182915134
10
179.47492670768276
20
-57.909489243346016
10
179.59679605108789
20
-56.916943091704695
10
183.56698065765323
20
-57.404420465325288
0
LWPOLYLINE
5
128
100
AcDbEntity
8
0
100
AcDbPolyline
90
8
70
1
43
0.0
10
201.73795046532533
20
-26.337335342346776
10
187.84230434234678
20
-24.631164534674713
10
186.13613353467471
20
-38.526810657653222
10
190.10631814124002
20
-39.014288031273814
10
189.98444879783489
20
-40.006834182915142
10
195.93972570768278
20
-40.738050243346024
10
196.06159505108792
20
-39.745504091704696
10
200.03177965765326
20
-40.232981465325288
0
LWPOLYLINE
5
129
100
AcDbEntity
8
0
100
AcDbPolyline
90
8
70
1
43
0.0
10
204.1811564653253
20
-45.83038534234678
10
190.28551034234681
20
-44.124214534674721
10
188.57933953467472
20
-58.019860657653226
10
192.54952414124
20
-58.507338031273818
10
192.42765479783486
20
-59.499884182915139
10
198.38293170768279
20
-60.23110024334602
10
198.50480105108795
20
-59.2385540917047
10
202.47498565765324
20
-59.726031465325285
0
LWPOLYLINE
5
130
100
AcDbEntity
8
0
100
AcDbPolyline
90
8
70
1
43
0.0
10
187.7163574653253
20
-63.001825342346784
10
173.82071134234678
20
-61.295654534674718
10
172.11454053467469
20
-75.19130065765323
10
176.08472514124003
20
-75.678778031273822
10
175.96285579783486
20
-76.671324182915143
10
181.91813270768279
20
-77.402540243346024
10
182.04000205108792
20
-76.409994091704704
10
186.01018665765324
20
-76.897471465325282
0
LWPOLYLINE
5
131
100
AcDbEntity
8
0
100
AcDbPolyline
90
8
70
1
43
0.0
10
185.39474646532534
20
-81.909829342346768
10
171.49910034234679
20
-80.203658534674702
10
169.79292953467473
20
-94.099304657653207
10
173.76311414124004
20
-94.586782031273799
10
173.64124479783487
20
-95.57932818291512
10
179.5965217076828
20
-96.310544243346001
10
179.71839105108791
20
-95.317998091704681
10
183.68857565765325
20
-95.805475465325287
0
LWPOLYLINE
5
132
100
AcDbEntity
8
0
100
AcDbPolyline
90
8
70
1
43
0.0
10
220.64595446532533
20
-28.658946342346777
10
206.75030834234684
20
-26.952775534674714
10
205.04413753467475
20
-40.848421657653219
10
209.01432214124
20
-41.335899031273811
10
208.89245279783489
20
-42.328445182915132
10
214.84772970768279
20
-43.059661243346014
10
214.96959905108795
20
-42.067115091704693
10
218.93978365765324
20
-42.554592465325278
0
LWPOLYLINE
5
133
100
AcDbEntity
8
0
100
AcDbPolyline
90
8
70
1
43
0.0
10
223.08916046532531
20
-48.15199634234677
10
209.19351434234676
20
-46.445825534674711
10
207.48734353467469
20
-60.341471657653216
10
211.45752814124
20
-60.828949031273808
10
211.33565879783487
20
-61.821495182915129
10
217.29093570768276
20
-62.55271124334601
10
217.4128050510879
20
-61.56016509170469
10
221.38298965765324
20
-62.047642465325275
0
LWPOLYLINE
5
134
100
AcDbEntity
8
0
100
AcDbPolyline
90
8
70
1
43
0.0
10
206.62436246532533
20
-65.323436342346767
10
192.72871634234684
20
-63.617265534674708
10
191.02254553467475
20
-77.51291165765322
10
194.99273014124
20
-78.000389031273812
10
194.87086079783489
20
-78.992935182915133
10
200.82613770768279
20
-79.724151243346014
10
200.94800705108796
20
-78.731605091704694
10
204.91819165765324
20
-79.219082465325272
0
LWPOLYLINE
5
135
100
AcDbEntity
8
0
100
AcDbPolyline
90
8
70
1
43
0.0
10
225.53236646532531
20
-67.645047342346771
10
211.63672034234679
20
-65.938876534674705
10
209.9305495346747
20
-79.83452265765321
10
213.90073414124004
20
-80.322000031273802
10
213.77886479783487
20
-81.314546182915137
10
219.7341417076828
20
-82.045762243346019
10
219.85601105108793
20
-81.053216091704684
10
223.82619565765324
20
-81.540693465325262
0
ENDSEC
0
SECTION
2
OBJECTS
0
DICTIONARY
5
C
100
AcDbDictionary
3
ACAD_GROUP
350
D
3
ACAD_MLINESTYLE
350
17
0
DICTIONARY
5
D
100
AcDbDictionary
0
DICTIONARY
5
1A
330
C
100
AcDbDictionary
0
DICTIONARY
5
17
100
AcDbDictionary
0
ENDSEC
0
EOF
