0
SECTION
2
HEADER
9
$INSUNITS
70
4
9
$ACADVER
1
AC1014
9
$HANDSEED
5
FFFF
0
ENDSEC
0
SECTION
2
TABLES
0
TABLE
2
VPORT
5
8
100
AcDbSymbolTable
0
ENDTAB
0
TABLE
2
LTYPE
5
5
100
AcDbSymbolTable
0
LTYPE
5
14
100
AcDbSymbolTableRecord
100
AcDbLinetypeTableRecord
2
BYBLOCK
70
0
0
LTYPE
5
15
100
AcDbSymbolTableRecord
100
AcDbLinetypeTableRecord
2
BYLAYER
70
0
0
ENDTAB
0
TABLE
2
LAYER
5
2
100
AcDbSymbolTable
70
2
0
LAYER
5
50
100
AcDbSymbolTableRecord
100
AcDbLayerTableRecord
2
0
70
0
6
CONTINUOUS
0
ENDTAB
0
TABLE
2
STYLE
5
3
100
AcDbSymbolTable
70
1
0
STYLE
5
11
100
AcDbSymbolTableRecord
100
AcDbTextStyleTableRecord
2
STANDARD
70
0
0
ENDTAB
0
TABLE
2
VIEW
5
6
100
AcDbSymbolTable
70
0
0
ENDTAB
0
TABLE
2
UCS
5
7
100
AcDbSymbolTable
70
0
0
ENDTAB
0
TABLE
2
APPID
5
9
100
AcDbSymbolTable
70
2
0
APPID
5
12
100
AcDbSymbolTableRecord
100
AcDbRegAppTableRecord
2
ACAD
70
0
0
ENDTAB
0
TABLE
2
DIMSTYLE
5
A
100
AcDbSymbolTable
70
1
0
ENDTAB
0
TABLE
2
BLOCK_RECORD
5
1
100
AcDbSymbolTable
70
1
0
BLOCK_RECORD
5
1F
100
AcDbSymbolTableRecord
100
AcDbBlockTableRecord
2
*MODEL_SPACE
0
BLOCK_RECORD
5
1B
100
AcDbSymbolTableRecord
100
AcDbBlockTableRecord
2
*PAPER_SPACE
0
ENDTAB
0
ENDSEC
0
SECTION
2
BLOCKS
0
BLOCK
5
20
100
AcDbEntity
100
AcDbBlockBegin
2
*MODEL_SPACE
0
ENDBLK
5
21
100
AcDbEntity
100
AcDbBlockEnd
0
BLOCK
5
1C
100
AcDbEntity
100
AcDbBlockBegin
2
*PAPER_SPACE
0
ENDBLK
5
1D
100
AcDbEntity
100
AcDbBlockEnd
0
ENDSEC
0
SECTION
2
ENTITIES
0
LWPOLYLINE
5
100
100
AcDbEntity
8
0
100
AcDbPolyline
90
22
70
1
43
0.0
10
150.29966512847645
20
-100.26440299999993
10
93.913800000000009
20
-100.26440300000002
42
-0.4142135623730856
10
91.713800000000006
20
-98.06440299999997
10
91.713800000000006
20
-13.395800000000005
42
-0.41421356237309742
10
93.913800000000009
20
-11.195800000000016
10
148.16250675309342
20
-11.19579999999999
42
-0.030570534562017086
10
148.29664056879523
20
-11.204008756453277
10
192.40362917289292
20
-16.62284565916066
42
0.41466745013119038
10
193.62976075127762
20
-15.663496426681506
10
193.89661752557635
20
-13.46323536040771
42
-0.41421356237308488
10
195.12105729932682
20
-12.503679608792453
10
228.99425633367122
20
-16.611961470450531
42
-0.3351370850271333
10
230.90244822805715
20
-18.452822822298014
10
237.85998620881713
20
-62.51505675618305
42
-0.068858657223639805
10
237.86574820683592
20
-62.816549997015407
10
232.26112776552907
20
-109.93505901984167
42
-0.41421356237310442
10
229.81667554482402
20
-111.85980662425376
10
163.40994596160417
20
-103.96090401079999
42
-0.29181648396542142
10
162.49456893826081
20
-103.21115517082708
10
162.20025848788856
20
-102.31305957493979
42
0.29181648396541143
10
161.28488146454518
20
-101.56331073496686
10
150.42959128254969
20
-100.27210304372063
42
0.02960641135886841
0
CIRCLE
5
101
100
AcDbEntity
8
0
100
AcDbCircle
10
94.71380000000002
20
-14.195799999999988
30
0
40
1.100000000000001
210
0
220
0
230
1
0
CIRCLE
5
102
100
AcDbEntity
8
0
100
AcDbCircle
10
94.71380000000002
20
-49.842680000000001
30
0
40
1.1000000000000068
210
0
220
0
230
1
0
CIRCLE
5
103
100
AcDbEntity
8
0
100
AcDbCircle
10
95.213800000000006
20
-96.764402999999987
30
0
40
1.0999999999999985
210
0
220
0
230
1
0
CIRCLE
5
104
100
AcDbEntity
8
0
100
AcDbCircle
10
228.93917699581789
20
-108.23075767218768
30
0
40
1.0999999999999952
210
0
220
0
230
1
0
CIRCLE
5
105
100
AcDbEntity
8
0
100
AcDbCircle
10
227.16338765956991
20
-20.419218419940044
30
0
40
1.0999999999999912
210
0
220
0
230
1
0
CIRCLE
5
106
100
AcDbEntity
8
0
100
AcDbCircle
10
140.05244500000001
20
-75.436351999999999
30
0
40
1.0999999999999921
210
0
220
0
230
1
0
CIRCLE
5
107
100
AcDbEntity
8
0
100
AcDbCircle
10
145.3896
20
-36.855400000000003
30
0
40
1.1000000000000021
210
0
220
0
230
1
0
CIRCLE
5
108
100
AcDbEntity
8
0
100
AcDbCircle
10
206.82904500000004
20
-43.965752000000002
30
0
40
1.099999999999999
210
0
220
0
230
1
0
CIRCLE
5
109
100
AcDbEntity
8
0
100
AcDbCircle
10
188.18544499999999
20
-79.881352000000007
30
0
40
1.100000000000005
210
0
220
0
230
1
0
LWPOLYLINE
5
110
100
AcDbEntity
8
0
100
AcDbPolyline
90
4
70
1
43
0.0
10
122.79624
20
-20.536120000000004
10
94.85624
20
-20.536120000000004
42
-0.99999999999999989
10
94.85624
20
-18.53612
10
122.79624
20
-18.53612
42
-0.99999999999999989
0
LWPOLYLINE
5
111
100
AcDbEntity
8
0
100
AcDbPolyline
90
4
70
1
43
0.0
10
122.79624
20
-35.756120000000003
10
94.85624
20
-35.756120000000003
42
-0.99999999999999989
10
94.85624
20
-33.756120000000003
10
122.79624
20
-33.756120000000003
42
-0.99999999999999989
0
CIRCLE
5
112
100
AcDbEntity
8
0
100
AcDbCircle
10
131.79043999999999
20
-28.17876
30
0
40
0.65000000000000124
210
0
220
0
230
1
0
CIRCLE
5
113
100
AcDbEntity
8
0
100
AcDbCircle
10
131.79043999999999
20
-28.17876
30
0
40
0.64000000000000001
210
0
220
-0
230
1
0
CIRCLE
5
114
100
AcDbEntity
8
0
100
AcDbCircle
10
125.31852000000001
20
-56.25592000000001
30
0
40
0.64999999999999847
210
0
220
0
230
1
0
CIRCLE
5
115
100
AcDbEntity
8
0
100
AcDbCircle
10
125.31852000000001
20
-56.25592000000001
30
0
40
0.64000000000000001
210
0
220
-0
230
1
0
CIRCLE
5
116
100
AcDbEntity
8
0
100
AcDbCircle
10
100.54336000000001
20
-72.938640000000007
30
0
40
0.64999999999999514
210
0
220
0
230
1
0
CIRCLE
5
117
100
AcDbEntity
8
0
100
AcDbCircle
10
100.54336000000001
20
-72.938640000000007
30
0
40
0.64000000000000001
210
0
220
-0
230
1
0
CIRCLE
5
118
100
AcDbEntity
8
0
100
AcDbCircle
10
150.87600000000003
20
-90.932000000000016
30
0
40
0.65000000000000124
210
0
220
0
230
1
0
CIRCLE
5
119
100
AcDbEntity
8
0
100
AcDbCircle
10
150.87600000000003
20
-90.932000000000016
30
0
40
0.64000000000000001
210
0
220
-0
230
1
0
CIRCLE
5
120
100
AcDbEntity
8
0
100
AcDbCircle
10
191.7192
20
-90.677999999999997
30
0
40
0.6499999999999857
210
0
220
0
230
1
0
CIRCLE
5
121
100
AcDbEntity
8
0
100
AcDbCircle
10
191.7192
20
-90.677999999999997
30
0
40
0.64000000000000001
210
0
220
-0
230
1
0
CIRCLE
5
122
100
AcDbEntity
8
0
100
AcDbCircle
10
171.55160000000001
20
-58.597800000000007
30
0
40
0.65000000000000624
210
0
220
0
230
1
0
CIRCLE
5
123
100
AcDbEntity
8
0
100
AcDbCircle
10
171.55160000000001
20
-58.597800000000007
30
0
40
0.64000000000000001
210
0
220
-0
230
1
0
CIRCLE
5
124
100
AcDbEntity
8
0
100
AcDbCircle
10
209.47380000000004
20
-63.246000000000002
30
0
40
0.64999999999999303
210
0
220
0
230
1
0
CIRCLE
5
125
100
AcDbEntity
8
0
100
AcDbCircle
10
209.47380000000004
20
-63.246000000000002
30
0
40
0.64000000000000001
210
0
220
-0
230
1
0
CIRCLE
5
126
100
AcDbEntity
8
0
100
AcDbCircle
10
217.52244500000003
20
-24.382352000000004
30
0
40
0.64999999999999514
210
0
220
0
230
1
0
CIRCLE
5
127
100
AcDbEntity
8
0
100
AcDbCircle
10
217.52244500000003
20
-24.382352000000004
30
0
40
0.64000000000000001
210
0
220
-0
230
1
0
CIRCLE
5
128
100
AcDbEntity
8
0
100
AcDbCircle
10
199.84967547151001
20
-82.428662296629994
30
0
40
2.9999999999999929
210
0
220
0
230
1
0
CIRCLE
5
129
100
AcDbEntity
8
0
100
AcDbCircle
10
223.54770738810004
20
-85.338414739770002
30
0
40
2.9999999999999942
210
0
220
0
230
1
0
CIRCLE
5
130
100
AcDbEntity
8
0
100
AcDbCircle
10
197.99238667802001
20
-97.555065647640021
30
0
40
2.0000000000000115
210
0
220
0
230
1
0
CIRCLE
5
131
100
AcDbEntity
8
0
100
AcDbCircle
10
221.69041859460003
20
-100.46481809070002
30
0
40
1.9999999999999951
210
0
220
0
230
1
0
CIRCLE
5
132
100
AcDbEntity
8
0
100
AcDbCircle
10
117.10924
20
-46.654720000000005
30
0
40
0.99999999999999212
210
0
220
0
230
1
0
LWPOLYLINE
5
133
100
AcDbEntity
8
0
100
AcDbPolyline
90
20
70
1
43
0.0
10
119.21353330646258
20
-39.414719849126008
10
107.72719224471001
20
-39.414719849126016
42
0.41421356237309392
10
105.42719224471
20
-41.714719849126006
10
105.42719224471
20
-41.812055180200041
42
-0.41617824900632755
10
104.92384067116738
20
-42.312043947028641
10
103.52240201509561
20
-42.302649686531389
42
0.41617782582598817
10
103.01905044155353
20
-42.802637731950412
10
103.0190458779859
20
-45.965589573669405
42
0.41421398496511191
10
103.51904587798541
20
-46.465590295078997
10
105.96728788573144
20
-46.465590295078997
42
1.2109854316131945
10
107.93119211426857
20
-46.465590295078997
10
109.93777401779603
20
-46.465590295078997
42
1.7517555008686956
10
113.20499485325746
20
-44.914719849126001
10
116.82719224471001
20
-44.914719849126001
42
0.41421356237308982
10
117.32719224471001
20
-44.414719849126001
10
117.32719224471001
20
-43.922193609623214
42
-0.41617824900630657
10
117.83054381825264
20
-43.422204842794599
10
119.21017738030341
20
-43.431452937255571
42
0.41617782582597773
10
119.71352895384548
20
-42.931464891836569
10
119.71353330646208
20
-39.914720570535607
42
0.41421398496510664
0
LWPOLYLINE
5
134
100
AcDbEntity
8
0
100
AcDbPolyline
90
20
70
1
43
0.0
10
141.17779224471002
20
-44.414719849126001
10
141.17779224471002
20
-43.922193609623214
42
-0.41617824900630657
10
141.68114381825262
20
-43.422204842794599
10
143.06077738030339
20
-43.431452937255571
42
0.41617782582597773
10
143.56412895384548
20
-42.931464891836569
10
143.56413330646208
20
-39.914720570535607
42
0.41421398496510664
10
143.06413330646257
20
-39.414719849126008
10
131.57779224471
20
-39.414719849126016
42
0.41421356237309392
10
129.27779224470999
20
-41.714719849126006
10
129.27779224470999
20
-41.812055180200041
42
-0.41617824900632755
10
128.77444067116738
20
-42.312043947028641
10
127.37300201509561
20
-42.302649686531389
42
0.41617782582598817
10
126.86965044155352
20
-42.802637731950412
10
126.8696458779859
20
-45.965589573669405
42
0.41421398496511191
10
127.36964587798539
20
-46.465590295078997
10
129.81788788573144
20
-46.465590295078997
42
1.2109854316131945
10
131.78179211426857
20
-46.465590295078997
10
133.78837401779603
20
-46.465590295078997
42
1.7517555008686956
10
137.05559485325745
20
-44.914719849126001
10
140.67779224470999
20
-44.914719849126001
42
0.41421356237308982
0
CIRCLE
5
135
100
AcDbEntity
8
0
100
AcDbCircle
10
140.95983999999999
20
-46.654720000000005
30
0
40
0.99999999999999212
210
0
220
0
230
1
0
LWPOLYLINE
5
136
100
AcDbEntity
8
0
100
AcDbPolyline
90
20
70
1
43
0.0
10
119.67034224471
20
-63.464719849125999
10
119.67034224471
20
-62.972193609623204
42
-0.41617824900630657
10
120.17369381825262
20
-62.472204842794596
10
121.55332738030339
20
-62.481452937255568
42
0.41617782582597773
10
122.05667895384548
20
-61.981464891836566
10
122.05668330646206
20
-58.96472057053559
42
0.41421398496510664
10
121.55668330646257
20
-58.464719849126006
10
110.07034224470999
20
-58.464719849126006
42
0.41421356237309392
10
107.77034224470998
20
-60.764719849126003
10
107.77034224470998
20
-60.862055180200031
42
-0.41617824900632755
10
107.26699067116738
20
-61.362043947028639
10
105.8655520150956
20
-61.352649686531386
42
0.41617782582598817
10
105.36220044155351
20
-61.852637731950402
10
105.3621958779859
20
-65.015589573669402
42
0.41421398496511191
10
105.86219587798539
20
-65.515590295078994
10
108.31043788573142
20
-65.515590295078994
42
1.2109854316131945
10
110.27434211426856
20
-65.515590295078994
10
112.28092401779602
20
-65.515590295078994
42
1.7517555008686956
10
115.54814485325744
20
-63.964719849125999
10
119.17034224470999
20
-63.964719849125999
42
0.41421356237308982
0
CIRCLE
5
137
100
AcDbEntity
8
0
100
AcDbCircle
10
119.45238999999999
20
-65.704719999999995
30
0
40
0.99999999999999212
210
0
220
0
230
1
0
LWPOLYLINE
5
138
100
AcDbEntity
8
0
100
AcDbPolyline
90
20
70
1
43
0.0
10
145.86409224471001
20
-63.464719849125999
10
145.86409224471001
20
-62.972193609623204
42
-0.41617824900630657
10
146.36744381825261
20
-62.472204842794596
10
147.74707738030338
20
-62.481452937255568
42
0.41617782582597773
10
148.25042895384547
20
-61.981464891836566
10
148.25043330646207
20
-58.96472057053559
42
0.41421398496510664
10
147.75043330646258
20
-58.464719849126006
10
136.26409224470999
20
-58.464719849126006
42
0.41421356237309392
10
133.96409224470997
20
-60.764719849126003
10
133.96409224470997
20
-60.862055180200031
42
-0.41617824900632755
10
133.46074067116737
20
-61.362043947028639
10
132.0593020150956
20
-61.352649686531386
42
0.41617782582598817
10
131.55595044155351
20
-61.852637731950402
10
131.55594587798589
20
-65.015589573669402
42
0.41421398496511191
10
132.05594587798538
20
-65.515590295078994
10
134.50418788573143
20
-65.515590295078994
42
1.2109854316131945
10
136.46809211426856
20
-65.515590295078994
10
138.47467401779602
20
-65.515590295078994
42
1.7517555008686956
10
141.74189485325743
20
-63.964719849125999
10
145.36409224470998
20
-63.964719849125999
42
0.41421356237308982
0
CIRCLE
5
139
100
AcDbEntity
8
0
100
AcDbCircle
10
145.64614
20
-65.704719999999995
30
0
40
0.99999999999999212
210
0
220
0
230
1
0
LWPOLYLINE
5
140
100
AcDbEntity
8
0
100
AcDbPolyline
90
20
70
1
43
0.0
10
112.52659224471002
20
-82.51471984912601
10
112.52659224471
20
-82.02219360962323
42
-0.41617824900630651
10
113.02994381825263
20
-81.522204842794608
10
114.4095773803034
20
-81.53145293725558
42
0.41617782582597773
10
114.91292895384548
20
-81.031464891836578
10
114.91293330646208
20
-78.014720570535616
42
0.41421398496510664
10
114.41293330646259
20
-77.51471984912601
10
102.92659224471001
20
-77.514719849126024
42
0.41421356237309392
10
100.62659224471
20
-79.814719849126021
10
100.62659224471
20
-79.912055180200056
42
-0.41617824900632749
10
100.12324067116738
20
-80.412043947028664
10
98.721802015095619
20
-80.402649686531404
42
0.41617782582598817
10
98.218450441553529
20
-80.902637731950421
10
98.218445877985914
20
-84.065589573669413
42
0.41421398496510664
10
98.718445877985403
20
-84.565590295079005
10
101.16668788573143
20
-84.565590295079005
42
1.2109854316132047
10
103.13059211426858
20
-84.565590295079005
10
105.13717401779603
20
-84.565590295079005
42
1.7517555008686971
10
108.40439485325746
20
-83.014719849126024
10
112.02659224471
20
-83.014719849126024
42
0.41421356237309509
0
CIRCLE
5
141
100
AcDbEntity
8
0
100
AcDbCircle
10
112.30864
20
-84.75472000000002
30
2.7755575615628914e-16
40
0.99999999999999212
210
0
220
0
230
1
0
LWPOLYLINE
5
142
100
AcDbEntity
8
0
100
AcDbPolyline
90
20
70
1
43
0.0
10
136.37719224471002
20
-82.51471984912601
10
136.37719224470999
20
-82.02219360962323
42
-0.41617824900630651
10
136.88054381825262
20
-81.522204842794608
10
138.26017738030339
20
-81.53145293725558
42
0.41617782582597773
10
138.76352895384548
20
-81.031464891836578
10
138.76353330646208
20
-78.014720570535616
42
0.41421398496510664
10
138.26353330646259
20
-77.51471984912601
10
126.77719224470999
20
-77.514719849126024
42
0.41421356237309392
10
124.47719224471
20
-79.814719849126021
10
124.47719224471
20
-79.912055180200056
42
-0.41617824900632749
10
123.97384067116738
20
-80.412043947028664
10
122.57240201509561
20
-80.402649686531404
42
0.41617782582598817
10
122.06905044155351
20
-80.902637731950421
10
122.0690458779859
20
-84.065589573669413
42
0.41421398496510664
10
122.56904587798539
20
-84.565590295079005
10
125.01728788573143
20
-84.565590295079005
42
1.2109854316132047
10
126.98119211426857
20
-84.565590295079005
10
128.98777401779603
20
-84.565590295079005
42
1.7517555008686971
10
132.25499485325744
20
-83.014719849126024
10
135.87719224470999
20
-83.014719849126024
42
0.41421356237309509
0
CIRCLE
5
143
100
AcDbEntity
8
0
100
AcDbCircle
10
136.15924000000001
20
-84.75472000000002
30
2.7755575615628914e-16
40
0.99999999999999212
210
0
220
0
230
1
0
LWPOLYLINE
5
144
100
AcDbEntity
8
0
100
AcDbPolyline
90
20
70
1
43
0.0
10
164.13410973823215
20
-21.478361820456033
10
152.73338612094994
20
-20.07852897713267
42
0.41421356237309553
10
150.17023048234304
20
-22.081085636075848
10
150.1583682894549
20
-22.1776954443521
42
-0.41617824900634348
10
149.59783531948921
20
-22.612614244962117
10
148.20798764700243
20
-22.432497599019996
42
0.41617782582598595
10
147.647454764955
20
-22.867415683597798
10
147.26198337123108
20
-26.006790805763842
42
0.41421398496509748
10
147.69732168743099
20
-26.563999269319343
10
150.1273148705059
20
-26.862364915300248
42
1.2109854316131907
10
152.07658045473255
20
-27.101704634142667
10
154.06820560103185
20
-27.346245453214202
42
1.7517555008686883
10
157.5000766307862
20
-26.205109018366581
10
161.09527471215762
20
-26.646543836146748
42
0.41421356237308471
10
161.65248245968087
20
-26.211205432028652
10
161.7125063090989
20
-25.722350408427793
42
-0.4161782490063124
10
162.27303927906459
20
-25.287431607817759
10
163.64126220255358
20
-25.464745804731841
42
0.41617782582596796
10
164.20179508460097
20
-25.029827720154074
10
164.56944805443203
20
-22.035570284011499
42
0.41421398496508588
0
CIRCLE
5
145
100
AcDbEntity
8
0
100
AcDbCircle
10
161.16316745033788
20
-28.407947264498148
30
0
40
0.99999999999999201
210
-0
220
0
230
1
0
LWPOLYLINE
5
146
100
AcDbEntity
8
0
100
AcDbPolyline
90
20
70
1
43
0.0
10
183.04211373823216
20
-23.799972820456034
10
171.64139012094995
20
-22.400139977132667
42
0.41421356237309553
10
169.07823448234302
20
-24.402696636075845
10
169.06637228945493
20
-24.499306444352097
42
-0.41617824900634348
10
168.50583931948921
20
-24.934225244962114
10
167.11599164700243
20
-24.754108599019993
42
0.41617782582598595
10
166.55545876495498
20
-25.189026683597795
10
166.16998737123109
20
-28.328401805763839
42
0.41421398496509748
10
166.60532568743096
20
-28.885610269319344
10
169.0353188705059
20
-29.183975915300245
42
1.2109854316131907
10
170.98458445473256
20
-29.423315634142668
10
172.97620960103185
20
-29.667856453214199
42
1.7517555008686883
10
176.4080806307862
20
-28.526720018366582
10
180.00327871215762
20
-28.968154836146745
42
0.41421356237308471
10
180.56048645968087
20
-28.532816432028653
10
180.62051030909888
20
-28.043961408427794
42
-0.4161782490063124
10
181.18104327906457
20
-27.609042607817756
10
182.54926620255358
20
-27.786356804731838
42
0.41617782582596796
10
183.10979908460098
20
-27.351438720154071
10
183.47745205443204
20
-24.357181284011496
42
0.41421398496508588
0
CIRCLE
5
147
100
AcDbEntity
8
0
100
AcDbCircle
10
180.07117145033789
20
-30.729558264498145
30
0
40
0.99999999999999201
210
-0
220
0
230
1
0
LWPOLYLINE
5
148
100
AcDbEntity
8
0
100
AcDbPolyline
90
20
70
1
43
0.0
10
201.95011873823216
20
-26.121583820456031
10
190.54939512094995
20
-24.721750977132668
42
0.41421356237309553
10
187.98623948234305
20
-26.724307636075846
10
187.97437728945494
20
-26.820917444352098
42
-0.41617824900634348
10
187.41384431948921
20
-27.255836244962115
10
186.02399664700243
20
-27.075719599019994
42
0.41617782582598595
10
185.46346376495501
20
-27.510637683597796
10
185.07799237123109
20
-30.65001280576384
42
0.41421398496509748
10
185.51333068743099
20
-31.207221269319341
10
187.94332387050591
20
-31.505586915300245
42
1.2109854316131907
10
189.89258945473256
20
-31.744926634142665
10
191.88421460103186
20
-31.9894674532142
42
1.7517555008686883
10
195.3160856307862
20
-30.848331018366579
10
198.91128371215763
20
-31.289765836146746
42
0.41421356237308471
10
199.46849145968088
20
-30.85442743202865
10
199.52851530909891
20
-30.365572408427791
42
-0.4161782490063124
10
200.0890482790646
20
-29.930653607817757
10
201.45727120255358
20
-30.107967804731839
42
0.41617782582596796
10
202.01780408460098
20
-29.673049720154072
10
202.38545705443204
20
-26.678792284011497
42
0.41421398496508588
0
CIRCLE
5
149
100
AcDbEntity
8
0
100
AcDbCircle
10
198.97917645033789
20
-33.051169264498142
30
0
40
0.99999999999999201
210
-0
220
0
230
1
0
LWPOLYLINE
5
150
100
AcDbEntity
8
0
100
AcDbPolyline
90
20
70
1
43
0.0
10
166.57731573823213
20
-40.971411820456034
10
155.17659212094995
20
-39.571578977132667
42
0.41421356237309553
10
152.61343648234302
20
-41.574135636075845
10
152.60157428945487
20
-41.6707454443521
42
-0.41617824900634348
10
152.04104131948921
20
-42.105664244962114
10
150.6511936470024
20
-41.925547599019993
42
0.41617782582598595
10
150.09066076495498
20
-42.360465683597795
10
149.70518937123106
20
-45.499840805763839
42
0.41421398496509748
10
150.14052768743096
20
-46.057049269319343
10
152.5705208705059
20
-46.355414915300244
42
1.2109854316131907
10
154.51978645473253
20
-46.594754634142667
10
156.51141160103182
20
-46.839295453214199
42
1.7517555008686883
10
159.94328263078617
20
-45.698159018366582
10
163.53848071215762
20
-46.139593836146744
42
0.41421356237308471
10
164.09568845968084
20
-45.704255432028653
10
164.15571230909887
20
-45.21540040842779
42
-0.4161782490063124
10
164.71624527906457
20
-44.780481607817755
10
166.08446820255355
20
-44.957795804731838
42
0.41617782582596796
10
166.64500108460095
20
-44.522877720154071
10
167.01265405443201
20
-41.528620284011495
42
0.41421398496508588
0
CIRCLE
5
151
100
AcDbEntity
8
0
100
AcDbCircle
10
163.60637345033786
20
-47.900997264498145
30
0
40
0.99999999999999201
210
-0
220
0
230
1
0
LWPOLYLINE
5
152
100
AcDbEntity
8
0
100
AcDbPolyline
90
20
70
1
43
0.0
10
185.48531973823214
20
-43.293022820456038
10
174.08459612094993
20
-41.893189977132678
42
0.41421356237309553
10
171.52144048234302
20
-43.895746636075856
10
171.50957828945491
20
-43.992356444352112
42
-0.41617824900634348
10
170.94904531948919
20
-44.427275244962125
10
169.55919764700241
20
-44.247158599020004
42
0.41617782582598595
10
168.99866476495498
20
-44.682076683597806
10
168.61319337123106
20
-47.82145180576385
42
0.41421398496509748
10
169.04853168743097
20
-48.378660269319347
10
171.47852487050588
20
-48.677025915300256
42
1.2109854316131907
10
173.42779045473253
20
-48.916365634142672
10
175.41941560103183
20
-49.16090645321421
42
1.7517555008686883
10
178.85128663078618
20
-48.019770018366586
10
182.4464847121576
20
-48.461204836146756
42
0.41421356237308471
10
183.00369245968085
20
-48.025866432028657
10
183.06371630909888
20
-47.537011408427794
42
-0.4161782490063124
10
183.62424927906457
20
-47.102092607817767
10
184.99247220255356
20
-47.279406804731849
42
0.41617782582596796
10
185.55300508460095
20
-46.844488720154082
10
185.92065805443201
20
-43.850231284011507
42
0.41421398496508588
0
CIRCLE
5
153
100
AcDbEntity
8
0
100
AcDbCircle
10
182.51437745033786
20
-50.222608264498156
30
0
40
0.99999999999999201
210
-0
220
0
230
1
0
LWPOLYLINE
5
154
100
AcDbEntity
8
0
100
AcDbPolyline
90
20
70
1
43
0.0
10
204.39332473823214
20
-45.614633820456035
10
192.99260112094996
20
-44.214800977132676
42
0.41421356237309553
10
190.42944548234303
20
-46.217357636075853
10
190.41758328945491
20
-46.313967444352109
42
-0.41617824900634348
10
189.85705031948922
20
-46.748886244962122
10
188.46720264700241
20
-46.568769599020001
42
0.41617782582598595
10
187.90666976495498
20
-47.003687683597803
10
187.52119837123107
20
-50.143062805763847
42
0.41421398496509748
10
187.95653668743097
20
-50.700271269319344
10
190.38652987050591
20
-50.998636915300253
42
1.2109854316131907
10
192.33579545473253
20
-51.237976634142669
10
194.32742060103183
20
-51.482517453214207
42
1.7517555008686883
10
197.75929163078618
20
-50.34138101836659
10
201.35448971215763
20
-50.782815836146753
42
0.41421356237308471
10
201.91169745968085
20
-50.347477432028654
10
201.97172130909888
20
-49.858622408427792
42
-0.4161782490063124
10
202.53225427906457
20
-49.423703607817764
10
203.90047720255356
20
-49.601017804731846
42
0.41617782582596796
10
204.46101008460096
20
-49.166099720154079
10
204.82866305443201
20
-46.171842284011504
42
0.41421398496508588
0
CIRCLE
5
155
100
AcDbEntity
8
0
100
AcDbCircle
10
201.42238245033786
20
-52.544219264498153
30
0
40
0.99999999999999201
210
-0
220
0
230
1
0
LWPOLYLINE
5
156
100
AcDbEntity
8
0
100
AcDbPolyline
90
20
70
1
43
0.0
10
169.02052173823216
20
-60.464462820456035
10
157.61979812094995
20
-59.064629977132668
42
0.41421356237309553
10
155.05664248234302
20
-61.067186636075846
10
155.04478028945491
20
-61.163796444352101
42
-0.41617824900634348
10
154.48424731948921
20
-61.598715244962115
10
153.09439964700243
20
-61.418598599019994
42
0.41617782582598595
10
152.53386676495498
20
-61.853516683597796
10
152.14839537123109
20
-64.992891805763847
42
0.41421398496509748
10
152.58373368743096
20
-65.550100269319344
10
155.01372687050591
20
-65.848465915300253
42
1.2109854316131907
10
156.96299245473256
20
-66.087805634142669
10
158.95461760103186
20
-66.3323464532142
42
1.7517555008686883
10
162.3864886307862
20
-65.191210018366576
10
165.98168671215763
20
-65.632644836146753
42
0.41421356237308471
10
166.53889445968088
20
-65.197306432028654
10
166.59891830909888
20
-64.708451408427791
42
-0.4161782490063124
10
167.15945127906457
20
-64.273532607817756
10
168.52767420255358
20
-64.450846804731839
42
0.41617782582596796
10
169.08820708460098
20
-64.015928720154079
10
169.45586005443204
20
-61.021671284011497
42
0.41421398496508588
0
CIRCLE
5
157
100
AcDbEntity
8
0
100
AcDbCircle
10
166.04957945033789
20
-67.394048264498153
30
0
40
0.99999999999999201
210
-0
220
0
230
1
0
LWPOLYLINE
5
158
100
AcDbEntity
8
0
100
AcDbPolyline
90
20
70
1
43
0.0
10
187.92852573823214
20
-62.786073820456039
10
176.52780212094996
20
-61.38624097713268
42
0.41421356237309553
10
173.96464648234303
20
-63.388797636075857
10
173.95278428945491
20
-63.485407444352113
42
-0.41617824900634348
10
173.39225131948922
20
-63.920326244962126
10
172.00240364700244
20
-63.740209599020005
42
0.41617782582598595
10
171.44187076495498
20
-64.175127683597808
10
171.05639937123107
20
-67.314502805763851
42
0.41421398496509748
10
171.49173768743097
20
-67.871711269319349
10
173.92173087050591
20
-68.170076915300257
42
1.2109854316131907
10
175.87099645473256
20
-68.409416634142673
10
177.86262160103183
20
-68.653957453214204
42
1.7517555008686883
10
181.29449263078618
20
-67.512821018366594
10
184.88969071215763
20
-67.954255836146757
42
0.41421356237308471
10
185.44689845968088
20
-67.518917432028658
10
185.50692230909888
20
-67.030062408427796
42
-0.4161782490063124
10
186.06745527906457
20
-66.595143607817761
10
187.43567820255356
20
-66.772457804731843
42
0.41617782582596796
10
187.99621108460099
20
-66.337539720154084
10
188.36386405443204
20
-63.343282284011508
42
0.41421398496508588
0
CIRCLE
5
159
100
AcDbEntity
8
0
100
AcDbCircle
10
184.95758345033789
20
-69.715659264498157
30
-2.7755575615628914e-16
40
0.99999999999999201
210
-0
220
0
230
1
0
LWPOLYLINE
5
160
100
AcDbEntity
8
0
100
AcDbPolyline
90
20
70
1
43
0.0
10
220.85812273823217
20
-28.443194820456039
10
209.45739912094996
20
-27.043361977132676
42
0.41421356237309553
10
206.89424348234303
20
-29.045918636075854
10
206.88238128945494
20
-29.142528444352106
42
-0.41617824900634348
10
206.32184831948922
20
-29.577447244962123
10
204.93200064700244
20
-29.397330599020002
42
0.41617782582598595
10
204.37146776495499
20
-29.832248683597804
10
203.9859963712311
20
-32.971623805763848
42
0.41421398496509748
10
204.42133468743097
20
-33.528832269319352
10
206.85132787050591
20
-33.827197915300253
42
1.2109854316131907
10
208.80059345473256
20
-34.066537634142676
10
210.79221860103186
20
-34.311078453214208
42
1.7517555008686883
10
214.22408963078621
20
-33.169942018366584
10
217.81928771215763
20
-33.611376836146754
42
0.41421356237308471
10
218.37649545968088
20
-33.176038432028662
10
218.43651930909888
20
-32.687183408427799
42
-0.4161782490063124
10
218.99705227906458
20
-32.252264607817764
10
220.36527520255359
20
-32.429578804731847
42
0.41617782582596796
10
220.92580808460099
20
-31.99466072015408
10
221.29346105443204
20
-29.000403284011504
42
0.41421398496508588
0
CIRCLE
5
161
100
AcDbEntity
8
0
100
AcDbCircle
10
217.88718045033789
20
-35.372780264498154
30
0
40
0.99999999999999201
210
-0
220
0
230
1
0
LWPOLYLINE
5
162
100
AcDbEntity
8
0
100
AcDbPolyline
90
20
70
1
43
0.0
10
223.30132873823214
20
-47.936244820456025
10
211.90060512094993
20
-46.536411977132666
42
0.41421356237309553
10
209.33744948234303
20
-48.538968636075843
10
209.32558728945492
20
-48.635578444352099
42
-0.41617824900634348
10
208.7650543194892
20
-49.070497244962112
10
207.37520664700241
20
-48.890380599019991
42
0.41617782582598595
10
206.81467376495499
20
-49.325298683597794
10
206.42920237123107
20
-52.464673805763837
42
0.41421398496509748
10
206.86454068743097
20
-53.021882269319335
10
209.29453387050589
20
-53.320247915300243
42
1.2109854316131907
10
211.24379945473254
20
-53.559587634142659
10
213.23542460103184
20
-53.804128453214197
42
1.7517555008686883
10
216.66729563078619
20
-52.66299201836658
10
220.26249371215761
20
-53.104426836146743
42
0.41421356237308471
10
220.81970145968086
20
-52.669088432028644
10
220.87972530909889
20
-52.180233408427782
42
-0.4161782490063124
10
221.44025827906458
20
-51.745314607817754
10
222.80848120255357
20
-51.922628804731836
42
0.41617782582596796
10
223.36901408460096
20
-51.48771072015407
10
223.73666705443202
20
-48.493453284011494
42
0.41421398496508588
0
CIRCLE
5
163
100
AcDbEntity
8
0
100
AcDbCircle
10
220.33038645033787
20
-54.865830264498143
30
0
40
0.99999999999999201
210
-0
220
0
230
1
0
LWPOLYLINE
5
164
100
AcDbEntity
8
0
100
AcDbPolyline
90
20
70
1
43
0.0
10
185.60691473823215
20
-81.69407782045603
10
174.20619112094997
20
-80.294244977132664
42
0.41421356237309553
10
171.64303548234304
20
-82.296801636075841
10
171.63117328945492
20
-82.393411444352097
42
-0.41617824900634348
10
171.07064031948923
20
-82.828330244962117
10
169.68079264700242
20
-82.648213599019996
42
0.41617782582598595
10
169.12025976495499
20
-83.083131683597799
10
168.7347883712311
20
-86.222506805763842
42
0.41421398496509748
10
169.17012668743098
20
-86.77971526931934
10
171.60011987050592
20
-87.078080915300248
42
1.2109854316131907
10
173.54938545473257
20
-87.317420634142664
10
175.54101060103187
20
-87.561961453214195
42
1.7517555008686883
10
178.97288163078622
20
-86.420825018366571
10
182.56807971215764
20
-86.862259836146748
42
0.41421356237308471
10
183.12528745968086
20
-86.426921432028649
10
183.18531130909889
20
-85.938066408427801
42
-0.4161782490063124
10
183.74584427906458
20
-85.503147607817752
10
185.1140672025536
20
-85.680461804731834
42
0.41617782582596796
10
185.674600084601
20
-85.245543720154075
10
186.04225305443205
20
-82.251286284011499
42
0.41421398496508588
0
CIRCLE
5
165
100
AcDbEntity
8
0
100
AcDbCircle
10
182.6359724503379
20
-88.623663264498148
30
0
40
0.99999999999999201
210
-0
220
0
230
1
0
LWPOLYLINE
5
166
100
AcDbEntity
8
0
100
AcDbPolyline
90
20
70
1
43
0.0
10
206.83653073823217
20
-65.107684820456029
10
195.43580712094996
20
-63.70785197713267
42
0.41421356237309553
10
192.87265148234303
20
-65.71040863607584
10
192.86078928945494
20
-65.807018444352096
42
-0.41617824900634348
10
192.30025631948922
20
-66.241937244962116
10
190.91040864700244
20
-66.061820599019995
42
0.41617782582598595
10
190.34987576495499
20
-66.496738683597798
10
189.9644043712311
20
-69.636113805763841
42
0.41421398496509748
10
190.39974268743097
20
-70.193322269319339
10
192.82973587050591
20
-70.491687915300247
42
1.2109854316131907
10
194.77900145473257
20
-70.731027634142663
10
196.77062660103186
20
-70.975568453214194
42
1.7517555008686883
10
200.20249763078621
20
-69.834432018366584
10
203.79769571215763
20
-70.275866836146747
42
0.41421356237308471
10
204.35490345968088
20
-69.840528432028648
10
204.41492730909889
20
-69.351673408427786
42
-0.4161782490063124
10
204.97546027906458
20
-68.916754607817751
10
206.34368320255359
20
-69.094068804731833
42
0.41617782582596796
10
206.90421608460099
20
-68.659150720154074
10
207.27186905443205
20
-65.664893284011498
42
0.41421398496508588
0
CIRCLE
5
167
100
AcDbEntity
8
0
100
AcDbCircle
10
203.8655884503379
20
-72.037270264498147
30
0
40
0.99999999999999201
210
-0
220
0
230
1
0
LWPOLYLINE
5
168
100
AcDbEntity
8
0
100
AcDbPolyline
90
20
70
1
43
0.0
10
209.25787976495496
20
-68.818349683597802
42
-0.41617782582598595
10
209.81841264700245
20
-68.383431599019985
10
211.20826031948923
20
-68.563548244962107
42
0.41617824900634348
10
211.76879328945492
20
-68.1286294443521
10
211.78065548234309
20
-68.032019636075844
42
-0.41421356237309553
10
214.34381112094997
20
-66.029462977132667
10
225.74453473823215
20
-67.429295820455977
42
-0.41421398496508588
10
226.17987305443205
20
-67.986504284011488
10
225.81222008460099
20
-70.980761720154078
42
-0.41617782582596796
10
225.25168720255357
20
-71.415679804731838
10
223.88346427906458
20
-71.238365607817755
42
0.4161782490063124
10
223.32293130909889
20
-71.67328440842779
10
223.26290745968089
20
-72.162139432028653
42
-0.41421356237308471
10
222.70569971215764
20
-72.597477836146737
10
219.11050163078619
20
-72.156043018366603
42
-1.7517555008686883
10
215.67863060103184
20
-73.297179453214198
10
213.68700545473257
20
-73.052638634142667
42
-1.2109854316131907
10
211.73773987050592
20
-72.813298915300237
10
209.30774668743098
20
-72.514933269319371
42
-0.41421398496509748
10
208.87240837123107
20
-71.957724805763831
0
CIRCLE
5
169
100
AcDbEntity
8
0
100
AcDbCircle
10
222.7735924503379
20
-74.358881264498137
30
0
40
0.99999999999999201
210
-0
220
0
230
1
0
LWPOLYLINE
5
170
100
AcDbEntity
8
0
100
AcDbPolyline
90
20
70
1
43
0.0
10
202.20926776495497
20
-87.145950683597789
42
-0.41617782582598595
10
202.76980064700243
20
-86.711032599019987
10
204.15964831948924
20
-86.891149244962108
42
0.41617824900634348
10
204.72018128945493
20
-86.456230444352101
10
204.73204348234307
20
-86.359620636075846
42
-0.41421356237309553
10
207.29519912094997
20
-84.357063977132668
10
218.69592273823216
20
-85.756896820455978
42
-0.41421398496508588
10
219.13126105443206
20
-86.31410528401149
10
218.763608084601
20
-89.308362720154065
42
-0.41617782582596796
10
218.20307520255358
20
-89.743280804731839
10
216.83485227906459
20
-89.565966607817757
42
0.4161782490063124
10
216.2743193090989
20
-90.000885408427791
10
216.21429545968087
20
-90.48974043202864
42
-0.41421356237308471
10
215.65708771215765
20
-90.925078836146739
10
212.0618896307862
20
-90.48364401836659
42
-1.7517555008686883
10
208.63001860103185
20
-91.6247804532142
10
206.63839345473258
20
-91.380239634142669
42
-1.2109854316131907
10
204.6891278705059
20
-91.140899915300238
10
202.25913468743099
20
-90.842534269319373
42
-0.41421398496509748
10
201.82379637123108
20
-90.285325805763833
0
CIRCLE
5
171
100
AcDbEntity
8
0
100
AcDbCircle
10
215.72498045033791
20
-92.686482264498139
30
0
40
0.99999999999999201
210
-0
220
0
230
1
0
LWPOLYLINE
5
172
100
AcDbEntity
8
0
100
AcDbPolyline
90
10
70
1
43
0.0
10
99.037040000000033
20
-38.110606567204968
10
99.037040000000019
20
-45.86105296080008
42
-0.5310419708496591
10
98.350702295882371
20
-46.325033844052996
10
95.254640505901236
20
-45.081635534823654
42
-0.1866585961459131
10
94.990921355245803
20
-44.835482169280894
10
93.648143383885568
20
-42.061147517710168
42
-0.22927840225125745
10
93.648143383885568
20
-41.625492482289843
10
94.957090001540081
20
-38.921057321846646
42
-0.18576529009903842
10
95.324055087548288
20
-38.577347399533465
10
98.073925489325916
20
-37.461938120097557
42
-0.53214932242010016
0
LWPOLYLINE
5
173
100
AcDbEntity
8
0
100
AcDbPolyline
90
8
70
1
43
0.0
10
99.144639999999967
20
-64.073983407537
10
99.144639999999981
20
-56.480963959195016
42
-0.41421356237308982
10
99.644639999999995
20
-55.980963959195016
10
102.74464000000002
20
-55.980963959195009
42
-0.41421356237312101
10
103.24464
20
-56.480963959195009
10
103.24464000000003
20
-64.073983407537014
42
-0.41421356237310542
10
102.74464000000002
20
-64.573983407537014
10
99.644639999999953
20
-64.573983407537
42
-0.41421356237305862
0
LWPOLYLINE
5
174
100
AcDbEntity
8
0
100
AcDbPolyline
90
8
70
1
43
0.0
10
130.91477659246297
20
-21.891719999999996
10
130.914776592463
20
-18.791719999999998
42
-0.41421356237310414
10
131.414776592463
20
-18.291719999999994
10
139.007796040805
20
-18.291719999999998
42
-0.41421356237310281
10
139.50779604080498
20
-18.791720000000002
10
139.50779604080503
20
-21.891719999999996
42
-0.41421356237309509
10
139.007796040805
20
-22.391720000000003
10
131.414776592463
20
-22.391719999999996
42
-0.41421356237308982
0
LWPOLYLINE
5
175
100
AcDbEntity
8
0
100
AcDbPolyline
90
8
70
1
43
0.0
10
210.63534116792999
20
-22.501889190075456
10
203.09891893514089
20
-21.576532895440778
42
0.41421356237320989
10
202.54171118761747
20
-22.011871299558891
10
202.16391622306151
20
-25.0887643696494
42
0.41421356237293183
10
202.59925462717945
20
-25.645972117172565
10
210.13567685996867
20
-26.571328411807258
42
0.41421356237321022
10
210.69288460749206
20
-26.135990007689113
10
211.07067957204794
20
-23.059096937598611
42
0.41421356237292623
0
LWPOLYLINE
5
176
100
AcDbEntity
8
0
100
AcDbPolyline
90
8
70
1
43
0.0
10
122.88539604080501
20
-88.902319999999989
10
115.29237659246304
20
-88.902319999999989
42
0.4142135623730534
10
114.79237659246303
20
-89.402320000000003
10
114.79237659246303
20
-92.502319999999983
42
0.41421356237308465
10
115.29237659246304
20
-93.002319999999969
10
122.88539604080501
20
-93.002320000000012
42
0.41421356237312629
10
123.38539604080501
20
-92.502319999999997
10
123.38539604080502
20
-89.402320000000003
42
0.41421356237307422
0
LWPOLYLINE
5
177
100
AcDbEntity
8
0
100
AcDbPolyline
90
8
70
1
43
0.0
10
193.47653616793008
20
-95.280363190075462
10
185.94011393514077
20
-94.355006895440738
42
0.41421356237321122
10
185.38290618761732
20
-94.790345299558879
10
185.0051112230615
20
-97.867238369649385
42
0.41421356237305496
10
185.44044962717936
20
-98.424446117172536
10
192.9768718599687
20
-99.349802411807261
42
0.41421356237315826
10
193.53407960749212
20
-98.914464007689105
10
193.91187457204802
20
-95.837570937598628
42
0.41421356237295948
0
LWPOLYLINE
5
178
100
AcDbEntity
8
0
100
AcDbPolyline
90
8
70
1
43
0.0
10
227.18295700768795
20
-57.717917392507786
10
224.10606393759738
20
-57.340122427951876
42
0.41421356237293755
10
223.54885619007428
20
-57.77546083206979
10
222.62349989543958
20
-65.311883064859032
42
0.41421356237321055
10
223.05883829955764
20
-65.869090812382453
10
226.13573136964814
20
-66.24688577693837
42
0.41421356237293244
10
226.69293911717131
20
-65.811547372820428
10
227.61829541180603
20
-58.275125140031207
42
0.41421356237321055
0
ENDSEC
0
SECTION
2
OBJECTS
0
DICTIONARY
5
C
100
AcDbDictionary
3
ACAD_GROUP
350
D
3
ACAD_MLINESTYLE
350
17
0
DICTIONARY
5
D
100
AcDbDictionary
0
DICTIONARY
5
1A
330
C
100
AcDbDictionary
0
DICTIONARY
5
17
100
AcDbDictionary
0
ENDSEC
0
EOF
