%TF.GenerationSoftware,KiCad,Pcbnew,(5.1.9-0-10_14)*%
%TF.CreationDate,2021-04-30T13:47:16+09:00*%
%TF.ProjectId,seiren-pad,73656972-656e-42d7-9061-642e6b696361,rev?*%
%TF.SameCoordinates,Original*%
%TF.FileFunction,Copper,L1,Top*%
%TF.FilePolarity,Positive*%
%FSLAX46Y46*%
G04 Gerber Fmt 4.6, Leading zero omitted, Abs format (unit mm)*
G04 Created by KiCad (PCBNEW (5.1.9-0-10_14)) date 2021-04-30 13:47:16*
%MOMM*%
%LPD*%
G01*
G04 APERTURE LIST*
%TA.AperFunction,ComponentPad*%
%ADD10C,2.100000*%
%TD*%
%TA.AperFunction,SMDPad,CuDef*%
%ADD11C,0.100000*%
%TD*%
%TA.AperFunction,SMDPad,CuDef*%
%ADD12R,1.000000X1.400000*%
%TD*%
%TA.AperFunction,ComponentPad*%
%ADD13C,1.750000*%
%TD*%
%TA.AperFunction,ComponentPad*%
%ADD14C,1.524000*%
%TD*%
%TA.AperFunction,ViaPad*%
%ADD15C,0.800000*%
%TD*%
%TA.AperFunction,Conductor*%
%ADD16C,0.250000*%
%TD*%
%TA.AperFunction,Conductor*%
%ADD17C,0.500000*%
%TD*%
G04 APERTURE END LIST*
D10*
%TO.P,,*%
%TO.N,*%
X100543360Y-72938640D03*
%TD*%
%TO.P,,*%
%TO.N,*%
X191719200Y-90678000D03*
%TD*%
%TO.P,,*%
%TO.N,*%
X150876000Y-90932000D03*
%TD*%
%TO.P,,*%
%TO.N,*%
X217522445Y-24382352D03*
%TD*%
%TO.P,,*%
%TO.N,*%
X131790440Y-28178760D03*
%TD*%
%TA.AperFunction,SMDPad,CuDef*%
D11*
%TO.P,D4,2*%
%TO.N,Net-(D4-Pad2)*%
G36*
X221579043Y-35251804D02*
G01*
X220586496Y-35129935D01*
X220757113Y-33740370D01*
X221749660Y-33862239D01*
X221579043Y-35251804D01*
G37*
%TD.AperFunction*%
%TA.AperFunction,SMDPad,CuDef*%
%TO.P,D4,1*%
%TO.N,row0*%
G36*
X221146407Y-38775342D02*
G01*
X220153860Y-38653473D01*
X220324477Y-37263908D01*
X221317024Y-37385777D01*
X221146407Y-38775342D01*
G37*
%TD.AperFunction*%
%TD*%
D12*
%TO.P,D5,2*%
%TO.N,Net-(D5-Pad2)*%
X120357540Y-45384720D03*
%TO.P,D5,1*%
%TO.N,row1*%
X120357540Y-48934720D03*
%TD*%
%TO.P,D6,2*%
%TO.N,Net-(D6-Pad2)*%
X144109440Y-45384720D03*
%TO.P,D6,1*%
%TO.N,row1*%
X144109440Y-48934720D03*
%TD*%
%TA.AperFunction,SMDPad,CuDef*%
D11*
%TO.P,D7,2*%
%TO.N,Net-(D7-Pad2)*%
G36*
X167298236Y-47780021D02*
G01*
X166305689Y-47658152D01*
X166476306Y-46268587D01*
X167468853Y-46390456D01*
X167298236Y-47780021D01*
G37*
%TD.AperFunction*%
%TA.AperFunction,SMDPad,CuDef*%
%TO.P,D7,1*%
%TO.N,row1*%
G36*
X166865600Y-51303559D02*
G01*
X165873053Y-51181690D01*
X166043670Y-49792125D01*
X167036217Y-49913994D01*
X166865600Y-51303559D01*
G37*
%TD.AperFunction*%
%TD*%
%TA.AperFunction,SMDPad,CuDef*%
%TO.P,D8,2*%
%TO.N,Net-(D8-Pad2)*%
G36*
X186206240Y-50101632D02*
G01*
X185213693Y-49979763D01*
X185384310Y-48590198D01*
X186376857Y-48712067D01*
X186206240Y-50101632D01*
G37*
%TD.AperFunction*%
%TA.AperFunction,SMDPad,CuDef*%
%TO.P,D8,1*%
%TO.N,row1*%
G36*
X185773604Y-53625170D02*
G01*
X184781057Y-53503301D01*
X184951674Y-52113736D01*
X185944221Y-52235605D01*
X185773604Y-53625170D01*
G37*
%TD.AperFunction*%
%TD*%
%TA.AperFunction,SMDPad,CuDef*%
%TO.P,D9,2*%
%TO.N,Net-(D9-Pad2)*%
G36*
X205114244Y-52423238D02*
G01*
X204121697Y-52301369D01*
X204292314Y-50911804D01*
X205284861Y-51033673D01*
X205114244Y-52423238D01*
G37*
%TD.AperFunction*%
%TA.AperFunction,SMDPad,CuDef*%
%TO.P,D9,1*%
%TO.N,row1*%
G36*
X204681608Y-55946776D02*
G01*
X203689061Y-55824907D01*
X203859678Y-54435342D01*
X204852225Y-54557211D01*
X204681608Y-55946776D01*
G37*
%TD.AperFunction*%
%TD*%
%TA.AperFunction,SMDPad,CuDef*%
%TO.P,D10,2*%
%TO.N,Net-(D10-Pad2)*%
G36*
X224334210Y-52951069D02*
G01*
X223341663Y-52829200D01*
X223512280Y-51439635D01*
X224504827Y-51561504D01*
X224334210Y-52951069D01*
G37*
%TD.AperFunction*%
%TA.AperFunction,SMDPad,CuDef*%
%TO.P,D10,1*%
%TO.N,row1*%
G36*
X223901574Y-56474607D02*
G01*
X222909027Y-56352738D01*
X223079644Y-54963173D01*
X224072191Y-55085042D01*
X223901574Y-56474607D01*
G37*
%TD.AperFunction*%
%TD*%
D12*
%TO.P,D11,2*%
%TO.N,Net-(D11-Pad2)*%
X122738790Y-64434720D03*
%TO.P,D11,1*%
%TO.N,row2*%
X122738790Y-67984720D03*
%TD*%
%TO.P,D12,2*%
%TO.N,Net-(D12-Pad2)*%
X148910040Y-64434720D03*
%TO.P,D12,1*%
%TO.N,row2*%
X148910040Y-67984720D03*
%TD*%
%TA.AperFunction,SMDPad,CuDef*%
D11*
%TO.P,D13,2*%
%TO.N,Net-(D13-Pad2)*%
G36*
X169741442Y-67273071D02*
G01*
X168748895Y-67151202D01*
X168919512Y-65761637D01*
X169912059Y-65883506D01*
X169741442Y-67273071D01*
G37*
%TD.AperFunction*%
%TA.AperFunction,SMDPad,CuDef*%
%TO.P,D13,1*%
%TO.N,row2*%
G36*
X169308806Y-70796609D02*
G01*
X168316259Y-70674740D01*
X168486876Y-69285175D01*
X169479423Y-69407044D01*
X169308806Y-70796609D01*
G37*
%TD.AperFunction*%
%TD*%
%TA.AperFunction,SMDPad,CuDef*%
%TO.P,D14,2*%
%TO.N,Net-(D14-Pad2)*%
G36*
X188649446Y-69594682D02*
G01*
X187656899Y-69472813D01*
X187827516Y-68083248D01*
X188820063Y-68205117D01*
X188649446Y-69594682D01*
G37*
%TD.AperFunction*%
%TA.AperFunction,SMDPad,CuDef*%
%TO.P,D14,1*%
%TO.N,row2*%
G36*
X188216810Y-73118220D02*
G01*
X187224263Y-72996351D01*
X187394880Y-71606786D01*
X188387427Y-71728655D01*
X188216810Y-73118220D01*
G37*
%TD.AperFunction*%
%TD*%
%TA.AperFunction,SMDPad,CuDef*%
%TO.P,D15,2*%
%TO.N,Net-(D15-Pad2)*%
G36*
X207557444Y-71916278D02*
G01*
X206564897Y-71794409D01*
X206735514Y-70404844D01*
X207728061Y-70526713D01*
X207557444Y-71916278D01*
G37*
%TD.AperFunction*%
%TA.AperFunction,SMDPad,CuDef*%
%TO.P,D15,1*%
%TO.N,row2*%
G36*
X207124808Y-75439816D02*
G01*
X206132261Y-75317947D01*
X206302878Y-73928382D01*
X207295425Y-74050251D01*
X207124808Y-75439816D01*
G37*
%TD.AperFunction*%
%TD*%
%TA.AperFunction,SMDPad,CuDef*%
%TO.P,D16,2*%
%TO.N,Net-(D16-Pad2)*%
G36*
X226465455Y-74237904D02*
G01*
X225472908Y-74116035D01*
X225643525Y-72726470D01*
X226636072Y-72848339D01*
X226465455Y-74237904D01*
G37*
%TD.AperFunction*%
%TA.AperFunction,SMDPad,CuDef*%
%TO.P,D16,1*%
%TO.N,row2*%
G36*
X226032819Y-77761442D02*
G01*
X225040272Y-77639573D01*
X225210889Y-76250008D01*
X226203436Y-76371877D01*
X226032819Y-77761442D01*
G37*
%TD.AperFunction*%
%TD*%
D12*
%TO.P,D17,2*%
%TO.N,Net-(D17-Pad2)*%
X115556940Y-82484720D03*
%TO.P,D17,1*%
%TO.N,row3*%
X115556940Y-86034720D03*
%TD*%
%TO.P,D18,2*%
%TO.N,Net-(D18-Pad2)*%
X139407540Y-83484720D03*
%TO.P,D18,1*%
%TO.N,row3*%
X139407540Y-87034720D03*
%TD*%
%TA.AperFunction,SMDPad,CuDef*%
D11*
%TO.P,D19,2*%
%TO.N,Net-(D19-Pad2)*%
G36*
X186327835Y-88502687D02*
G01*
X185335288Y-88380818D01*
X185505905Y-86991253D01*
X186498452Y-87113122D01*
X186327835Y-88502687D01*
G37*
%TD.AperFunction*%
%TA.AperFunction,SMDPad,CuDef*%
%TO.P,D19,1*%
%TO.N,row3*%
G36*
X185895199Y-92026225D02*
G01*
X184902652Y-91904356D01*
X185073269Y-90514791D01*
X186065816Y-90636660D01*
X185895199Y-92026225D01*
G37*
%TD.AperFunction*%
%TD*%
%TA.AperFunction,SMDPad,CuDef*%
%TO.P,D20,2*%
%TO.N,Net-(D20-Pad2)*%
G36*
X219379027Y-92560863D02*
G01*
X218386480Y-92438994D01*
X218557097Y-91049429D01*
X219549644Y-91171298D01*
X219379027Y-92560863D01*
G37*
%TD.AperFunction*%
%TA.AperFunction,SMDPad,CuDef*%
%TO.P,D20,1*%
%TO.N,row3*%
G36*
X218946391Y-96084401D02*
G01*
X217953844Y-95962532D01*
X218124461Y-94572967D01*
X219117008Y-94694836D01*
X218946391Y-96084401D01*
G37*
%TD.AperFunction*%
%TD*%
D10*
%TO.P,SW21,*%
%TO.N,*%
X98187040Y-45343320D03*
D13*
%TO.P,SW21,1*%
%TO.N,reset*%
X95697040Y-44343320D03*
%TO.P,SW21,2*%
%TO.N,GND*%
X95697040Y-39343320D03*
D10*
%TO.P,SW21,*%
%TO.N,*%
X98187040Y-38333320D03*
%TD*%
D14*
%TO.P,U1,24*%
%TO.N,Net-(U1-Pad24)*%
X94856240Y-34756120D03*
%TO.P,U1,23*%
%TO.N,GND*%
X97396240Y-34756120D03*
%TO.P,U1,22*%
%TO.N,reset*%
X99936240Y-34756120D03*
%TO.P,U1,21*%
%TO.N,VDD*%
X102476240Y-34756120D03*
%TO.P,U1,20*%
%TO.N,col0*%
X105016240Y-34756120D03*
%TO.P,U1,19*%
%TO.N,col1*%
X107556240Y-34756120D03*
%TO.P,U1,18*%
%TO.N,col2*%
X110096240Y-34756120D03*
%TO.P,U1,17*%
%TO.N,col3*%
X112636240Y-34756120D03*
%TO.P,U1,16*%
%TO.N,col4*%
X115176240Y-34756120D03*
%TO.P,U1,15*%
%TO.N,col5*%
X117716240Y-34756120D03*
%TO.P,U1,14*%
%TO.N,Net-(U1-Pad14)*%
X120256240Y-34756120D03*
%TO.P,U1,13*%
%TO.N,Net-(U1-Pad13)*%
X122796240Y-34756120D03*
%TO.P,U1,12*%
%TO.N,Net-(U1-Pad12)*%
X122796240Y-19536120D03*
%TO.P,U1,11*%
%TO.N,Net-(U1-Pad11)*%
X120256240Y-19536120D03*
%TO.P,U1,10*%
%TO.N,row0*%
X117716240Y-19536120D03*
%TO.P,U1,9*%
%TO.N,row1*%
X115176240Y-19536120D03*
%TO.P,U1,8*%
%TO.N,row2*%
X112636240Y-19536120D03*
%TO.P,U1,7*%
%TO.N,row3*%
X110096240Y-19536120D03*
%TO.P,U1,6*%
%TO.N,Net-(U1-Pad6)*%
X107556240Y-19536120D03*
%TO.P,U1,5*%
%TO.N,Net-(U1-Pad5)*%
X105016240Y-19536120D03*
%TO.P,U1,4*%
%TO.N,GND*%
X102476240Y-19536120D03*
%TO.P,U1,3*%
X99936240Y-19536120D03*
%TO.P,U1,2*%
%TO.N,Net-(U1-Pad2)*%
X97396240Y-19536120D03*
%TO.P,U1,1*%
%TO.N,LED*%
X94856240Y-19536120D03*
%TD*%
%TA.AperFunction,SMDPad,CuDef*%
D11*
%TO.P,D1,2*%
%TO.N,Net-(D1-Pad2)*%
G36*
X164855030Y-28286971D02*
G01*
X163862483Y-28165102D01*
X164033100Y-26775537D01*
X165025647Y-26897406D01*
X164855030Y-28286971D01*
G37*
%TD.AperFunction*%
%TA.AperFunction,SMDPad,CuDef*%
%TO.P,D1,1*%
%TO.N,row0*%
G36*
X164422394Y-31810509D02*
G01*
X163429847Y-31688640D01*
X163600464Y-30299075D01*
X164593011Y-30420944D01*
X164422394Y-31810509D01*
G37*
%TD.AperFunction*%
%TD*%
%TA.AperFunction,SMDPad,CuDef*%
%TO.P,D2,2*%
%TO.N,Net-(D2-Pad2)*%
G36*
X183763034Y-30608582D02*
G01*
X182770487Y-30486713D01*
X182941104Y-29097148D01*
X183933651Y-29219017D01*
X183763034Y-30608582D01*
G37*
%TD.AperFunction*%
%TA.AperFunction,SMDPad,CuDef*%
%TO.P,D2,1*%
%TO.N,row0*%
G36*
X183330398Y-34132120D02*
G01*
X182337851Y-34010251D01*
X182508468Y-32620686D01*
X183501015Y-32742555D01*
X183330398Y-34132120D01*
G37*
%TD.AperFunction*%
%TD*%
%TA.AperFunction,SMDPad,CuDef*%
%TO.P,D3,2*%
%TO.N,Net-(D3-Pad2)*%
G36*
X202671038Y-32930193D02*
G01*
X201678491Y-32808324D01*
X201849108Y-31418759D01*
X202841655Y-31540628D01*
X202671038Y-32930193D01*
G37*
%TD.AperFunction*%
%TA.AperFunction,SMDPad,CuDef*%
%TO.P,D3,1*%
%TO.N,row0*%
G36*
X202238402Y-36453731D02*
G01*
X201245855Y-36331862D01*
X201416472Y-34942297D01*
X202409019Y-35064166D01*
X202238402Y-36453731D01*
G37*
%TD.AperFunction*%
%TD*%
D10*
%TO.P,,*%
%TO.N,*%
X125318520Y-56255920D03*
%TD*%
%TO.P,,*%
%TO.N,*%
X171551600Y-58597800D03*
%TD*%
%TO.P,,*%
%TO.N,*%
X209473800Y-63246000D03*
%TD*%
D15*
%TO.N,Net-(D1-Pad2)*%
X164581840Y-26233120D03*
%TO.N,Net-(D2-Pad2)*%
X183504840Y-28519120D03*
%TO.N,Net-(D3-Pad2)*%
X202384045Y-30833952D03*
%TO.N,Net-(D4-Pad2)*%
X221325440Y-33192720D03*
%TO.N,Net-(D5-Pad2)*%
X120360440Y-44063920D03*
%TO.N,Net-(D6-Pad2)*%
X144109440Y-44063920D03*
%TO.N,Net-(D7-Pad2)*%
X167045640Y-45714920D03*
%TO.N,Net-(D8-Pad2)*%
X185917840Y-48026320D03*
%TO.N,Net-(D9-Pad2)*%
X204817986Y-50320613D03*
%TO.N,Net-(D10-Pad2)*%
X224101045Y-50823752D03*
%TO.N,Net-(D11-Pad2)*%
X122748040Y-63113920D03*
%TO.N,Net-(D12-Pad2)*%
X148910040Y-63113920D03*
%TO.N,Net-(D13-Pad2)*%
X169484040Y-65222120D03*
%TO.N,Net-(D14-Pad2)*%
X188381640Y-67533520D03*
%TO.N,Net-(D15-Pad2)*%
X207235445Y-69797552D03*
%TO.N,Net-(D16-Pad2)*%
X226176840Y-72181720D03*
%TO.N,Net-(D17-Pad2)*%
X115559840Y-81147920D03*
%TO.N,Net-(D18-Pad2)*%
X139410440Y-82163920D03*
%TO.N,Net-(D19-Pad2)*%
X186070240Y-86431120D03*
%TO.N,Net-(D20-Pad2)*%
X219115640Y-90495120D03*
%TO.N,col0*%
X107279440Y-65349120D03*
X100142040Y-80335120D03*
%TD*%
D16*
%TO.N,row0*%
X220735442Y-38019625D02*
X204149048Y-38019625D01*
X202072240Y-35306407D02*
X202082196Y-35316363D01*
X204149048Y-38019625D02*
X202686318Y-38019625D01*
X201827437Y-37160744D02*
X201827437Y-35698014D01*
X202686318Y-38019625D02*
X201827437Y-37160744D01*
X185848645Y-33932752D02*
X185292296Y-33376403D01*
X191462045Y-33932752D02*
X185848645Y-33932752D01*
X185292296Y-33376403D02*
X182919433Y-33376403D01*
X193227307Y-35698014D02*
X191462045Y-33932752D01*
X201827437Y-35698014D02*
X193227307Y-35698014D01*
X167662245Y-31849952D02*
X166867085Y-31054792D01*
X172056445Y-31849952D02*
X167662245Y-31849952D01*
X166867085Y-31054792D02*
X164011429Y-31054792D01*
X173582896Y-33376403D02*
X172056445Y-31849952D01*
X182919433Y-33376403D02*
X173582896Y-33376403D01*
X117716240Y-20765947D02*
X117716240Y-19536120D01*
X126946045Y-23137752D02*
X125701445Y-21893152D01*
X126946045Y-29435445D02*
X126946045Y-23137752D01*
X118843445Y-21893152D02*
X117716240Y-20765947D01*
X125701445Y-21893152D02*
X118843445Y-21893152D01*
X164011429Y-32787771D02*
X162890200Y-33909000D01*
X131419600Y-33909000D02*
X126946045Y-29435445D01*
X162890200Y-33909000D02*
X131419600Y-33909000D01*
X164011429Y-31054792D02*
X164011429Y-32787771D01*
%TO.N,Net-(D1-Pad2)*%
X164581840Y-27393479D02*
X164444065Y-27531254D01*
X164581840Y-26233120D02*
X164581840Y-27393479D01*
%TO.N,Net-(D2-Pad2)*%
X183504840Y-29700094D02*
X183352069Y-29852865D01*
X183352069Y-29852865D02*
X183352069Y-29864949D01*
X183504840Y-28519120D02*
X183504840Y-29700094D01*
X183352069Y-29864949D02*
X183352440Y-29865320D01*
%TO.N,Net-(D3-Pad2)*%
X202384045Y-32050504D02*
X202260073Y-32174476D01*
X202384045Y-30833952D02*
X202384045Y-32050504D01*
%TO.N,Net-(D4-Pad2)*%
X221325440Y-33192720D02*
X221325440Y-34338725D01*
X221325440Y-34338725D02*
X221168078Y-34496087D01*
%TO.N,row1*%
X144109440Y-48934720D02*
X139822840Y-48934720D01*
X131358640Y-49575720D02*
X130717640Y-48934720D01*
X130717640Y-48934720D02*
X120357540Y-48934720D01*
X139181840Y-49575720D02*
X131358640Y-49575720D01*
X139822840Y-48934720D02*
X139181840Y-49575720D01*
X206050136Y-56970552D02*
X204270643Y-55191059D01*
X223490609Y-56463388D02*
X222983445Y-56970552D01*
X222983445Y-56970552D02*
X206050136Y-56970552D01*
X223490609Y-55718890D02*
X223490609Y-56463388D01*
X145160272Y-49985552D02*
X144109440Y-48934720D01*
X165020645Y-49985552D02*
X145160272Y-49985552D01*
X165582935Y-50547842D02*
X165020645Y-49985552D01*
X166454635Y-50547842D02*
X165582935Y-50547842D01*
X168305345Y-52398552D02*
X166454635Y-50547842D01*
X184019845Y-52830352D02*
X183588045Y-52398552D01*
X183588045Y-52398552D02*
X168305345Y-52398552D01*
X185323538Y-52830352D02*
X184019845Y-52830352D01*
X204269150Y-55192552D02*
X204270643Y-55191059D01*
X203146045Y-55192552D02*
X204269150Y-55192552D01*
X187152338Y-54659152D02*
X202612645Y-54659152D01*
X202612645Y-54659152D02*
X203146045Y-55192552D01*
X185362639Y-52869453D02*
X187152338Y-54659152D01*
X113103045Y-21609315D02*
X114047282Y-21609315D01*
X111401245Y-23311115D02*
X113103045Y-21609315D01*
X112176560Y-36105067D02*
X111401245Y-35329752D01*
X115031520Y-45491400D02*
X112176560Y-42636440D01*
X112176560Y-42636440D02*
X112176560Y-36105067D01*
X114047282Y-21609315D02*
X115176240Y-20480357D01*
X115031520Y-47670720D02*
X115031520Y-45491400D01*
X115176240Y-20480357D02*
X115176240Y-19536120D01*
X111401245Y-35329752D02*
X111401245Y-23311115D01*
X116295520Y-48934720D02*
X115031520Y-47670720D01*
X120357540Y-48934720D02*
X116295520Y-48934720D01*
%TO.N,Net-(D5-Pad2)*%
X120360440Y-45381820D02*
X120357540Y-45384720D01*
X120360440Y-44063920D02*
X120360440Y-45381820D01*
%TO.N,Net-(D6-Pad2)*%
X144109440Y-44063920D02*
X144109440Y-45384720D01*
%TO.N,Net-(D7-Pad2)*%
X167045640Y-45714920D02*
X167045640Y-46865935D01*
X167045640Y-46865935D02*
X166887271Y-47024304D01*
%TO.N,Net-(D8-Pad2)*%
X185917840Y-48026320D02*
X185917840Y-49223350D01*
X185917840Y-49223350D02*
X185795275Y-49345915D01*
%TO.N,Net-(D9-Pad2)*%
X204703279Y-51667521D02*
X204703279Y-50435320D01*
X204703279Y-50435320D02*
X204817986Y-50320613D01*
%TO.N,Net-(D10-Pad2)*%
X224101045Y-52017552D02*
X223923245Y-52195352D01*
X224101045Y-50823752D02*
X224101045Y-52017552D01*
%TO.N,Net-(D11-Pad2)*%
X122748040Y-63113920D02*
X122748040Y-64425470D01*
%TO.N,row2*%
X123758040Y-67984720D02*
X122738790Y-67984720D01*
X143893439Y-68079721D02*
X143372840Y-68600320D01*
X137067640Y-67984720D02*
X122738790Y-67984720D01*
X143372840Y-68600320D02*
X137683240Y-68600320D01*
X148815039Y-68079721D02*
X143893439Y-68079721D01*
X137683240Y-68600320D02*
X137067640Y-67984720D01*
X148910040Y-67984720D02*
X148815039Y-68079721D01*
X206713843Y-76591150D02*
X206713843Y-74684099D01*
X208012351Y-77889658D02*
X206713843Y-76591150D01*
X224737921Y-77889658D02*
X208012351Y-77889658D01*
X225621854Y-77005725D02*
X224737921Y-77889658D01*
X205390992Y-74684099D02*
X206713843Y-74684099D01*
X204873245Y-74166352D02*
X205390992Y-74684099D01*
X189609694Y-74166352D02*
X204873245Y-74166352D01*
X187805845Y-72362503D02*
X189609694Y-74166352D01*
X170686501Y-71829552D02*
X168897841Y-70040892D01*
X185924845Y-71829552D02*
X170686501Y-71829552D01*
X186458245Y-72362952D02*
X185924845Y-71829552D01*
X187805396Y-72362952D02*
X186458245Y-72362952D01*
X187805845Y-72362503D02*
X187805396Y-72362952D01*
X167880185Y-70040892D02*
X168897841Y-70040892D01*
X167332045Y-69492752D02*
X167880185Y-70040892D01*
X150418072Y-69492752D02*
X167332045Y-69492752D01*
X148910040Y-67984720D02*
X150418072Y-69492752D01*
X110537645Y-23366352D02*
X112636240Y-21267757D01*
X112636240Y-21267757D02*
X112636240Y-19536120D01*
X110537645Y-24610952D02*
X110537645Y-23366352D01*
X106321245Y-37625635D02*
X106321245Y-28827352D01*
X103398320Y-40548560D02*
X106321245Y-37625635D01*
X103398320Y-54340760D02*
X103398320Y-40548560D01*
X104531160Y-55473600D02*
X103398320Y-54340760D01*
X104537100Y-55473600D02*
X104531160Y-55473600D01*
X105384600Y-60609480D02*
X104798290Y-60023170D01*
X104798290Y-55734790D02*
X104537100Y-55473600D01*
X113763629Y-62572469D02*
X111800640Y-60609480D01*
X104798290Y-60023170D02*
X104798290Y-55734790D01*
X117784880Y-67177920D02*
X117784880Y-64444880D01*
X115912470Y-62572470D02*
X113763629Y-62572469D01*
X117784880Y-64444880D02*
X115912470Y-62572470D01*
X106321245Y-28827352D02*
X110537645Y-24610952D01*
X118591680Y-67984720D02*
X117784880Y-67177920D01*
X111800640Y-60609480D02*
X105384600Y-60609480D01*
X122738790Y-67984720D02*
X118591680Y-67984720D01*
%TO.N,Net-(D12-Pad2)*%
X148910040Y-63113920D02*
X148910040Y-64434720D01*
%TO.N,Net-(D13-Pad2)*%
X169484040Y-65222120D02*
X169484040Y-66363791D01*
X169484040Y-66363791D02*
X169330477Y-66517354D01*
%TO.N,Net-(D14-Pad2)*%
X188381640Y-67533520D02*
X188381640Y-68695806D01*
X188381640Y-68695806D02*
X188238481Y-68838965D01*
%TO.N,Net-(D15-Pad2)*%
X207235445Y-71071595D02*
X207146479Y-71160561D01*
X207235445Y-69797552D02*
X207235445Y-71071595D01*
%TO.N,Net-(D16-Pad2)*%
X226176840Y-73359837D02*
X226054490Y-73482187D01*
X226176840Y-72181720D02*
X226176840Y-73359837D01*
%TO.N,Net-(D17-Pad2)*%
X115559840Y-81147920D02*
X115559840Y-82481820D01*
X115559840Y-82481820D02*
X115556940Y-82484720D01*
%TO.N,row3*%
X185484234Y-91270508D02*
X185033966Y-90820240D01*
X185033966Y-90820240D02*
X173685200Y-90820240D01*
X169899680Y-87034720D02*
X139407540Y-87034720D01*
X173685200Y-90820240D02*
X169899680Y-87034720D01*
X139407540Y-87034720D02*
X139312539Y-87129721D01*
X139312539Y-87129721D02*
X133936639Y-87129721D01*
X132283200Y-88783160D02*
X117068600Y-88783160D01*
X117068600Y-88783160D02*
X115556940Y-87271500D01*
X133936639Y-87129721D02*
X132283200Y-88783160D01*
X115556940Y-87271500D02*
X115556940Y-86034720D01*
X187017045Y-91590752D02*
X185804478Y-91590752D01*
X185804478Y-91590752D02*
X185484234Y-91270508D01*
X218099494Y-94892752D02*
X204670045Y-94892752D01*
X203146045Y-93368752D02*
X188795045Y-93368752D01*
X204670045Y-94892752D02*
X203146045Y-93368752D01*
X188795045Y-93368752D02*
X187017045Y-91590752D01*
X218535426Y-95328684D02*
X218099494Y-94892752D01*
X108981240Y-82519520D02*
X107751880Y-81290160D01*
X110087634Y-24273563D02*
X110087634Y-20622356D01*
X107751880Y-69184520D02*
X108493560Y-68442840D01*
X105235869Y-61097160D02*
X104348279Y-60209570D01*
X104348279Y-60209570D02*
X104348279Y-55927130D01*
X114086640Y-85465920D02*
X114086640Y-84018120D01*
X112588040Y-82519520D02*
X108981240Y-82519520D01*
X115556940Y-86034720D02*
X114655440Y-86034720D01*
X114655440Y-86034720D02*
X114086640Y-85465920D01*
X107751880Y-81290160D02*
X107751880Y-69184520D01*
X108493560Y-68442840D02*
X115991640Y-68442840D01*
X115991640Y-68442840D02*
X117312440Y-67122040D01*
X103806645Y-39317552D02*
X103806645Y-30554552D01*
X110096240Y-20613750D02*
X110096240Y-19536120D01*
X110087634Y-20622356D02*
X110096240Y-20613750D01*
X117312440Y-67122040D02*
X117312440Y-64776490D01*
X104348279Y-55927130D02*
X102948309Y-54527160D01*
X113538000Y-63022480D02*
X111612680Y-61097160D01*
X111612680Y-61097160D02*
X105235869Y-61097160D01*
X102948309Y-54527160D02*
X102948309Y-40175888D01*
X114086640Y-84018120D02*
X112588040Y-82519520D01*
X117312440Y-64776490D02*
X115558430Y-63022480D01*
X115558430Y-63022480D02*
X113538000Y-63022480D01*
X102948309Y-40175888D02*
X103806645Y-39317552D01*
X103806645Y-30554552D02*
X110087634Y-24273563D01*
%TO.N,Net-(D18-Pad2)*%
X139410440Y-82163920D02*
X139410440Y-83481820D01*
X139410440Y-83481820D02*
X139407540Y-83484720D01*
%TO.N,Net-(D19-Pad2)*%
X186070240Y-86431120D02*
X186070240Y-87593600D01*
X186070240Y-87593600D02*
X185916870Y-87746970D01*
%TO.N,Net-(D20-Pad2)*%
X219115640Y-90495120D02*
X219115640Y-91657568D01*
X219115640Y-91657568D02*
X218968062Y-91805146D01*
D17*
%TO.N,VDD*%
X101996240Y-34756120D02*
X102434360Y-34756120D01*
D16*
%TO.N,col4*%
X114696240Y-34967147D02*
X114696240Y-34756120D01*
%TO.N,col0*%
X106258360Y-79994760D02*
X100482400Y-79994760D01*
X107279440Y-78973680D02*
X106258360Y-79994760D01*
X100482400Y-79994760D02*
X100142040Y-80335120D01*
X107279440Y-65349120D02*
X107279440Y-78973680D01*
%TO.N,reset*%
X97507445Y-40562152D02*
X98828245Y-40562152D01*
X101038045Y-38352352D02*
X101038045Y-35857925D01*
X98828245Y-40562152D02*
X101038045Y-38352352D01*
X101038045Y-35857925D02*
X99936240Y-34756120D01*
X95697040Y-42372557D02*
X97507445Y-40562152D01*
X95697040Y-44343320D02*
X95697040Y-42372557D01*
D17*
%TO.N,Net-(U1-Pad5)*%
X104536240Y-19598640D02*
X104536240Y-19536120D01*
D16*
%TO.N,Net-(U1-Pad12)*%
X122363520Y-19536120D02*
X122316240Y-19536120D01*
%TD*%
M02*
