%TF.GenerationSoftware,KiCad,Pcbnew,(5.1.9-0-10_14)*%
%TF.CreationDate,2021-04-30T13:47:16+09:00*%
%TF.ProjectId,seiren-pad,73656972-656e-42d7-9061-642e6b696361,rev?*%
%TF.SameCoordinates,Original*%
%TF.FileFunction,Legend,Bot*%
%TF.FilePolarity,Positive*%
%FSLAX46Y46*%
G04 Gerber Fmt 4.6, Leading zero omitted, Abs format (unit mm)*
G04 Created by KiCad (PCBNEW (5.1.9-0-10_14)) date 2021-04-30 13:47:16*
%MOMM*%
%LPD*%
G01*
G04 APERTURE LIST*
%ADD10C,0.120000*%
%ADD11C,0.400000*%
%ADD12C,0.500000*%
%ADD13C,0.150000*%
%ADD14C,3.500000*%
%ADD15C,1.000000*%
%ADD16C,3.000000*%
%ADD17C,0.800000*%
%ADD18C,0.300000*%
G04 APERTURE END LIST*
D10*
%TO.C,LED6*%
X103044640Y-56375920D02*
X103044640Y-64175920D01*
X99344640Y-64175920D02*
X99344640Y-56375920D01*
X101444640Y-56375920D02*
X103044640Y-56375920D01*
D11*
%TO.C,SW14*%
X184913734Y-63262212D02*
X183673051Y-63109876D01*
D12*
X174664503Y-67142065D02*
X177096241Y-67440645D01*
D13*
X185086990Y-63081984D02*
X176948110Y-62082655D01*
X179884039Y-66070177D02*
X184648260Y-66655150D01*
X174441620Y-67316200D02*
X177449034Y-67685465D01*
X174632213Y-63712567D02*
X174540811Y-64456977D01*
X174983938Y-62899370D02*
X174441620Y-67316200D01*
X174540811Y-64456977D02*
X174739320Y-64481350D01*
X184750279Y-65660166D02*
X185024485Y-63426937D01*
X184648260Y-66655150D02*
X185086990Y-63081984D01*
D14*
X183081042Y-64649202D02*
X176430983Y-63832677D01*
D15*
X184517595Y-63616577D02*
X184212922Y-66097942D01*
D12*
X184480218Y-66382639D02*
X183196002Y-66174582D01*
D16*
X176398065Y-63526382D02*
X176125078Y-65749686D01*
D17*
X174849945Y-66862582D02*
X175069310Y-65076000D01*
D18*
X174652252Y-64369909D02*
X174731467Y-63724754D01*
D13*
X177455306Y-67664602D02*
G75*
G02*
X179884039Y-66070177I2099761J-551478D01*
G01*
X174632213Y-63712568D02*
G75*
G02*
X176948110Y-62082655I1972905J-342992D01*
G01*
D15*
X177107035Y-67218836D02*
G75*
G02*
X179535768Y-65624411I2099761J-551478D01*
G01*
D11*
%TO.C,SW13*%
X166005730Y-60940601D02*
X164765047Y-60788265D01*
D12*
X155756499Y-64820454D02*
X158188237Y-65119034D01*
D13*
X166178986Y-60760373D02*
X158040106Y-59761044D01*
X160976035Y-63748566D02*
X165740256Y-64333539D01*
X155533616Y-64994589D02*
X158541030Y-65363854D01*
X155724209Y-61390956D02*
X155632807Y-62135366D01*
X156075934Y-60577759D02*
X155533616Y-64994589D01*
X155632807Y-62135366D02*
X155831316Y-62159739D01*
X165842275Y-63338555D02*
X166116481Y-61105326D01*
X165740256Y-64333539D02*
X166178986Y-60760373D01*
D14*
X164173038Y-62327591D02*
X157522979Y-61511066D01*
D15*
X165609591Y-61294966D02*
X165304918Y-63776331D01*
D12*
X165572214Y-64061028D02*
X164287998Y-63852971D01*
D16*
X157490061Y-61204771D02*
X157217074Y-63428075D01*
D17*
X155941941Y-64540971D02*
X156161306Y-62754389D01*
D18*
X155744248Y-62048298D02*
X155823463Y-61403143D01*
D13*
X158547302Y-65342991D02*
G75*
G02*
X160976035Y-63748566I2099761J-551478D01*
G01*
X155724209Y-61390957D02*
G75*
G02*
X158040106Y-59761044I1972905J-342992D01*
G01*
D15*
X158199031Y-64897225D02*
G75*
G02*
X160627764Y-63302800I2099761J-551478D01*
G01*
D11*
%TO.C,SW8*%
X182470528Y-43769161D02*
X181229845Y-43616825D01*
D12*
X172221297Y-47649014D02*
X174653035Y-47947594D01*
D13*
X182643784Y-43588933D02*
X174504904Y-42589604D01*
X177440833Y-46577126D02*
X182205054Y-47162099D01*
X171998414Y-47823149D02*
X175005828Y-48192414D01*
X172189007Y-44219516D02*
X172097605Y-44963926D01*
X172540732Y-43406319D02*
X171998414Y-47823149D01*
X172097605Y-44963926D02*
X172296114Y-44988299D01*
X182307073Y-46167115D02*
X182581279Y-43933886D01*
X182205054Y-47162099D02*
X182643784Y-43588933D01*
D14*
X180637836Y-45156151D02*
X173987777Y-44339626D01*
D15*
X182074389Y-44123526D02*
X181769716Y-46604891D01*
D12*
X182037012Y-46889588D02*
X180752796Y-46681531D01*
D16*
X173954859Y-44033331D02*
X173681872Y-46256635D01*
D17*
X172406739Y-47369531D02*
X172626104Y-45582949D01*
D18*
X172209046Y-44876858D02*
X172288261Y-44231703D01*
D13*
X175012100Y-48171551D02*
G75*
G02*
X177440833Y-46577126I2099761J-551478D01*
G01*
X172189007Y-44219517D02*
G75*
G02*
X174504904Y-42589604I1972905J-342992D01*
G01*
D15*
X174663829Y-47725785D02*
G75*
G02*
X177092562Y-46131360I2099761J-551478D01*
G01*
D11*
%TO.C,SW9*%
X201378533Y-46090772D02*
X200137850Y-45938436D01*
D12*
X191129302Y-49970625D02*
X193561040Y-50269205D01*
D13*
X201551789Y-45910544D02*
X193412909Y-44911215D01*
X196348838Y-48898737D02*
X201113059Y-49483710D01*
X190906419Y-50144760D02*
X193913833Y-50514025D01*
X191097012Y-46541127D02*
X191005610Y-47285537D01*
X191448737Y-45727930D02*
X190906419Y-50144760D01*
X191005610Y-47285537D02*
X191204119Y-47309910D01*
X201215078Y-48488726D02*
X201489284Y-46255497D01*
X201113059Y-49483710D02*
X201551789Y-45910544D01*
D14*
X199545841Y-47477762D02*
X192895782Y-46661237D01*
D15*
X200982394Y-46445137D02*
X200677721Y-48926502D01*
D12*
X200945017Y-49211199D02*
X199660801Y-49003142D01*
D16*
X192862864Y-46354942D02*
X192589877Y-48578246D01*
D17*
X191314744Y-49691142D02*
X191534109Y-47904560D01*
D18*
X191117051Y-47198469D02*
X191196266Y-46553314D01*
D13*
X193920105Y-50493162D02*
G75*
G02*
X196348838Y-48898737I2099761J-551478D01*
G01*
X191097012Y-46541128D02*
G75*
G02*
X193412909Y-44911215I1972905J-342992D01*
G01*
D15*
X193571834Y-50047396D02*
G75*
G02*
X196000567Y-48452971I2099761J-551478D01*
G01*
D11*
%TO.C,SW5*%
X116279240Y-40254720D02*
X115029240Y-40254720D01*
D12*
X106579240Y-45354720D02*
X109029240Y-45354720D01*
D13*
X116429240Y-40054720D02*
X108229239Y-40054720D01*
X111629240Y-43654720D02*
X116429240Y-43654720D01*
X106379240Y-45554720D02*
X109409240Y-45554720D01*
X106129240Y-41954720D02*
X106129240Y-42704720D01*
X106379240Y-41104720D02*
X106379240Y-45554720D01*
X106129240Y-42704720D02*
X106329240Y-42704720D01*
X116409240Y-42654720D02*
X116409240Y-40404720D01*
X116429240Y-43654720D02*
X116429240Y-40054720D01*
D14*
X114629240Y-41854720D02*
X107929240Y-41854720D01*
D15*
X115929240Y-40654720D02*
X115929240Y-43154720D01*
D12*
X116229240Y-43404720D02*
X114929240Y-43354720D01*
D16*
X107859240Y-41554720D02*
X107859240Y-43794720D01*
D17*
X106729240Y-45054720D02*
X106729240Y-43254721D01*
D18*
X106229240Y-42604720D02*
X106229240Y-41954720D01*
D13*
X109412922Y-45533249D02*
G75*
G02*
X111629240Y-43654720I2151318J-291471D01*
G01*
X106129240Y-41954721D02*
G75*
G02*
X108229239Y-40054720I2000000J-99999D01*
G01*
D15*
X109012922Y-45133249D02*
G75*
G02*
X111229240Y-43254720I2151318J-291471D01*
G01*
D11*
%TO.C,SW4*%
X217843331Y-28919333D02*
X216602648Y-28766997D01*
D12*
X207594100Y-32799186D02*
X210025838Y-33097766D01*
D13*
X218016587Y-28739105D02*
X209877707Y-27739776D01*
X212813636Y-31727298D02*
X217577857Y-32312271D01*
X207371217Y-32973321D02*
X210378631Y-33342586D01*
X207561810Y-29369688D02*
X207470408Y-30114098D01*
X207913535Y-28556491D02*
X207371217Y-32973321D01*
X207470408Y-30114098D02*
X207668917Y-30138471D01*
X217679876Y-31317287D02*
X217954082Y-29084058D01*
X217577857Y-32312271D02*
X218016587Y-28739105D01*
D14*
X216010639Y-30306323D02*
X209360580Y-29489798D01*
D15*
X217447192Y-29273698D02*
X217142519Y-31755063D01*
D12*
X217409815Y-32039760D02*
X216125599Y-31831703D01*
D16*
X209327662Y-29183503D02*
X209054675Y-31406807D01*
D17*
X207779542Y-32519703D02*
X207998907Y-30733121D01*
D18*
X207581849Y-30027030D02*
X207661064Y-29381875D01*
D13*
X210384903Y-33321723D02*
G75*
G02*
X212813636Y-31727298I2099761J-551478D01*
G01*
X207561810Y-29369689D02*
G75*
G02*
X209877707Y-27739776I1972905J-342992D01*
G01*
D15*
X210036632Y-32875957D02*
G75*
G02*
X212465365Y-31281532I2099761J-551478D01*
G01*
D11*
%TO.C,SW10*%
X220286537Y-48412383D02*
X219045854Y-48260047D01*
D12*
X210037306Y-52292236D02*
X212469044Y-52590816D01*
D13*
X220459793Y-48232155D02*
X212320913Y-47232826D01*
X215256842Y-51220348D02*
X220021063Y-51805321D01*
X209814423Y-52466371D02*
X212821837Y-52835636D01*
X210005016Y-48862738D02*
X209913614Y-49607148D01*
X210356741Y-48049541D02*
X209814423Y-52466371D01*
X209913614Y-49607148D02*
X210112123Y-49631521D01*
X220123082Y-50810337D02*
X220397288Y-48577108D01*
X220021063Y-51805321D02*
X220459793Y-48232155D01*
D14*
X218453845Y-49799373D02*
X211803786Y-48982848D01*
D15*
X219890398Y-48766748D02*
X219585725Y-51248113D01*
D12*
X219853021Y-51532810D02*
X218568805Y-51324753D01*
D16*
X211770868Y-48676553D02*
X211497881Y-50899857D01*
D17*
X210222748Y-52012753D02*
X210442113Y-50226171D01*
D18*
X210025055Y-49520080D02*
X210104270Y-48874925D01*
D13*
X212828109Y-52814773D02*
G75*
G02*
X215256842Y-51220348I2099761J-551478D01*
G01*
X210005016Y-48862739D02*
G75*
G02*
X212320913Y-47232826I1972905J-342992D01*
G01*
D15*
X212479838Y-52369007D02*
G75*
G02*
X214908571Y-50774582I2099761J-551478D01*
G01*
D11*
%TO.C,SW12*%
X144816140Y-59304720D02*
X143566140Y-59304720D01*
D12*
X135116140Y-64404720D02*
X137566140Y-64404720D01*
D13*
X144966140Y-59104720D02*
X136766139Y-59104720D01*
X140166140Y-62704720D02*
X144966140Y-62704720D01*
X134916140Y-64604720D02*
X137946140Y-64604720D01*
X134666140Y-61004720D02*
X134666140Y-61754720D01*
X134916140Y-60154720D02*
X134916140Y-64604720D01*
X134666140Y-61754720D02*
X134866140Y-61754720D01*
X144946140Y-61704720D02*
X144946140Y-59454720D01*
X144966140Y-62704720D02*
X144966140Y-59104720D01*
D14*
X143166140Y-60904720D02*
X136466140Y-60904720D01*
D15*
X144466140Y-59704720D02*
X144466140Y-62204720D01*
D12*
X144766140Y-62454720D02*
X143466140Y-62404720D01*
D16*
X136396140Y-60604720D02*
X136396140Y-62844720D01*
D17*
X135266140Y-64104720D02*
X135266140Y-62304721D01*
D18*
X134766140Y-61654720D02*
X134766140Y-61004720D01*
D13*
X137949822Y-64583249D02*
G75*
G02*
X140166140Y-62704720I2151318J-291471D01*
G01*
X134666140Y-61004721D02*
G75*
G02*
X136766139Y-59104720I2000000J-99999D01*
G01*
D15*
X137549822Y-64183249D02*
G75*
G02*
X139766140Y-62304720I2151318J-291471D01*
G01*
D11*
%TO.C,SW6*%
X140129840Y-40254720D02*
X138879840Y-40254720D01*
D12*
X130429840Y-45354720D02*
X132879840Y-45354720D01*
D13*
X140279840Y-40054720D02*
X132079839Y-40054720D01*
X135479840Y-43654720D02*
X140279840Y-43654720D01*
X130229840Y-45554720D02*
X133259840Y-45554720D01*
X129979840Y-41954720D02*
X129979840Y-42704720D01*
X130229840Y-41104720D02*
X130229840Y-45554720D01*
X129979840Y-42704720D02*
X130179840Y-42704720D01*
X140259840Y-42654720D02*
X140259840Y-40404720D01*
X140279840Y-43654720D02*
X140279840Y-40054720D01*
D14*
X138479840Y-41854720D02*
X131779840Y-41854720D01*
D15*
X139779840Y-40654720D02*
X139779840Y-43154720D01*
D12*
X140079840Y-43404720D02*
X138779840Y-43354720D01*
D16*
X131709840Y-41554720D02*
X131709840Y-43794720D01*
D17*
X130579840Y-45054720D02*
X130579840Y-43254721D01*
D18*
X130079840Y-42604720D02*
X130079840Y-41954720D01*
D13*
X133263522Y-45533249D02*
G75*
G02*
X135479840Y-43654720I2151318J-291471D01*
G01*
X129979840Y-41954721D02*
G75*
G02*
X132079839Y-40054720I2000000J-99999D01*
G01*
D15*
X132863522Y-45133249D02*
G75*
G02*
X135079840Y-43254720I2151318J-291471D01*
G01*
D11*
%TO.C,SW7*%
X163562524Y-41447550D02*
X162321841Y-41295214D01*
D12*
X153313293Y-45327403D02*
X155745031Y-45625983D01*
D13*
X163735780Y-41267322D02*
X155596900Y-40267993D01*
X158532829Y-44255515D02*
X163297050Y-44840488D01*
X153090410Y-45501538D02*
X156097824Y-45870803D01*
X153281003Y-41897905D02*
X153189601Y-42642315D01*
X153632728Y-41084708D02*
X153090410Y-45501538D01*
X153189601Y-42642315D02*
X153388110Y-42666688D01*
X163399069Y-43845504D02*
X163673275Y-41612275D01*
X163297050Y-44840488D02*
X163735780Y-41267322D01*
D14*
X161729832Y-42834540D02*
X155079773Y-42018015D01*
D15*
X163166385Y-41801915D02*
X162861712Y-44283280D01*
D12*
X163129008Y-44567977D02*
X161844792Y-44359920D01*
D16*
X155046855Y-41711720D02*
X154773868Y-43935024D01*
D17*
X153498735Y-45047920D02*
X153718100Y-43261338D01*
D18*
X153301042Y-42555247D02*
X153380257Y-41910092D01*
D13*
X156104096Y-45849940D02*
G75*
G02*
X158532829Y-44255515I2099761J-551478D01*
G01*
X153281003Y-41897906D02*
G75*
G02*
X155596900Y-40267993I1972905J-342992D01*
G01*
D15*
X155755825Y-45404174D02*
G75*
G02*
X158184558Y-43809749I2099761J-551478D01*
G01*
D11*
%TO.C,SW11*%
X118622390Y-59304720D02*
X117372390Y-59304720D01*
D12*
X108922390Y-64404720D02*
X111372390Y-64404720D01*
D13*
X118772390Y-59104720D02*
X110572389Y-59104720D01*
X113972390Y-62704720D02*
X118772390Y-62704720D01*
X108722390Y-64604720D02*
X111752390Y-64604720D01*
X108472390Y-61004720D02*
X108472390Y-61754720D01*
X108722390Y-60154720D02*
X108722390Y-64604720D01*
X108472390Y-61754720D02*
X108672390Y-61754720D01*
X118752390Y-61704720D02*
X118752390Y-59454720D01*
X118772390Y-62704720D02*
X118772390Y-59104720D01*
D14*
X116972390Y-60904720D02*
X110272390Y-60904720D01*
D15*
X118272390Y-59704720D02*
X118272390Y-62204720D01*
D12*
X118572390Y-62454720D02*
X117272390Y-62404720D01*
D16*
X110202390Y-60604720D02*
X110202390Y-62844720D01*
D17*
X109072390Y-64104720D02*
X109072390Y-62304721D01*
D18*
X108572390Y-61654720D02*
X108572390Y-61004720D01*
D13*
X111756072Y-64583249D02*
G75*
G02*
X113972390Y-62704720I2151318J-291471D01*
G01*
X108472390Y-61004721D02*
G75*
G02*
X110572389Y-59104720I2000000J-99999D01*
G01*
D15*
X111356072Y-64183249D02*
G75*
G02*
X113572390Y-62304720I2151318J-291471D01*
G01*
D11*
%TO.C,SW15*%
X203821739Y-65583823D02*
X202581056Y-65431487D01*
D12*
X193572508Y-69463676D02*
X196004246Y-69762256D01*
D13*
X203994995Y-65403595D02*
X195856115Y-64404266D01*
X198792044Y-68391788D02*
X203556265Y-68976761D01*
X193349625Y-69637811D02*
X196357039Y-70007076D01*
X193540218Y-66034178D02*
X193448816Y-66778588D01*
X193891943Y-65220981D02*
X193349625Y-69637811D01*
X193448816Y-66778588D02*
X193647325Y-66802961D01*
X203658284Y-67981777D02*
X203932490Y-65748548D01*
X203556265Y-68976761D02*
X203994995Y-65403595D01*
D14*
X201989047Y-66970813D02*
X195338988Y-66154288D01*
D15*
X203425600Y-65938188D02*
X203120927Y-68419553D01*
D12*
X203388223Y-68704250D02*
X202104007Y-68496193D01*
D16*
X195306070Y-65847993D02*
X195033083Y-68071297D01*
D17*
X193757950Y-69184193D02*
X193977315Y-67397611D01*
D18*
X193560257Y-66691520D02*
X193639472Y-66046365D01*
D13*
X196363311Y-69986213D02*
G75*
G02*
X198792044Y-68391788I2099761J-551478D01*
G01*
X193540218Y-66034179D02*
G75*
G02*
X195856115Y-64404266I1972905J-342992D01*
G01*
D15*
X196015040Y-69540447D02*
G75*
G02*
X198443773Y-67946022I2099761J-551478D01*
G01*
D10*
%TO.C,LED1*%
X139112840Y-22191720D02*
X131312840Y-22191720D01*
X131312840Y-18491720D02*
X139112840Y-18491720D01*
X139112840Y-20591720D02*
X139112840Y-22191720D01*
%TO.C,LED4*%
X193105507Y-99164095D02*
X185363647Y-98213514D01*
X185814563Y-94541093D02*
X193556423Y-95491674D01*
X193300498Y-97576021D02*
X193105507Y-99164095D01*
%TO.C,LED5*%
X122990440Y-92802320D02*
X115190440Y-92802320D01*
X115190440Y-89102320D02*
X122990440Y-89102320D01*
X122990440Y-91202320D02*
X122990440Y-92802320D01*
%TO.C,LED2*%
X210264312Y-26385621D02*
X202522452Y-25435040D01*
X202973368Y-21762619D02*
X210715228Y-22713200D01*
X210459303Y-24797547D02*
X210264312Y-26385621D01*
%TO.C,LED3*%
X227432588Y-58146490D02*
X226482007Y-65888350D01*
X222809586Y-65437434D02*
X223760167Y-57695574D01*
X225844514Y-57951499D02*
X227432588Y-58146490D01*
D11*
%TO.C,SW20*%
X215681131Y-86233035D02*
X214440448Y-86080699D01*
D12*
X205431900Y-90112888D02*
X207863638Y-90411468D01*
D13*
X215854387Y-86052807D02*
X207715507Y-85053478D01*
X210651436Y-89041000D02*
X215415657Y-89625973D01*
X205209017Y-90287023D02*
X208216431Y-90656288D01*
X205399610Y-86683390D02*
X205308208Y-87427800D01*
X205751335Y-85870193D02*
X205209017Y-90287023D01*
X205308208Y-87427800D02*
X205506717Y-87452173D01*
X215517676Y-88630989D02*
X215791882Y-86397760D01*
X215415657Y-89625973D02*
X215854387Y-86052807D01*
D14*
X213848439Y-87620025D02*
X207198380Y-86803500D01*
D15*
X215284992Y-86587400D02*
X214980319Y-89068765D01*
D12*
X215247615Y-89353462D02*
X213963399Y-89145405D01*
D16*
X207165462Y-86497205D02*
X206892475Y-88720509D01*
D17*
X205617342Y-89833405D02*
X205836707Y-88046823D01*
D18*
X205419649Y-87340732D02*
X205498864Y-86695577D01*
D13*
X208222703Y-90635425D02*
G75*
G02*
X210651436Y-89041000I2099761J-551478D01*
G01*
X205399610Y-86683391D02*
G75*
G02*
X207715507Y-85053478I1972905J-342992D01*
G01*
D15*
X207874432Y-90189659D02*
G75*
G02*
X210303165Y-88595234I2099761J-551478D01*
G01*
D11*
%TO.C,SW18*%
X135329240Y-78354720D02*
X134079240Y-78354720D01*
D12*
X125629240Y-83454720D02*
X128079240Y-83454720D01*
D13*
X135479240Y-78154720D02*
X127279239Y-78154720D01*
X130679240Y-81754720D02*
X135479240Y-81754720D01*
X125429240Y-83654720D02*
X128459240Y-83654720D01*
X125179240Y-80054720D02*
X125179240Y-80804720D01*
X125429240Y-79204720D02*
X125429240Y-83654720D01*
X125179240Y-80804720D02*
X125379240Y-80804720D01*
X135459240Y-80754720D02*
X135459240Y-78504720D01*
X135479240Y-81754720D02*
X135479240Y-78154720D01*
D14*
X133679240Y-79954720D02*
X126979240Y-79954720D01*
D15*
X134979240Y-78754720D02*
X134979240Y-81254720D01*
D12*
X135279240Y-81504720D02*
X133979240Y-81454720D01*
D16*
X126909240Y-79654720D02*
X126909240Y-81894720D01*
D17*
X125779240Y-83154720D02*
X125779240Y-81354721D01*
D18*
X125279240Y-80704720D02*
X125279240Y-80054720D01*
D13*
X128462922Y-83633249D02*
G75*
G02*
X130679240Y-81754720I2151318J-291471D01*
G01*
X125179240Y-80054721D02*
G75*
G02*
X127279239Y-78154720I2000000J-99999D01*
G01*
D15*
X128062922Y-83233249D02*
G75*
G02*
X130279240Y-81354720I2151318J-291471D01*
G01*
D11*
%TO.C,SW19*%
X182592123Y-82170216D02*
X181351440Y-82017880D01*
D12*
X172342892Y-86050069D02*
X174774630Y-86348649D01*
D13*
X182765379Y-81989988D02*
X174626499Y-80990659D01*
X177562428Y-84978181D02*
X182326649Y-85563154D01*
X172120009Y-86224204D02*
X175127423Y-86593469D01*
X172310602Y-82620571D02*
X172219200Y-83364981D01*
X172662327Y-81807374D02*
X172120009Y-86224204D01*
X172219200Y-83364981D02*
X172417709Y-83389354D01*
X182428668Y-84568170D02*
X182702874Y-82334941D01*
X182326649Y-85563154D02*
X182765379Y-81989988D01*
D14*
X180759431Y-83557206D02*
X174109372Y-82740681D01*
D15*
X182195984Y-82524581D02*
X181891311Y-85005946D01*
D12*
X182158607Y-85290643D02*
X180874391Y-85082586D01*
D16*
X174076454Y-82434386D02*
X173803467Y-84657690D01*
D17*
X172528334Y-85770586D02*
X172747699Y-83984004D01*
D18*
X172330641Y-83277913D02*
X172409856Y-82632758D01*
D13*
X175133695Y-86572606D02*
G75*
G02*
X177562428Y-84978181I2099761J-551478D01*
G01*
X172310602Y-82620572D02*
G75*
G02*
X174626499Y-80990659I1972905J-342992D01*
G01*
D15*
X174785424Y-86126840D02*
G75*
G02*
X177214157Y-84532415I2099761J-551478D01*
G01*
D11*
%TO.C,SW16*%
X222729743Y-67905434D02*
X221489060Y-67753098D01*
D12*
X212480512Y-71785287D02*
X214912250Y-72083867D01*
D13*
X222902999Y-67725206D02*
X214764119Y-66725877D01*
X217700048Y-70713399D02*
X222464269Y-71298372D01*
X212257629Y-71959422D02*
X215265043Y-72328687D01*
X212448222Y-68355789D02*
X212356820Y-69100199D01*
X212799947Y-67542592D02*
X212257629Y-71959422D01*
X212356820Y-69100199D02*
X212555329Y-69124572D01*
X222566288Y-70303388D02*
X222840494Y-68070159D01*
X222464269Y-71298372D02*
X222902999Y-67725206D01*
D14*
X220897051Y-69292424D02*
X214246992Y-68475899D01*
D15*
X222333604Y-68259799D02*
X222028931Y-70741164D01*
D12*
X222296227Y-71025861D02*
X221012011Y-70817804D01*
D16*
X214214074Y-68169604D02*
X213941087Y-70392908D01*
D17*
X212665954Y-71505804D02*
X212885319Y-69719222D01*
D18*
X212468261Y-69013131D02*
X212547476Y-68367976D01*
D13*
X215271315Y-72307824D02*
G75*
G02*
X217700048Y-70713399I2099761J-551478D01*
G01*
X212448222Y-68355790D02*
G75*
G02*
X214764119Y-66725877I1972905J-342992D01*
G01*
D15*
X214923044Y-71862058D02*
G75*
G02*
X217351777Y-70267633I2099761J-551478D01*
G01*
D11*
%TO.C,SW17*%
X111478640Y-78354720D02*
X110228640Y-78354720D01*
D12*
X101778640Y-83454720D02*
X104228640Y-83454720D01*
D13*
X111628640Y-78154720D02*
X103428639Y-78154720D01*
X106828640Y-81754720D02*
X111628640Y-81754720D01*
X101578640Y-83654720D02*
X104608640Y-83654720D01*
X101328640Y-80054720D02*
X101328640Y-80804720D01*
X101578640Y-79204720D02*
X101578640Y-83654720D01*
X101328640Y-80804720D02*
X101528640Y-80804720D01*
X111608640Y-80754720D02*
X111608640Y-78504720D01*
X111628640Y-81754720D02*
X111628640Y-78154720D01*
D14*
X109828640Y-79954720D02*
X103128640Y-79954720D01*
D15*
X111128640Y-78754720D02*
X111128640Y-81254720D01*
D12*
X111428640Y-81504720D02*
X110128640Y-81454720D01*
D16*
X103058640Y-79654720D02*
X103058640Y-81894720D01*
D17*
X101928640Y-83154720D02*
X101928640Y-81354721D01*
D18*
X101428640Y-80704720D02*
X101428640Y-80054720D01*
D13*
X104612322Y-83633249D02*
G75*
G02*
X106828640Y-81754720I2151318J-291471D01*
G01*
X101328640Y-80054721D02*
G75*
G02*
X103428639Y-78154720I2000000J-99999D01*
G01*
D15*
X104212322Y-83233249D02*
G75*
G02*
X106428640Y-81354720I2151318J-291471D01*
G01*
D11*
%TO.C,SW1*%
X161119318Y-21954500D02*
X159878635Y-21802164D01*
D12*
X150870087Y-25834353D02*
X153301825Y-26132933D01*
D13*
X161292574Y-21774272D02*
X153153694Y-20774943D01*
X156089623Y-24762465D02*
X160853844Y-25347438D01*
X150647204Y-26008488D02*
X153654618Y-26377753D01*
X150837797Y-22404855D02*
X150746395Y-23149265D01*
X151189522Y-21591658D02*
X150647204Y-26008488D01*
X150746395Y-23149265D02*
X150944904Y-23173638D01*
X160955863Y-24352454D02*
X161230069Y-22119225D01*
X160853844Y-25347438D02*
X161292574Y-21774272D01*
D14*
X159286626Y-23341490D02*
X152636567Y-22524965D01*
D15*
X160723179Y-22308865D02*
X160418506Y-24790230D01*
D12*
X160685802Y-25074927D02*
X159401586Y-24866870D01*
D16*
X152603649Y-22218670D02*
X152330662Y-24441974D01*
D17*
X151055529Y-25554870D02*
X151274894Y-23768288D01*
D18*
X150857836Y-23062197D02*
X150937051Y-22417042D01*
D13*
X153660890Y-26356890D02*
G75*
G02*
X156089623Y-24762465I2099761J-551478D01*
G01*
X150837797Y-22404856D02*
G75*
G02*
X153153694Y-20774943I1972905J-342992D01*
G01*
D15*
X153312619Y-25911124D02*
G75*
G02*
X155741352Y-24316699I2099761J-551478D01*
G01*
D11*
%TO.C,SW2*%
X180027322Y-24276111D02*
X178786639Y-24123775D01*
D12*
X169778091Y-28155964D02*
X172209829Y-28454544D01*
D13*
X180200578Y-24095883D02*
X172061698Y-23096554D01*
X174997627Y-27084076D02*
X179761848Y-27669049D01*
X169555208Y-28330099D02*
X172562622Y-28699364D01*
X169745801Y-24726466D02*
X169654399Y-25470876D01*
X170097526Y-23913269D02*
X169555208Y-28330099D01*
X169654399Y-25470876D02*
X169852908Y-25495249D01*
X179863867Y-26674065D02*
X180138073Y-24440836D01*
X179761848Y-27669049D02*
X180200578Y-24095883D01*
D14*
X178194630Y-25663101D02*
X171544571Y-24846576D01*
D15*
X179631183Y-24630476D02*
X179326510Y-27111841D01*
D12*
X179593806Y-27396538D02*
X178309590Y-27188481D01*
D16*
X171511653Y-24540281D02*
X171238666Y-26763585D01*
D17*
X169963533Y-27876481D02*
X170182898Y-26089899D01*
D18*
X169765840Y-25383808D02*
X169845055Y-24738653D01*
D13*
X172568894Y-28678501D02*
G75*
G02*
X174997627Y-27084076I2099761J-551478D01*
G01*
X169745801Y-24726467D02*
G75*
G02*
X172061698Y-23096554I1972905J-342992D01*
G01*
D15*
X172220623Y-28232735D02*
G75*
G02*
X174649356Y-26638310I2099761J-551478D01*
G01*
D11*
%TO.C,SW3*%
X198935327Y-26597722D02*
X197694644Y-26445386D01*
D12*
X188686096Y-30477575D02*
X191117834Y-30776155D01*
D13*
X199108583Y-26417494D02*
X190969703Y-25418165D01*
X193905632Y-29405687D02*
X198669853Y-29990660D01*
X188463213Y-30651710D02*
X191470627Y-31020975D01*
X188653806Y-27048077D02*
X188562404Y-27792487D01*
X189005531Y-26234880D02*
X188463213Y-30651710D01*
X188562404Y-27792487D02*
X188760913Y-27816860D01*
X198771872Y-28995676D02*
X199046078Y-26762447D01*
X198669853Y-29990660D02*
X199108583Y-26417494D01*
D14*
X197102635Y-27984712D02*
X190452576Y-27168187D01*
D15*
X198539188Y-26952087D02*
X198234515Y-29433452D01*
D12*
X198501811Y-29718149D02*
X197217595Y-29510092D01*
D16*
X190419658Y-26861892D02*
X190146671Y-29085196D01*
D17*
X188871538Y-30198092D02*
X189090903Y-28411510D01*
D18*
X188673845Y-27705419D02*
X188753060Y-27060264D01*
D13*
X191476899Y-31000112D02*
G75*
G02*
X193905632Y-29405687I2099761J-551478D01*
G01*
X188653806Y-27048078D02*
G75*
G02*
X190969703Y-25418165I1972905J-342992D01*
G01*
D15*
X191128628Y-30554346D02*
G75*
G02*
X193557361Y-28959921I2099761J-551478D01*
G01*
%TO.C,LED6*%
D13*
X104314020Y-59156872D02*
X104314020Y-58680681D01*
X103314020Y-58680681D01*
X103790211Y-59490205D02*
X103790211Y-59823539D01*
X104314020Y-59966396D02*
X104314020Y-59490205D01*
X103314020Y-59490205D01*
X103314020Y-59966396D01*
X104314020Y-60394967D02*
X103314020Y-60394967D01*
X103314020Y-60633062D01*
X103361640Y-60775920D01*
X103456878Y-60871158D01*
X103552116Y-60918777D01*
X103742592Y-60966396D01*
X103885449Y-60966396D01*
X104075925Y-60918777D01*
X104171163Y-60871158D01*
X104266401Y-60775920D01*
X104314020Y-60633062D01*
X104314020Y-60394967D01*
X103314020Y-61823539D02*
X103314020Y-61633062D01*
X103361640Y-61537824D01*
X103409259Y-61490205D01*
X103552116Y-61394967D01*
X103742592Y-61347348D01*
X104123544Y-61347348D01*
X104218782Y-61394967D01*
X104266401Y-61442586D01*
X104314020Y-61537824D01*
X104314020Y-61728300D01*
X104266401Y-61823539D01*
X104218782Y-61871158D01*
X104123544Y-61918777D01*
X103885449Y-61918777D01*
X103790211Y-61871158D01*
X103742592Y-61823539D01*
X103694973Y-61728300D01*
X103694973Y-61537824D01*
X103742592Y-61442586D01*
X103790211Y-61394967D01*
X103885449Y-61347348D01*
%TO.C,LED1*%
X136331887Y-23384900D02*
X136808078Y-23384900D01*
X136808078Y-22384900D01*
X135998554Y-22861091D02*
X135665220Y-22861091D01*
X135522363Y-23384900D02*
X135998554Y-23384900D01*
X135998554Y-22384900D01*
X135522363Y-22384900D01*
X135093792Y-23384900D02*
X135093792Y-22384900D01*
X134855697Y-22384900D01*
X134712840Y-22432520D01*
X134617601Y-22527758D01*
X134569982Y-22622996D01*
X134522363Y-22813472D01*
X134522363Y-22956329D01*
X134569982Y-23146805D01*
X134617601Y-23242043D01*
X134712840Y-23337281D01*
X134855697Y-23384900D01*
X135093792Y-23384900D01*
X133569982Y-23384900D02*
X134141411Y-23384900D01*
X133855697Y-23384900D02*
X133855697Y-22384900D01*
X133950935Y-22527758D01*
X134046173Y-22622996D01*
X134141411Y-22670615D01*
%TO.C,LED4*%
X190148703Y-100047112D02*
X190621344Y-100105145D01*
X190743213Y-99112599D01*
X189881690Y-99486584D02*
X189550841Y-99445961D01*
X189345213Y-99948456D02*
X189817854Y-100006489D01*
X189939723Y-99013943D01*
X189467082Y-98955910D01*
X188919836Y-99896226D02*
X189041705Y-98903680D01*
X188805385Y-98874664D01*
X188657789Y-98904518D01*
X188551654Y-98987439D01*
X188492784Y-99076164D01*
X188422306Y-99259417D01*
X188404896Y-99401210D01*
X188428947Y-99596069D01*
X188464605Y-99696401D01*
X188547526Y-99802536D01*
X188683515Y-99867210D01*
X188919836Y-99896226D01*
X187583159Y-99060430D02*
X187501913Y-99722127D01*
X187865906Y-98711333D02*
X188015177Y-99449311D01*
X187400744Y-99373869D01*
%TO.C,LED5*%
X120216287Y-94006700D02*
X120692478Y-94006700D01*
X120692478Y-93006700D01*
X119882954Y-93482891D02*
X119549620Y-93482891D01*
X119406763Y-94006700D02*
X119882954Y-94006700D01*
X119882954Y-93006700D01*
X119406763Y-93006700D01*
X118978192Y-94006700D02*
X118978192Y-93006700D01*
X118740097Y-93006700D01*
X118597240Y-93054320D01*
X118502001Y-93149558D01*
X118454382Y-93244796D01*
X118406763Y-93435272D01*
X118406763Y-93578129D01*
X118454382Y-93768605D01*
X118502001Y-93863843D01*
X118597240Y-93959081D01*
X118740097Y-94006700D01*
X118978192Y-94006700D01*
X117502001Y-93006700D02*
X117978192Y-93006700D01*
X118025811Y-93482891D01*
X117978192Y-93435272D01*
X117882954Y-93387653D01*
X117644859Y-93387653D01*
X117549620Y-93435272D01*
X117502001Y-93482891D01*
X117454382Y-93578129D01*
X117454382Y-93816224D01*
X117502001Y-93911462D01*
X117549620Y-93959081D01*
X117644859Y-94006700D01*
X117882954Y-94006700D01*
X117978192Y-93959081D01*
X118025811Y-93911462D01*
%TO.C,LED2*%
X207338113Y-27265545D02*
X207810754Y-27323578D01*
X207932623Y-26331032D01*
X207071100Y-26705017D02*
X206740251Y-26664394D01*
X206534623Y-27166889D02*
X207007264Y-27224922D01*
X207129133Y-26232376D01*
X206656492Y-26174343D01*
X206109246Y-27114659D02*
X206231115Y-26122113D01*
X205994795Y-26093097D01*
X205847199Y-26122951D01*
X205741064Y-26205872D01*
X205682194Y-26294597D01*
X205611716Y-26477850D01*
X205594306Y-26619643D01*
X205618357Y-26814502D01*
X205654015Y-26914834D01*
X205736936Y-27020969D01*
X205872925Y-27085643D01*
X206109246Y-27114659D01*
X205274227Y-26100575D02*
X205232766Y-26047508D01*
X205144041Y-25988637D01*
X204907720Y-25959621D01*
X204807389Y-25995278D01*
X204754321Y-26036739D01*
X204695451Y-26125464D01*
X204683844Y-26219992D01*
X204713698Y-26367588D01*
X205211228Y-27004396D01*
X204596795Y-26928954D01*
%TO.C,LED3*%
X228286811Y-61071951D02*
X228344844Y-60599310D01*
X227352298Y-60477441D01*
X227726283Y-61338964D02*
X227685660Y-61669813D01*
X228188155Y-61875441D02*
X228246188Y-61402800D01*
X227253642Y-61280931D01*
X227195609Y-61753572D01*
X228135925Y-62300818D02*
X227143379Y-62178949D01*
X227114363Y-62415269D01*
X227144217Y-62562865D01*
X227227138Y-62669000D01*
X227315863Y-62727870D01*
X227499116Y-62798348D01*
X227640909Y-62815758D01*
X227835768Y-62791707D01*
X227936100Y-62756049D01*
X228042235Y-62673128D01*
X228106909Y-62537139D01*
X228135925Y-62300818D01*
X227033116Y-63076967D02*
X226957673Y-63691400D01*
X227376409Y-63406978D01*
X227358999Y-63548770D01*
X227394657Y-63649102D01*
X227436118Y-63702169D01*
X227524843Y-63761040D01*
X227761163Y-63790056D01*
X227861495Y-63754399D01*
X227914562Y-63712938D01*
X227973433Y-63624213D01*
X228008253Y-63340628D01*
X227972595Y-63240297D01*
X227931134Y-63187229D01*
%TD*%
M02*
