M48
; DRILL file {KiCad (5.1.9-0-10_14)} date Friday, April 30, 2021 at 01:30:32 PM
; FORMAT={-:-/ absolute / metric / decimal}
; #@! TF.CreationDate,2021-04-30T13:30:32+09:00
; #@! TF.GenerationSoftware,Kicad,Pcbnew,(5.1.9-0-10_14)
FMAT,2
METRIC
T1C0.400
T2C0.813
T3C0.990
T4C1.280
T5C1.300
T6C1.200
T7C1.900
T8C3.000
T9C3.048
T10C3.988
T11C4.100
T12C4.300
%
G90
G05
T1
X100.142Y-80.335
X107.279Y-65.349
X115.56Y-81.148
X120.36Y-44.064
X122.748Y-63.114
X139.41Y-82.164
X144.109Y-44.064
X148.91Y-63.114
X164.582Y-26.233
X167.046Y-45.715
X169.484Y-65.222
X183.505Y-28.519
X185.918Y-48.026
X186.07Y-86.431
X188.382Y-67.534
X202.384Y-30.834
X204.818Y-50.321
X207.235Y-69.798
X219.116Y-90.495
X221.325Y-33.193
X224.101Y-50.824
X226.177Y-72.182
T2
X94.856Y-19.536
X94.856Y-34.756
X97.396Y-19.536
X97.396Y-34.756
X99.936Y-19.536
X99.936Y-34.756
X102.476Y-19.536
X102.476Y-34.756
X105.016Y-19.536
X105.016Y-34.756
X107.556Y-19.536
X107.556Y-34.756
X110.096Y-19.536
X110.096Y-34.756
X112.636Y-19.536
X112.636Y-34.756
X115.176Y-19.536
X115.176Y-34.756
X117.716Y-19.536
X117.716Y-34.756
X120.256Y-19.536
X120.256Y-34.756
X122.796Y-19.536
X122.796Y-34.756
T3
X95.697Y-39.343
X95.697Y-44.343
T4
X100.543Y-72.939
X125.319Y-56.256
X131.79Y-28.179
X150.876Y-90.932
X171.552Y-58.598
X191.719Y-90.678
X209.474Y-63.246
X217.522Y-24.382
T5
X98.187Y-38.333
X98.187Y-45.343
T6
X94.487Y-41.843
T7
X102.149Y-84.755
X106.949Y-46.655
X109.292Y-65.705
X112.309Y-84.755
X117.109Y-46.655
X119.452Y-65.705
X125.999Y-84.755
X130.8Y-46.655
X135.486Y-65.705
X136.159Y-84.755
X140.96Y-46.655
X145.646Y-65.705
X151.079Y-27.17
X153.522Y-46.663
X155.965Y-66.156
X161.163Y-28.408
X163.606Y-47.901
X166.05Y-67.394
X169.987Y-29.491
X172.43Y-48.984
X172.552Y-87.385
X174.873Y-68.477
X180.071Y-30.73
X182.514Y-50.223
X182.636Y-88.624
X184.958Y-69.716
X188.895Y-31.813
X191.338Y-51.306
X193.781Y-70.799
X198.979Y-33.051
X201.422Y-52.544
X203.866Y-72.037
X205.641Y-91.448
X207.803Y-34.135
X210.246Y-53.628
X212.689Y-73.121
X215.725Y-92.686
X217.887Y-35.373
X220.33Y-54.866
X222.774Y-74.359
T8
X103.419Y-82.215
X108.219Y-44.115
X109.769Y-79.675
X110.562Y-63.165
X114.569Y-41.575
X116.912Y-60.625
X127.269Y-82.215
X132.07Y-44.115
X133.619Y-79.675
X136.756Y-63.165
X138.42Y-41.575
X143.106Y-60.625
X152.649Y-24.803
X155.092Y-44.297
X157.535Y-63.79
X159.261Y-23.056
X161.704Y-42.549
X164.148Y-62.042
X171.557Y-27.125
X174.0Y-46.618
X174.122Y-85.019
X176.443Y-66.111
X178.169Y-25.378
X180.612Y-44.871
X180.734Y-83.272
X183.056Y-64.364
X190.465Y-29.447
X192.908Y-48.94
X195.351Y-68.433
X197.077Y-27.699
X199.52Y-47.193
X201.964Y-66.686
X207.211Y-89.082
X209.373Y-31.768
X211.816Y-51.261
X213.823Y-87.335
X214.259Y-70.754
X215.985Y-30.021
X218.428Y-49.514
X220.872Y-69.007
T9
X197.992Y-97.555
X221.69Y-100.465
T10
X199.85Y-82.429
X223.548Y-85.338
T11
X107.229Y-84.755
X112.029Y-46.655
X114.372Y-65.705
X131.079Y-84.755
X135.88Y-46.655
X140.566Y-65.705
X156.121Y-27.789
X158.564Y-47.282
X161.007Y-66.775
X175.029Y-30.11
X177.472Y-49.604
X177.594Y-88.005
X179.915Y-69.097
X193.937Y-32.432
X196.38Y-51.925
X198.823Y-71.418
X210.683Y-92.067
X212.845Y-34.754
X215.288Y-54.247
X217.731Y-73.74
T12
X140.052Y-75.436
X145.39Y-36.855
X188.185Y-79.881
X206.829Y-43.966
T0
M30
