%TF.GenerationSoftware,KiCad,Pcbnew,(5.1.9-0-10_14)*%
%TF.CreationDate,2021-04-30T13:47:16+09:00*%
%TF.ProjectId,seiren-pad,73656972-656e-42d7-9061-642e6b696361,rev?*%
%TF.SameCoordinates,Original*%
%TF.FileFunction,Soldermask,Bot*%
%TF.FilePolarity,Negative*%
%FSLAX46Y46*%
G04 Gerber Fmt 4.6, Leading zero omitted, Abs format (unit mm)*
G04 Created by KiCad (PCBNEW (5.1.9-0-10_14)) date 2021-04-30 13:47:16*
%MOMM*%
%LPD*%
G01*
G04 APERTURE LIST*
%ADD10R,1.000000X1.700000*%
%ADD11C,3.987800*%
%ADD12C,3.048000*%
%ADD13C,4.300000*%
%ADD14C,3.000000*%
%ADD15C,0.100000*%
%ADD16C,1.900000*%
%ADD17C,4.100000*%
%ADD18C,2.100000*%
%ADD19R,2.550000X2.500000*%
%ADD20R,1.700000X1.000000*%
%ADD21C,1.200000*%
%ADD22C,1.750000*%
%ADD23C,1.524000*%
G04 APERTURE END LIST*
D10*
%TO.C,LED6*%
X101894640Y-63025920D03*
X100494640Y-63025920D03*
X101894640Y-57525920D03*
X100494640Y-57525920D03*
%TD*%
D11*
%TO.C,Ref\u002A\u002A*%
X199849675Y-82428662D03*
X223547707Y-85338415D03*
D12*
X197992387Y-97555066D03*
X221690419Y-100464818D03*
%TD*%
D13*
%TO.C,Ref\u002A\u002A*%
X140052445Y-75436352D03*
%TD*%
%TO.C,Ref\u002A\u002A*%
X145389600Y-36855400D03*
%TD*%
%TO.C,Ref\u002A\u002A*%
X188185445Y-79881352D03*
%TD*%
%TO.C,Ref\u002A\u002A*%
X206829045Y-43965752D03*
%TD*%
D14*
%TO.C,SW14*%
X183055612Y-64363977D03*
X176443396Y-66111174D03*
D15*
G36*
X187750833Y-63681090D02*
G01*
X187446160Y-66162455D01*
X184915167Y-65851688D01*
X185219840Y-63370323D01*
X187750833Y-63681090D01*
G37*
D16*
X174873315Y-68477467D03*
X184957583Y-69715659D03*
D17*
X179915449Y-69096563D03*
D15*
G36*
X174610641Y-64626752D02*
G01*
X174305968Y-67108117D01*
X171774975Y-66797350D01*
X172079648Y-64315985D01*
X174610641Y-64626752D01*
G37*
%TD*%
D14*
%TO.C,SW13*%
X164147608Y-62042366D03*
X157535392Y-63789563D03*
D15*
G36*
X168842829Y-61359479D02*
G01*
X168538156Y-63840844D01*
X166007163Y-63530077D01*
X166311836Y-61048712D01*
X168842829Y-61359479D01*
G37*
D16*
X155965311Y-66155856D03*
X166049579Y-67394048D03*
D17*
X161007445Y-66774952D03*
D15*
G36*
X155702637Y-62305141D02*
G01*
X155397964Y-64786506D01*
X152866971Y-64475739D01*
X153171644Y-61994374D01*
X155702637Y-62305141D01*
G37*
%TD*%
D18*
%TO.C,*%
X100543360Y-72938640D03*
%TD*%
D14*
%TO.C,SW8*%
X180612406Y-44870926D03*
X174000190Y-46618123D03*
D15*
G36*
X185307627Y-44188039D02*
G01*
X185002954Y-46669404D01*
X182471961Y-46358637D01*
X182776634Y-43877272D01*
X185307627Y-44188039D01*
G37*
D16*
X172430109Y-48984416D03*
X182514377Y-50222608D03*
D17*
X177472243Y-49603512D03*
D15*
G36*
X172167435Y-45133701D02*
G01*
X171862762Y-47615066D01*
X169331769Y-47304299D01*
X169636442Y-44822934D01*
X172167435Y-45133701D01*
G37*
%TD*%
D14*
%TO.C,SW9*%
X199520411Y-47192537D03*
X192908195Y-48939734D03*
D15*
G36*
X204215632Y-46509650D02*
G01*
X203910959Y-48991015D01*
X201379966Y-48680248D01*
X201684639Y-46198883D01*
X204215632Y-46509650D01*
G37*
D16*
X191338114Y-51306027D03*
X201422382Y-52544219D03*
D17*
X196380248Y-51925123D03*
D15*
G36*
X191075440Y-47455312D02*
G01*
X190770767Y-49936677D01*
X188239774Y-49625910D01*
X188544447Y-47144545D01*
X191075440Y-47455312D01*
G37*
%TD*%
D18*
%TO.C,*%
X191719200Y-90678000D03*
%TD*%
D14*
%TO.C,SW5*%
X114569240Y-41574720D03*
X108219240Y-44114720D03*
D19*
X117871240Y-41574720D03*
D16*
X106949240Y-46654720D03*
X117109240Y-46654720D03*
D17*
X112029240Y-46654720D03*
D19*
X104944240Y-44114720D03*
%TD*%
D14*
%TO.C,SW4*%
X215985209Y-30021098D03*
X209372993Y-31768295D03*
D15*
G36*
X220680430Y-29338211D02*
G01*
X220375757Y-31819576D01*
X217844764Y-31508809D01*
X218149437Y-29027444D01*
X220680430Y-29338211D01*
G37*
D16*
X207802912Y-34134588D03*
X217887180Y-35372780D03*
D17*
X212845046Y-34753684D03*
D15*
G36*
X207540238Y-30283873D02*
G01*
X207235565Y-32765238D01*
X204704572Y-32454471D01*
X205009245Y-29973106D01*
X207540238Y-30283873D01*
G37*
%TD*%
D14*
%TO.C,SW10*%
X218428415Y-49514148D03*
X211816199Y-51261345D03*
D15*
G36*
X223123636Y-48831261D02*
G01*
X222818963Y-51312626D01*
X220287970Y-51001859D01*
X220592643Y-48520494D01*
X223123636Y-48831261D01*
G37*
D16*
X210246118Y-53627638D03*
X220330386Y-54865830D03*
D17*
X215288252Y-54246734D03*
D15*
G36*
X209983444Y-49776923D02*
G01*
X209678771Y-52258288D01*
X207147778Y-51947521D01*
X207452451Y-49466156D01*
X209983444Y-49776923D01*
G37*
%TD*%
D14*
%TO.C,SW12*%
X143106140Y-60624720D03*
X136756140Y-63164720D03*
D19*
X146408140Y-60624720D03*
D16*
X135486140Y-65704720D03*
X145646140Y-65704720D03*
D17*
X140566140Y-65704720D03*
D19*
X133481140Y-63164720D03*
%TD*%
D14*
%TO.C,SW6*%
X138419840Y-41574720D03*
X132069840Y-44114720D03*
D19*
X141721840Y-41574720D03*
D16*
X130799840Y-46654720D03*
X140959840Y-46654720D03*
D17*
X135879840Y-46654720D03*
D19*
X128794840Y-44114720D03*
%TD*%
D18*
%TO.C,*%
X150876000Y-90932000D03*
%TD*%
D14*
%TO.C,SW7*%
X161704402Y-42549315D03*
X155092186Y-44296512D03*
D15*
G36*
X166399623Y-41866428D02*
G01*
X166094950Y-44347793D01*
X163563957Y-44037026D01*
X163868630Y-41555661D01*
X166399623Y-41866428D01*
G37*
D16*
X153522105Y-46662805D03*
X163606373Y-47900997D03*
D17*
X158564239Y-47281901D03*
D15*
G36*
X153259431Y-42812090D02*
G01*
X152954758Y-45293455D01*
X150423765Y-44982688D01*
X150728438Y-42501323D01*
X153259431Y-42812090D01*
G37*
%TD*%
D14*
%TO.C,SW11*%
X116912390Y-60624720D03*
X110562390Y-63164720D03*
D19*
X120214390Y-60624720D03*
D16*
X109292390Y-65704720D03*
X119452390Y-65704720D03*
D17*
X114372390Y-65704720D03*
D19*
X107287390Y-63164720D03*
%TD*%
D14*
%TO.C,SW15*%
X201963617Y-66685588D03*
X195351401Y-68432785D03*
D15*
G36*
X206658838Y-66002701D02*
G01*
X206354165Y-68484066D01*
X203823172Y-68173299D01*
X204127845Y-65691934D01*
X206658838Y-66002701D01*
G37*
D16*
X193781320Y-70799078D03*
X203865588Y-72037270D03*
D17*
X198823454Y-71418174D03*
D15*
G36*
X193518646Y-66948363D02*
G01*
X193213973Y-69429728D01*
X190682980Y-69118961D01*
X190987653Y-66637596D01*
X193518646Y-66948363D01*
G37*
%TD*%
D18*
%TO.C,*%
X217522445Y-24382352D03*
%TD*%
D20*
%TO.C,LED1*%
X132462840Y-21041720D03*
X132462840Y-19641720D03*
X137962840Y-21041720D03*
X137962840Y-19641720D03*
%TD*%
D18*
%TO.C,*%
X131790440Y-28178760D03*
%TD*%
D15*
%TO.C,LED4*%
G36*
X187549824Y-96819552D02*
G01*
X187427955Y-97812098D01*
X185740626Y-97604920D01*
X185862495Y-96612374D01*
X187549824Y-96819552D01*
G37*
G36*
X187720441Y-95429987D02*
G01*
X187598572Y-96422533D01*
X185911243Y-96215355D01*
X186033112Y-95222809D01*
X187720441Y-95429987D01*
G37*
G36*
X193008827Y-97489833D02*
G01*
X192886958Y-98482379D01*
X191199629Y-98275201D01*
X191321498Y-97282655D01*
X193008827Y-97489833D01*
G37*
G36*
X193179444Y-96100268D02*
G01*
X193057575Y-97092814D01*
X191370246Y-96885636D01*
X191492115Y-95893090D01*
X193179444Y-96100268D01*
G37*
%TD*%
D20*
%TO.C,LED5*%
X116340440Y-91652320D03*
X116340440Y-90252320D03*
X121840440Y-91652320D03*
X121840440Y-90252320D03*
%TD*%
D15*
%TO.C,LED2*%
G36*
X204708629Y-24041078D02*
G01*
X204586760Y-25033624D01*
X202899431Y-24826446D01*
X203021300Y-23833900D01*
X204708629Y-24041078D01*
G37*
G36*
X204879246Y-22651513D02*
G01*
X204757377Y-23644059D01*
X203070048Y-23436881D01*
X203191917Y-22444335D01*
X204879246Y-22651513D01*
G37*
G36*
X210167632Y-24711359D02*
G01*
X210045763Y-25703905D01*
X208358434Y-25496727D01*
X208480303Y-24504181D01*
X210167632Y-24711359D01*
G37*
G36*
X210338249Y-23321794D02*
G01*
X210216380Y-24314340D01*
X208529051Y-24107162D01*
X208650920Y-23114616D01*
X210338249Y-23321794D01*
G37*
%TD*%
%TO.C,LED3*%
G36*
X225088045Y-63702173D02*
G01*
X226080591Y-63824042D01*
X225873413Y-65511371D01*
X224880867Y-65389502D01*
X225088045Y-63702173D01*
G37*
G36*
X223698480Y-63531556D02*
G01*
X224691026Y-63653425D01*
X224483848Y-65340754D01*
X223491302Y-65218885D01*
X223698480Y-63531556D01*
G37*
G36*
X225758326Y-58243170D02*
G01*
X226750872Y-58365039D01*
X226543694Y-60052368D01*
X225551148Y-59930499D01*
X225758326Y-58243170D01*
G37*
G36*
X224368761Y-58072553D02*
G01*
X225361307Y-58194422D01*
X225154129Y-59881751D01*
X224161583Y-59759882D01*
X224368761Y-58072553D01*
G37*
%TD*%
D21*
%TO.C,SW21*%
X94487040Y-41843320D03*
D18*
X98187040Y-45343320D03*
D22*
X95697040Y-44343320D03*
X95697040Y-39343320D03*
D18*
X98187040Y-38333320D03*
%TD*%
D14*
%TO.C,SW20*%
X213823009Y-87334800D03*
X207210793Y-89081997D03*
D15*
G36*
X218518230Y-86651913D02*
G01*
X218213557Y-89133278D01*
X215682564Y-88822511D01*
X215987237Y-86341146D01*
X218518230Y-86651913D01*
G37*
D16*
X205640712Y-91448290D03*
X215724980Y-92686482D03*
D17*
X210682846Y-92067386D03*
D15*
G36*
X205378038Y-87597575D02*
G01*
X205073365Y-90078940D01*
X202542372Y-89768173D01*
X202847045Y-87286808D01*
X205378038Y-87597575D01*
G37*
%TD*%
D23*
%TO.C,U1*%
X94856240Y-34756120D03*
X97396240Y-34756120D03*
X99936240Y-34756120D03*
X102476240Y-34756120D03*
X105016240Y-34756120D03*
X107556240Y-34756120D03*
X110096240Y-34756120D03*
X112636240Y-34756120D03*
X115176240Y-34756120D03*
X117716240Y-34756120D03*
X120256240Y-34756120D03*
X122796240Y-34756120D03*
X122796240Y-19536120D03*
X120256240Y-19536120D03*
X117716240Y-19536120D03*
X115176240Y-19536120D03*
X112636240Y-19536120D03*
X110096240Y-19536120D03*
X107556240Y-19536120D03*
X105016240Y-19536120D03*
X102476240Y-19536120D03*
X99936240Y-19536120D03*
X97396240Y-19536120D03*
X94856240Y-19536120D03*
%TD*%
D14*
%TO.C,SW18*%
X133619240Y-79674720D03*
X127269240Y-82214720D03*
D19*
X136921240Y-79674720D03*
D16*
X125999240Y-84754720D03*
X136159240Y-84754720D03*
D17*
X131079240Y-84754720D03*
D19*
X123994240Y-82214720D03*
%TD*%
D14*
%TO.C,SW19*%
X180734001Y-83271981D03*
X174121785Y-85019178D03*
D15*
G36*
X185429222Y-82589094D02*
G01*
X185124549Y-85070459D01*
X182593556Y-84759692D01*
X182898229Y-82278327D01*
X185429222Y-82589094D01*
G37*
D16*
X172551704Y-87385471D03*
X182635972Y-88623663D03*
D17*
X177593838Y-88004567D03*
D15*
G36*
X172289030Y-83534756D02*
G01*
X171984357Y-86016121D01*
X169453364Y-85705354D01*
X169758037Y-83223989D01*
X172289030Y-83534756D01*
G37*
%TD*%
D14*
%TO.C,SW16*%
X220871621Y-69007199D03*
X214259405Y-70754396D03*
D15*
G36*
X225566842Y-68324312D02*
G01*
X225262169Y-70805677D01*
X222731176Y-70494910D01*
X223035849Y-68013545D01*
X225566842Y-68324312D01*
G37*
D16*
X212689324Y-73120689D03*
X222773592Y-74358881D03*
D17*
X217731458Y-73739785D03*
D15*
G36*
X212426650Y-69269974D02*
G01*
X212121977Y-71751339D01*
X209590984Y-71440572D01*
X209895657Y-68959207D01*
X212426650Y-69269974D01*
G37*
%TD*%
D14*
%TO.C,SW17*%
X109768640Y-79674720D03*
X103418640Y-82214720D03*
D19*
X113070640Y-79674720D03*
D16*
X102148640Y-84754720D03*
X112308640Y-84754720D03*
D17*
X107228640Y-84754720D03*
D19*
X100143640Y-82214720D03*
%TD*%
D14*
%TO.C,SW1*%
X159261196Y-23056265D03*
X152648980Y-24803462D03*
D15*
G36*
X163956417Y-22373378D02*
G01*
X163651744Y-24854743D01*
X161120751Y-24543976D01*
X161425424Y-22062611D01*
X163956417Y-22373378D01*
G37*
D16*
X151078899Y-27169755D03*
X161163167Y-28407947D03*
D17*
X156121033Y-27788851D03*
D15*
G36*
X150816225Y-23319040D02*
G01*
X150511552Y-25800405D01*
X147980559Y-25489638D01*
X148285232Y-23008273D01*
X150816225Y-23319040D01*
G37*
%TD*%
D18*
%TO.C,*%
X125318520Y-56255920D03*
%TD*%
D14*
%TO.C,SW2*%
X178169200Y-25377876D03*
X171556984Y-27125073D03*
D15*
G36*
X182864421Y-24694989D02*
G01*
X182559748Y-27176354D01*
X180028755Y-26865587D01*
X180333428Y-24384222D01*
X182864421Y-24694989D01*
G37*
D16*
X169986903Y-29491366D03*
X180071171Y-30729558D03*
D17*
X175029037Y-30110462D03*
D15*
G36*
X169724229Y-25640651D02*
G01*
X169419556Y-28122016D01*
X166888563Y-27811249D01*
X167193236Y-25329884D01*
X169724229Y-25640651D01*
G37*
%TD*%
D18*
%TO.C,*%
X171551600Y-58597800D03*
%TD*%
D14*
%TO.C,SW3*%
X197077205Y-27699487D03*
X190464989Y-29446684D03*
D15*
G36*
X201772426Y-27016600D02*
G01*
X201467753Y-29497965D01*
X198936760Y-29187198D01*
X199241433Y-26705833D01*
X201772426Y-27016600D01*
G37*
D16*
X188894908Y-31812977D03*
X198979176Y-33051169D03*
D17*
X193937042Y-32432073D03*
D15*
G36*
X188632234Y-27962262D02*
G01*
X188327561Y-30443627D01*
X185796568Y-30132860D01*
X186101241Y-27651495D01*
X188632234Y-27962262D01*
G37*
%TD*%
D18*
%TO.C,*%
X209473800Y-63246000D03*
%TD*%
M02*
