%TF.GenerationSoftware,KiCad,Pcbnew,(5.1.9-0-10_14)*%
%TF.CreationDate,2021-04-30T13:47:16+09:00*%
%TF.ProjectId,seiren-pad,73656972-656e-42d7-9061-642e6b696361,rev?*%
%TF.SameCoordinates,Original*%
%TF.FileFunction,Legend,Top*%
%TF.FilePolarity,Positive*%
%FSLAX46Y46*%
G04 Gerber Fmt 4.6, Leading zero omitted, Abs format (unit mm)*
G04 Created by KiCad (PCBNEW (5.1.9-0-10_14)) date 2021-04-30 13:47:16*
%MOMM*%
%LPD*%
G01*
G04 APERTURE LIST*
%ADD10C,0.120000*%
%ADD11C,0.150000*%
%ADD12C,0.125000*%
G04 APERTURE END LIST*
D10*
X114782600Y-83820000D02*
X114808000Y-83794600D01*
D11*
%TO.C,D4*%
X220394552Y-36693194D02*
X221387098Y-36815064D01*
X220903012Y-36654874D02*
X220516422Y-35700648D01*
X221508968Y-35822518D02*
X220903012Y-36654874D01*
X220516422Y-35700648D02*
X221508968Y-35822518D01*
X220536398Y-33486579D02*
X222025217Y-33669383D01*
X219878303Y-38846329D02*
X221367122Y-39029133D01*
X220536398Y-33486579D02*
X219878303Y-38846329D01*
X221367122Y-39029133D02*
X222025217Y-33669383D01*
%TO.C,D5*%
X119857540Y-47659720D02*
X120857540Y-47659720D01*
X120357540Y-47559720D02*
X119857540Y-46659720D01*
X120857540Y-46659720D02*
X120357540Y-47559720D01*
X119857540Y-46659720D02*
X120857540Y-46659720D01*
X119607540Y-44459720D02*
X121107540Y-44459720D01*
X119607540Y-49859720D02*
X121107540Y-49859720D01*
X119607540Y-44459720D02*
X119607540Y-49859720D01*
X121107540Y-49859720D02*
X121107540Y-44459720D01*
%TO.C,D6*%
X143609440Y-47659720D02*
X144609440Y-47659720D01*
X144109440Y-47559720D02*
X143609440Y-46659720D01*
X144609440Y-46659720D02*
X144109440Y-47559720D01*
X143609440Y-46659720D02*
X144609440Y-46659720D01*
X143359440Y-44459720D02*
X144859440Y-44459720D01*
X143359440Y-49859720D02*
X144859440Y-49859720D01*
X143359440Y-44459720D02*
X143359440Y-49859720D01*
X144859440Y-49859720D02*
X144859440Y-44459720D01*
%TO.C,D7*%
X166113745Y-49221411D02*
X167106291Y-49343281D01*
X166622205Y-49183091D02*
X166235615Y-48228865D01*
X167228161Y-48350735D02*
X166622205Y-49183091D01*
X166235615Y-48228865D02*
X167228161Y-48350735D01*
X166255591Y-46014796D02*
X167744410Y-46197600D01*
X165597496Y-51374546D02*
X167086315Y-51557350D01*
X166255591Y-46014796D02*
X165597496Y-51374546D01*
X167086315Y-51557350D02*
X167744410Y-46197600D01*
%TO.C,D8*%
X185021749Y-51543022D02*
X186014295Y-51664892D01*
X185530209Y-51504702D02*
X185143619Y-50550476D01*
X186136165Y-50672346D02*
X185530209Y-51504702D01*
X185143619Y-50550476D02*
X186136165Y-50672346D01*
X185163595Y-48336407D02*
X186652414Y-48519211D01*
X184505500Y-53696157D02*
X185994319Y-53878961D01*
X185163595Y-48336407D02*
X184505500Y-53696157D01*
X185994319Y-53878961D02*
X186652414Y-48519211D01*
%TO.C,D9*%
X203929753Y-53864628D02*
X204922299Y-53986498D01*
X204438213Y-53826308D02*
X204051623Y-52872082D01*
X205044169Y-52993952D02*
X204438213Y-53826308D01*
X204051623Y-52872082D02*
X205044169Y-52993952D01*
X204071599Y-50658013D02*
X205560418Y-50840817D01*
X203413504Y-56017763D02*
X204902323Y-56200567D01*
X204071599Y-50658013D02*
X203413504Y-56017763D01*
X204902323Y-56200567D02*
X205560418Y-50840817D01*
%TO.C,D10*%
X223149719Y-54392459D02*
X224142265Y-54514329D01*
X223658179Y-54354139D02*
X223271589Y-53399913D01*
X224264135Y-53521783D02*
X223658179Y-54354139D01*
X223271589Y-53399913D02*
X224264135Y-53521783D01*
X223291565Y-51185844D02*
X224780384Y-51368648D01*
X222633470Y-56545594D02*
X224122289Y-56728398D01*
X223291565Y-51185844D02*
X222633470Y-56545594D01*
X224122289Y-56728398D02*
X224780384Y-51368648D01*
%TO.C,D11*%
X122238790Y-66709720D02*
X123238790Y-66709720D01*
X122738790Y-66609720D02*
X122238790Y-65709720D01*
X123238790Y-65709720D02*
X122738790Y-66609720D01*
X122238790Y-65709720D02*
X123238790Y-65709720D01*
X121988790Y-63509720D02*
X123488790Y-63509720D01*
X121988790Y-68909720D02*
X123488790Y-68909720D01*
X121988790Y-63509720D02*
X121988790Y-68909720D01*
X123488790Y-68909720D02*
X123488790Y-63509720D01*
%TO.C,D12*%
X148410040Y-66709720D02*
X149410040Y-66709720D01*
X148910040Y-66609720D02*
X148410040Y-65709720D01*
X149410040Y-65709720D02*
X148910040Y-66609720D01*
X148410040Y-65709720D02*
X149410040Y-65709720D01*
X148160040Y-63509720D02*
X149660040Y-63509720D01*
X148160040Y-68909720D02*
X149660040Y-68909720D01*
X148160040Y-63509720D02*
X148160040Y-68909720D01*
X149660040Y-68909720D02*
X149660040Y-63509720D01*
%TO.C,D13*%
X168556951Y-68714461D02*
X169549497Y-68836331D01*
X169065411Y-68676141D02*
X168678821Y-67721915D01*
X169671367Y-67843785D02*
X169065411Y-68676141D01*
X168678821Y-67721915D02*
X169671367Y-67843785D01*
X168698797Y-65507846D02*
X170187616Y-65690650D01*
X168040702Y-70867596D02*
X169529521Y-71050400D01*
X168698797Y-65507846D02*
X168040702Y-70867596D01*
X169529521Y-71050400D02*
X170187616Y-65690650D01*
%TO.C,D14*%
X187464955Y-71036072D02*
X188457501Y-71157942D01*
X187973415Y-70997752D02*
X187586825Y-70043526D01*
X188579371Y-70165396D02*
X187973415Y-70997752D01*
X187586825Y-70043526D02*
X188579371Y-70165396D01*
X187606801Y-67829457D02*
X189095620Y-68012261D01*
X186948706Y-73189207D02*
X188437525Y-73372011D01*
X187606801Y-67829457D02*
X186948706Y-73189207D01*
X188437525Y-73372011D02*
X189095620Y-68012261D01*
%TO.C,D15*%
X206372953Y-73357668D02*
X207365499Y-73479538D01*
X206881413Y-73319348D02*
X206494823Y-72365122D01*
X207487369Y-72486992D02*
X206881413Y-73319348D01*
X206494823Y-72365122D02*
X207487369Y-72486992D01*
X206514799Y-70151053D02*
X208003618Y-70333857D01*
X205856704Y-75510803D02*
X207345523Y-75693607D01*
X206514799Y-70151053D02*
X205856704Y-75510803D01*
X207345523Y-75693607D02*
X208003618Y-70333857D01*
%TO.C,D16*%
X225280964Y-75679294D02*
X226273510Y-75801164D01*
X225789424Y-75640974D02*
X225402834Y-74686748D01*
X226395380Y-74808618D02*
X225789424Y-75640974D01*
X225402834Y-74686748D02*
X226395380Y-74808618D01*
X225422810Y-72472679D02*
X226911629Y-72655483D01*
X224764715Y-77832429D02*
X226253534Y-78015233D01*
X225422810Y-72472679D02*
X224764715Y-77832429D01*
X226253534Y-78015233D02*
X226911629Y-72655483D01*
%TO.C,D17*%
X115056940Y-84759720D02*
X116056940Y-84759720D01*
X115556940Y-84659720D02*
X115056940Y-83759720D01*
X116056940Y-83759720D02*
X115556940Y-84659720D01*
X115056940Y-83759720D02*
X116056940Y-83759720D01*
X114806940Y-81559720D02*
X116306940Y-81559720D01*
X114806940Y-86959720D02*
X116306940Y-86959720D01*
X114806940Y-81559720D02*
X114806940Y-86959720D01*
X116306940Y-86959720D02*
X116306940Y-81559720D01*
%TO.C,D18*%
X138907540Y-85759720D02*
X139907540Y-85759720D01*
X139407540Y-85659720D02*
X138907540Y-84759720D01*
X139907540Y-84759720D02*
X139407540Y-85659720D01*
X138907540Y-84759720D02*
X139907540Y-84759720D01*
X138657540Y-82559720D02*
X140157540Y-82559720D01*
X138657540Y-87959720D02*
X140157540Y-87959720D01*
X138657540Y-82559720D02*
X138657540Y-87959720D01*
X140157540Y-87959720D02*
X140157540Y-82559720D01*
%TO.C,D19*%
X185143344Y-89944077D02*
X186135890Y-90065947D01*
X185651804Y-89905757D02*
X185265214Y-88951531D01*
X186257760Y-89073401D02*
X185651804Y-89905757D01*
X185265214Y-88951531D02*
X186257760Y-89073401D01*
X185285190Y-86737462D02*
X186774009Y-86920266D01*
X184627095Y-92097212D02*
X186115914Y-92280016D01*
X185285190Y-86737462D02*
X184627095Y-92097212D01*
X186115914Y-92280016D02*
X186774009Y-86920266D01*
%TO.C,D20*%
X218194536Y-94002253D02*
X219187082Y-94124123D01*
X218702996Y-93963933D02*
X218316406Y-93009707D01*
X219308952Y-93131577D02*
X218702996Y-93963933D01*
X218316406Y-93009707D02*
X219308952Y-93131577D01*
X218336382Y-90795638D02*
X219825201Y-90978442D01*
X217678287Y-96155388D02*
X219167106Y-96338192D01*
X218336382Y-90795638D02*
X217678287Y-96155388D01*
X219167106Y-96338192D02*
X219825201Y-90978442D01*
D10*
%TO.C,SW21*%
X96667040Y-45183320D02*
X96897040Y-45183320D01*
X92997040Y-45703320D02*
X92997040Y-37983320D01*
X92997040Y-37983320D02*
X96897040Y-37983320D01*
X92997040Y-45703320D02*
X96897040Y-45703320D01*
X96667040Y-38503320D02*
X96897040Y-38503320D01*
X96667040Y-39043320D02*
X96667040Y-38503320D01*
X96667040Y-45183320D02*
X96667040Y-44643320D01*
X96667040Y-43543320D02*
X96667040Y-40143320D01*
D11*
%TO.C,U1*%
X88934240Y-27297520D02*
X88934240Y-26997520D01*
X88784240Y-27397520D02*
X88784240Y-26897520D01*
X88634240Y-27497520D02*
X88634240Y-26797520D01*
X89134240Y-27147520D02*
X88484240Y-27647520D01*
X88484240Y-26647520D02*
X89134240Y-27147520D01*
X88484240Y-27647520D02*
X88484240Y-26647520D01*
X88134240Y-23397520D02*
X88134240Y-30897520D01*
X89434240Y-23397520D02*
X88134240Y-23397520D01*
X89434240Y-30897520D02*
X89434240Y-23397520D01*
X88134240Y-30897520D02*
X89434240Y-30897520D01*
X93734240Y-35897520D02*
X94584240Y-35897520D01*
X93734240Y-18397520D02*
X94584240Y-18397520D01*
X93734240Y-35897520D02*
X93734240Y-35047520D01*
X93734240Y-18397520D02*
X93734240Y-19197520D01*
X123034240Y-35897520D02*
X123934240Y-35897520D01*
X123084240Y-18397520D02*
X123934240Y-18397520D01*
X123934240Y-35897520D02*
X123934240Y-35047520D01*
X123934240Y-18397520D02*
X123934240Y-19257520D01*
%TO.C,D1*%
X163670539Y-29728361D02*
X164663085Y-29850231D01*
X164178999Y-29690041D02*
X163792409Y-28735815D01*
X164784955Y-28857685D02*
X164178999Y-29690041D01*
X163792409Y-28735815D02*
X164784955Y-28857685D01*
X163812385Y-26521746D02*
X165301204Y-26704550D01*
X163154290Y-31881496D02*
X164643109Y-32064300D01*
X163812385Y-26521746D02*
X163154290Y-31881496D01*
X164643109Y-32064300D02*
X165301204Y-26704550D01*
%TO.C,D2*%
X182578543Y-32049972D02*
X183571089Y-32171842D01*
X183087003Y-32011652D02*
X182700413Y-31057426D01*
X183692959Y-31179296D02*
X183087003Y-32011652D01*
X182700413Y-31057426D02*
X183692959Y-31179296D01*
X182720389Y-28843357D02*
X184209208Y-29026161D01*
X182062294Y-34203107D02*
X183551113Y-34385911D01*
X182720389Y-28843357D02*
X182062294Y-34203107D01*
X183551113Y-34385911D02*
X184209208Y-29026161D01*
%TO.C,D3*%
X201486547Y-34371583D02*
X202479093Y-34493453D01*
X201995007Y-34333263D02*
X201608417Y-33379037D01*
X202600963Y-33500907D02*
X201995007Y-34333263D01*
X201608417Y-33379037D02*
X202600963Y-33500907D01*
X201628393Y-31164968D02*
X203117212Y-31347772D01*
X200970298Y-36524718D02*
X202459117Y-36707522D01*
X201628393Y-31164968D02*
X200970298Y-36524718D01*
X202459117Y-36707522D02*
X203117212Y-31347772D01*
%TO.C,SW21*%
X97781801Y-43652843D02*
X97829420Y-43509986D01*
X97829420Y-43271891D01*
X97781801Y-43176653D01*
X97734182Y-43129034D01*
X97638944Y-43081415D01*
X97543706Y-43081415D01*
X97448468Y-43129034D01*
X97400849Y-43176653D01*
X97353230Y-43271891D01*
X97305611Y-43462367D01*
X97257992Y-43557605D01*
X97210373Y-43605224D01*
X97115135Y-43652843D01*
X97019897Y-43652843D01*
X96924659Y-43605224D01*
X96877040Y-43557605D01*
X96829420Y-43462367D01*
X96829420Y-43224272D01*
X96877040Y-43081415D01*
X96829420Y-42748081D02*
X97829420Y-42509986D01*
X97115135Y-42319510D01*
X97829420Y-42129034D01*
X96829420Y-41890939D01*
X96924659Y-41557605D02*
X96877040Y-41509986D01*
X96829420Y-41414748D01*
X96829420Y-41176653D01*
X96877040Y-41081415D01*
X96924659Y-41033796D01*
X97019897Y-40986177D01*
X97115135Y-40986177D01*
X97257992Y-41033796D01*
X97829420Y-41605224D01*
X97829420Y-40986177D01*
X97829420Y-40033796D02*
X97829420Y-40605224D01*
X97829420Y-40319510D02*
X96829420Y-40319510D01*
X96972278Y-40414748D01*
X97067516Y-40509986D01*
X97115135Y-40605224D01*
%TO.C,U1*%
D12*
X95173525Y-32605139D02*
X94816382Y-32828472D01*
X95173525Y-32987996D02*
X94423525Y-32987996D01*
X94423525Y-32732758D01*
X94459240Y-32668948D01*
X94494954Y-32637043D01*
X94566382Y-32605139D01*
X94673525Y-32605139D01*
X94744954Y-32637043D01*
X94780668Y-32668948D01*
X94816382Y-32732758D01*
X94816382Y-32987996D01*
X94959240Y-32349900D02*
X94959240Y-32030853D01*
X95173525Y-32413710D02*
X94423525Y-32190377D01*
X95173525Y-31967043D01*
X94423525Y-31807520D02*
X95173525Y-31647996D01*
X94637811Y-31520377D01*
X95173525Y-31392758D01*
X94423525Y-31233234D01*
X97009240Y-32652996D02*
X96973525Y-32716805D01*
X96973525Y-32812520D01*
X97009240Y-32908234D01*
X97080668Y-32972043D01*
X97152097Y-33003948D01*
X97294954Y-33035853D01*
X97402097Y-33035853D01*
X97544954Y-33003948D01*
X97616382Y-32972043D01*
X97687811Y-32908234D01*
X97723525Y-32812520D01*
X97723525Y-32748710D01*
X97687811Y-32652996D01*
X97652097Y-32621091D01*
X97402097Y-32621091D01*
X97402097Y-32748710D01*
X97723525Y-32333948D02*
X96973525Y-32333948D01*
X97723525Y-31951091D01*
X96973525Y-31951091D01*
X97723525Y-31632043D02*
X96973525Y-31632043D01*
X96973525Y-31472520D01*
X97009240Y-31376805D01*
X97080668Y-31312996D01*
X97152097Y-31281091D01*
X97294954Y-31249186D01*
X97402097Y-31249186D01*
X97544954Y-31281091D01*
X97616382Y-31312996D01*
X97687811Y-31376805D01*
X97723525Y-31472520D01*
X97723525Y-31632043D01*
X100273525Y-32509424D02*
X99916382Y-32732758D01*
X100273525Y-32892281D02*
X99523525Y-32892281D01*
X99523525Y-32637043D01*
X99559240Y-32573234D01*
X99594954Y-32541329D01*
X99666382Y-32509424D01*
X99773525Y-32509424D01*
X99844954Y-32541329D01*
X99880668Y-32573234D01*
X99916382Y-32637043D01*
X99916382Y-32892281D01*
X100237811Y-32254186D02*
X100273525Y-32158472D01*
X100273525Y-31998948D01*
X100237811Y-31935139D01*
X100202097Y-31903234D01*
X100130668Y-31871329D01*
X100059240Y-31871329D01*
X99987811Y-31903234D01*
X99952097Y-31935139D01*
X99916382Y-31998948D01*
X99880668Y-32126567D01*
X99844954Y-32190377D01*
X99809240Y-32222281D01*
X99737811Y-32254186D01*
X99666382Y-32254186D01*
X99594954Y-32222281D01*
X99559240Y-32190377D01*
X99523525Y-32126567D01*
X99523525Y-31967043D01*
X99559240Y-31871329D01*
X99523525Y-31679900D02*
X99523525Y-31297043D01*
X100273525Y-31488472D02*
X99523525Y-31488472D01*
X101973525Y-33035853D02*
X102723525Y-32812520D01*
X101973525Y-32589186D01*
X102652097Y-31982996D02*
X102687811Y-32014900D01*
X102723525Y-32110615D01*
X102723525Y-32174424D01*
X102687811Y-32270139D01*
X102616382Y-32333948D01*
X102544954Y-32365853D01*
X102402097Y-32397758D01*
X102294954Y-32397758D01*
X102152097Y-32365853D01*
X102080668Y-32333948D01*
X102009240Y-32270139D01*
X101973525Y-32174424D01*
X101973525Y-32110615D01*
X102009240Y-32014900D01*
X102044954Y-31982996D01*
X102652097Y-31312996D02*
X102687811Y-31344900D01*
X102723525Y-31440615D01*
X102723525Y-31504424D01*
X102687811Y-31600139D01*
X102616382Y-31663948D01*
X102544954Y-31695853D01*
X102402097Y-31727758D01*
X102294954Y-31727758D01*
X102152097Y-31695853D01*
X102080668Y-31663948D01*
X102009240Y-31600139D01*
X101973525Y-31504424D01*
X101973525Y-31440615D01*
X102009240Y-31344900D01*
X102044954Y-31312996D01*
X105209240Y-32978234D02*
X105209240Y-32659186D01*
X105423525Y-33042043D02*
X104673525Y-32818710D01*
X105423525Y-32595377D01*
X104673525Y-32435853D02*
X104673525Y-32021091D01*
X104959240Y-32244424D01*
X104959240Y-32148710D01*
X104994954Y-32084900D01*
X105030668Y-32052996D01*
X105102097Y-32021091D01*
X105280668Y-32021091D01*
X105352097Y-32052996D01*
X105387811Y-32084900D01*
X105423525Y-32148710D01*
X105423525Y-32340139D01*
X105387811Y-32403948D01*
X105352097Y-32435853D01*
X104637811Y-31255377D02*
X105602097Y-31829662D01*
X105030668Y-30808710D02*
X105030668Y-31032043D01*
X105423525Y-31032043D02*
X104673525Y-31032043D01*
X104673525Y-30712996D01*
X104923525Y-30170615D02*
X105423525Y-30170615D01*
X104637811Y-30330139D02*
X105173525Y-30489662D01*
X105173525Y-30074900D01*
X107709240Y-32978234D02*
X107709240Y-32659186D01*
X107923525Y-33042043D02*
X107173525Y-32818710D01*
X107923525Y-32595377D01*
X107244954Y-32403948D02*
X107209240Y-32372043D01*
X107173525Y-32308234D01*
X107173525Y-32148710D01*
X107209240Y-32084900D01*
X107244954Y-32052996D01*
X107316382Y-32021091D01*
X107387811Y-32021091D01*
X107494954Y-32052996D01*
X107923525Y-32435853D01*
X107923525Y-32021091D01*
X107137811Y-31255377D02*
X108102097Y-31829662D01*
X107530668Y-30808710D02*
X107530668Y-31032043D01*
X107923525Y-31032043D02*
X107173525Y-31032043D01*
X107173525Y-30712996D01*
X107173525Y-30138710D02*
X107173525Y-30457758D01*
X107530668Y-30489662D01*
X107494954Y-30457758D01*
X107459240Y-30393948D01*
X107459240Y-30234424D01*
X107494954Y-30170615D01*
X107530668Y-30138710D01*
X107602097Y-30106805D01*
X107780668Y-30106805D01*
X107852097Y-30138710D01*
X107887811Y-30170615D01*
X107923525Y-30234424D01*
X107923525Y-30393948D01*
X107887811Y-30457758D01*
X107852097Y-30489662D01*
X110209240Y-32978234D02*
X110209240Y-32659186D01*
X110423525Y-33042043D02*
X109673525Y-32818710D01*
X110423525Y-32595377D01*
X110423525Y-32021091D02*
X110423525Y-32403948D01*
X110423525Y-32212520D02*
X109673525Y-32212520D01*
X109780668Y-32276329D01*
X109852097Y-32340139D01*
X109887811Y-32403948D01*
X109637811Y-31255377D02*
X110602097Y-31829662D01*
X110030668Y-30808710D02*
X110030668Y-31032043D01*
X110423525Y-31032043D02*
X109673525Y-31032043D01*
X109673525Y-30712996D01*
X109673525Y-30170615D02*
X109673525Y-30298234D01*
X109709240Y-30362043D01*
X109744954Y-30393948D01*
X109852097Y-30457758D01*
X109994954Y-30489662D01*
X110280668Y-30489662D01*
X110352097Y-30457758D01*
X110387811Y-30425853D01*
X110423525Y-30362043D01*
X110423525Y-30234424D01*
X110387811Y-30170615D01*
X110352097Y-30138710D01*
X110280668Y-30106805D01*
X110102097Y-30106805D01*
X110030668Y-30138710D01*
X109994954Y-30170615D01*
X109959240Y-30234424D01*
X109959240Y-30362043D01*
X109994954Y-30425853D01*
X110030668Y-30457758D01*
X110102097Y-30489662D01*
X112759240Y-32978234D02*
X112759240Y-32659186D01*
X112973525Y-33042043D02*
X112223525Y-32818710D01*
X112973525Y-32595377D01*
X112223525Y-32244424D02*
X112223525Y-32180615D01*
X112259240Y-32116805D01*
X112294954Y-32084900D01*
X112366382Y-32052996D01*
X112509240Y-32021091D01*
X112687811Y-32021091D01*
X112830668Y-32052996D01*
X112902097Y-32084900D01*
X112937811Y-32116805D01*
X112973525Y-32180615D01*
X112973525Y-32244424D01*
X112937811Y-32308234D01*
X112902097Y-32340139D01*
X112830668Y-32372043D01*
X112687811Y-32403948D01*
X112509240Y-32403948D01*
X112366382Y-32372043D01*
X112294954Y-32340139D01*
X112259240Y-32308234D01*
X112223525Y-32244424D01*
X112187811Y-31255377D02*
X113152097Y-31829662D01*
X112580668Y-30808710D02*
X112580668Y-31032043D01*
X112973525Y-31032043D02*
X112223525Y-31032043D01*
X112223525Y-30712996D01*
X112223525Y-30521567D02*
X112223525Y-30074900D01*
X112973525Y-30362043D01*
X115523525Y-32675139D02*
X115523525Y-33057996D01*
X115523525Y-32866567D02*
X114773525Y-32866567D01*
X114880668Y-32930377D01*
X114952097Y-32994186D01*
X114987811Y-33057996D01*
X114773525Y-32068948D02*
X114773525Y-32387996D01*
X115130668Y-32419900D01*
X115094954Y-32387996D01*
X115059240Y-32324186D01*
X115059240Y-32164662D01*
X115094954Y-32100853D01*
X115130668Y-32068948D01*
X115202097Y-32037043D01*
X115380668Y-32037043D01*
X115452097Y-32068948D01*
X115487811Y-32100853D01*
X115523525Y-32164662D01*
X115523525Y-32324186D01*
X115487811Y-32387996D01*
X115452097Y-32419900D01*
X114737811Y-31271329D02*
X115702097Y-31845615D01*
X115130668Y-30824662D02*
X115166382Y-30728948D01*
X115202097Y-30697043D01*
X115273525Y-30665139D01*
X115380668Y-30665139D01*
X115452097Y-30697043D01*
X115487811Y-30728948D01*
X115523525Y-30792758D01*
X115523525Y-31047996D01*
X114773525Y-31047996D01*
X114773525Y-30824662D01*
X114809240Y-30760853D01*
X114844954Y-30728948D01*
X114916382Y-30697043D01*
X114987811Y-30697043D01*
X115059240Y-30728948D01*
X115094954Y-30760853D01*
X115130668Y-30824662D01*
X115130668Y-31047996D01*
X115523525Y-30027043D02*
X115523525Y-30409900D01*
X115523525Y-30218472D02*
X114773525Y-30218472D01*
X114880668Y-30282281D01*
X114952097Y-30346091D01*
X114987811Y-30409900D01*
X118073525Y-32675139D02*
X118073525Y-33057996D01*
X118073525Y-32866567D02*
X117323525Y-32866567D01*
X117430668Y-32930377D01*
X117502097Y-32994186D01*
X117537811Y-33057996D01*
X117573525Y-32100853D02*
X118073525Y-32100853D01*
X117287811Y-32260377D02*
X117823525Y-32419900D01*
X117823525Y-32005139D01*
X117287811Y-31271329D02*
X118252097Y-31845615D01*
X117680668Y-30824662D02*
X117716382Y-30728948D01*
X117752097Y-30697043D01*
X117823525Y-30665139D01*
X117930668Y-30665139D01*
X118002097Y-30697043D01*
X118037811Y-30728948D01*
X118073525Y-30792758D01*
X118073525Y-31047996D01*
X117323525Y-31047996D01*
X117323525Y-30824662D01*
X117359240Y-30760853D01*
X117394954Y-30728948D01*
X117466382Y-30697043D01*
X117537811Y-30697043D01*
X117609240Y-30728948D01*
X117644954Y-30760853D01*
X117680668Y-30824662D01*
X117680668Y-31047996D01*
X117323525Y-30441805D02*
X117323525Y-30027043D01*
X117609240Y-30250377D01*
X117609240Y-30154662D01*
X117644954Y-30090853D01*
X117680668Y-30058948D01*
X117752097Y-30027043D01*
X117930668Y-30027043D01*
X118002097Y-30058948D01*
X118037811Y-30090853D01*
X118073525Y-30154662D01*
X118073525Y-30346091D01*
X118037811Y-30409900D01*
X118002097Y-30441805D01*
X123123525Y-32675139D02*
X123123525Y-33057996D01*
X123123525Y-32866567D02*
X122373525Y-32866567D01*
X122480668Y-32930377D01*
X122552097Y-32994186D01*
X122587811Y-33057996D01*
X122373525Y-32260377D02*
X122373525Y-32196567D01*
X122409240Y-32132758D01*
X122444954Y-32100853D01*
X122516382Y-32068948D01*
X122659240Y-32037043D01*
X122837811Y-32037043D01*
X122980668Y-32068948D01*
X123052097Y-32100853D01*
X123087811Y-32132758D01*
X123123525Y-32196567D01*
X123123525Y-32260377D01*
X123087811Y-32324186D01*
X123052097Y-32356091D01*
X122980668Y-32387996D01*
X122837811Y-32419900D01*
X122659240Y-32419900D01*
X122516382Y-32387996D01*
X122444954Y-32356091D01*
X122409240Y-32324186D01*
X122373525Y-32260377D01*
X122337811Y-31271329D02*
X123302097Y-31845615D01*
X122730668Y-30824662D02*
X122766382Y-30728948D01*
X122802097Y-30697043D01*
X122873525Y-30665139D01*
X122980668Y-30665139D01*
X123052097Y-30697043D01*
X123087811Y-30728948D01*
X123123525Y-30792758D01*
X123123525Y-31047996D01*
X122373525Y-31047996D01*
X122373525Y-30824662D01*
X122409240Y-30760853D01*
X122444954Y-30728948D01*
X122516382Y-30697043D01*
X122587811Y-30697043D01*
X122659240Y-30728948D01*
X122694954Y-30760853D01*
X122730668Y-30824662D01*
X122730668Y-31047996D01*
X122373525Y-30090853D02*
X122373525Y-30218472D01*
X122409240Y-30282281D01*
X122444954Y-30314186D01*
X122552097Y-30377996D01*
X122694954Y-30409900D01*
X122980668Y-30409900D01*
X123052097Y-30377996D01*
X123087811Y-30346091D01*
X123123525Y-30282281D01*
X123123525Y-30154662D01*
X123087811Y-30090853D01*
X123052097Y-30058948D01*
X122980668Y-30027043D01*
X122802097Y-30027043D01*
X122730668Y-30058948D01*
X122694954Y-30090853D01*
X122659240Y-30154662D01*
X122659240Y-30282281D01*
X122694954Y-30346091D01*
X122730668Y-30377996D01*
X122802097Y-30409900D01*
X120623525Y-32675139D02*
X120623525Y-33057996D01*
X120623525Y-32866567D02*
X119873525Y-32866567D01*
X119980668Y-32930377D01*
X120052097Y-32994186D01*
X120087811Y-33057996D01*
X119873525Y-32100853D02*
X119873525Y-32228472D01*
X119909240Y-32292281D01*
X119944954Y-32324186D01*
X120052097Y-32387996D01*
X120194954Y-32419900D01*
X120480668Y-32419900D01*
X120552097Y-32387996D01*
X120587811Y-32356091D01*
X120623525Y-32292281D01*
X120623525Y-32164662D01*
X120587811Y-32100853D01*
X120552097Y-32068948D01*
X120480668Y-32037043D01*
X120302097Y-32037043D01*
X120230668Y-32068948D01*
X120194954Y-32100853D01*
X120159240Y-32164662D01*
X120159240Y-32292281D01*
X120194954Y-32356091D01*
X120230668Y-32387996D01*
X120302097Y-32419900D01*
X119837811Y-31271329D02*
X120802097Y-31845615D01*
X120230668Y-30824662D02*
X120266382Y-30728948D01*
X120302097Y-30697043D01*
X120373525Y-30665139D01*
X120480668Y-30665139D01*
X120552097Y-30697043D01*
X120587811Y-30728948D01*
X120623525Y-30792758D01*
X120623525Y-31047996D01*
X119873525Y-31047996D01*
X119873525Y-30824662D01*
X119909240Y-30760853D01*
X119944954Y-30728948D01*
X120016382Y-30697043D01*
X120087811Y-30697043D01*
X120159240Y-30728948D01*
X120194954Y-30760853D01*
X120230668Y-30824662D01*
X120230668Y-31047996D01*
X119944954Y-30409900D02*
X119909240Y-30377996D01*
X119873525Y-30314186D01*
X119873525Y-30154662D01*
X119909240Y-30090853D01*
X119944954Y-30058948D01*
X120016382Y-30027043D01*
X120087811Y-30027043D01*
X120194954Y-30058948D01*
X120623525Y-30441805D01*
X120623525Y-30027043D01*
X117530668Y-23575139D02*
X117530668Y-23351805D01*
X117923525Y-23256091D02*
X117923525Y-23575139D01*
X117173525Y-23575139D01*
X117173525Y-23256091D01*
X117173525Y-22681805D02*
X117173525Y-22809424D01*
X117209240Y-22873234D01*
X117244954Y-22905139D01*
X117352097Y-22968948D01*
X117494954Y-23000853D01*
X117780668Y-23000853D01*
X117852097Y-22968948D01*
X117887811Y-22937043D01*
X117923525Y-22873234D01*
X117923525Y-22745615D01*
X117887811Y-22681805D01*
X117852097Y-22649900D01*
X117780668Y-22617996D01*
X117602097Y-22617996D01*
X117530668Y-22649900D01*
X117494954Y-22681805D01*
X117459240Y-22745615D01*
X117459240Y-22873234D01*
X117494954Y-22937043D01*
X117530668Y-22968948D01*
X117602097Y-23000853D01*
X117137811Y-21852281D02*
X118102097Y-22426567D01*
X117173525Y-21692758D02*
X117173525Y-21246091D01*
X117923525Y-21533234D01*
X115373525Y-23607043D02*
X114623525Y-23607043D01*
X114623525Y-23447520D01*
X114659240Y-23351805D01*
X114730668Y-23287996D01*
X114802097Y-23256091D01*
X114944954Y-23224186D01*
X115052097Y-23224186D01*
X115194954Y-23256091D01*
X115266382Y-23287996D01*
X115337811Y-23351805D01*
X115373525Y-23447520D01*
X115373525Y-23607043D01*
X114623525Y-23000853D02*
X114623525Y-22554186D01*
X115373525Y-22841329D01*
X114587811Y-21820377D02*
X115552097Y-22394662D01*
X114623525Y-21309900D02*
X114623525Y-21437520D01*
X114659240Y-21501329D01*
X114694954Y-21533234D01*
X114802097Y-21597043D01*
X114944954Y-21628948D01*
X115230668Y-21628948D01*
X115302097Y-21597043D01*
X115337811Y-21565139D01*
X115373525Y-21501329D01*
X115373525Y-21373710D01*
X115337811Y-21309900D01*
X115302097Y-21277996D01*
X115230668Y-21246091D01*
X115052097Y-21246091D01*
X114980668Y-21277996D01*
X114944954Y-21309900D01*
X114909240Y-21373710D01*
X114909240Y-21501329D01*
X114944954Y-21565139D01*
X114980668Y-21597043D01*
X115052097Y-21628948D01*
X99609240Y-22702996D02*
X99573525Y-22766805D01*
X99573525Y-22862520D01*
X99609240Y-22958234D01*
X99680668Y-23022043D01*
X99752097Y-23053948D01*
X99894954Y-23085853D01*
X100002097Y-23085853D01*
X100144954Y-23053948D01*
X100216382Y-23022043D01*
X100287811Y-22958234D01*
X100323525Y-22862520D01*
X100323525Y-22798710D01*
X100287811Y-22702996D01*
X100252097Y-22671091D01*
X100002097Y-22671091D01*
X100002097Y-22798710D01*
X100323525Y-22383948D02*
X99573525Y-22383948D01*
X100323525Y-22001091D01*
X99573525Y-22001091D01*
X100323525Y-21682043D02*
X99573525Y-21682043D01*
X99573525Y-21522520D01*
X99609240Y-21426805D01*
X99680668Y-21362996D01*
X99752097Y-21331091D01*
X99894954Y-21299186D01*
X100002097Y-21299186D01*
X100144954Y-21331091D01*
X100216382Y-21362996D01*
X100287811Y-21426805D01*
X100323525Y-21522520D01*
X100323525Y-21682043D01*
X102059240Y-22702996D02*
X102023525Y-22766805D01*
X102023525Y-22862520D01*
X102059240Y-22958234D01*
X102130668Y-23022043D01*
X102202097Y-23053948D01*
X102344954Y-23085853D01*
X102452097Y-23085853D01*
X102594954Y-23053948D01*
X102666382Y-23022043D01*
X102737811Y-22958234D01*
X102773525Y-22862520D01*
X102773525Y-22798710D01*
X102737811Y-22702996D01*
X102702097Y-22671091D01*
X102452097Y-22671091D01*
X102452097Y-22798710D01*
X102773525Y-22383948D02*
X102023525Y-22383948D01*
X102773525Y-22001091D01*
X102023525Y-22001091D01*
X102773525Y-21682043D02*
X102023525Y-21682043D01*
X102023525Y-21522520D01*
X102059240Y-21426805D01*
X102130668Y-21362996D01*
X102202097Y-21331091D01*
X102344954Y-21299186D01*
X102452097Y-21299186D01*
X102594954Y-21331091D01*
X102666382Y-21362996D01*
X102737811Y-21426805D01*
X102773525Y-21522520D01*
X102773525Y-21682043D01*
X95223525Y-24731329D02*
X94473525Y-24731329D01*
X94473525Y-24571805D01*
X94509240Y-24476091D01*
X94580668Y-24412281D01*
X94652097Y-24380377D01*
X94794954Y-24348472D01*
X94902097Y-24348472D01*
X95044954Y-24380377D01*
X95116382Y-24412281D01*
X95187811Y-24476091D01*
X95223525Y-24571805D01*
X95223525Y-24731329D01*
X94473525Y-24125139D02*
X94473525Y-23710377D01*
X94759240Y-23933710D01*
X94759240Y-23837996D01*
X94794954Y-23774186D01*
X94830668Y-23742281D01*
X94902097Y-23710377D01*
X95080668Y-23710377D01*
X95152097Y-23742281D01*
X95187811Y-23774186D01*
X95223525Y-23837996D01*
X95223525Y-24029424D01*
X95187811Y-24093234D01*
X95152097Y-24125139D01*
X94437811Y-22944662D02*
X95402097Y-23518948D01*
X94473525Y-22817043D02*
X94473525Y-22434186D01*
X95223525Y-22625615D02*
X94473525Y-22625615D01*
X94473525Y-22274662D02*
X95223525Y-21827996D01*
X94473525Y-21827996D02*
X95223525Y-22274662D01*
X94473525Y-21445139D02*
X94473525Y-21381329D01*
X94509240Y-21317520D01*
X94544954Y-21285615D01*
X94616382Y-21253710D01*
X94759240Y-21221805D01*
X94937811Y-21221805D01*
X95080668Y-21253710D01*
X95152097Y-21285615D01*
X95187811Y-21317520D01*
X95223525Y-21381329D01*
X95223525Y-21445139D01*
X95187811Y-21508948D01*
X95152097Y-21540853D01*
X95080668Y-21572758D01*
X94937811Y-21604662D01*
X94759240Y-21604662D01*
X94616382Y-21572758D01*
X94544954Y-21540853D01*
X94509240Y-21508948D01*
X94473525Y-21445139D01*
X110273525Y-23607043D02*
X109523525Y-23607043D01*
X109523525Y-23447520D01*
X109559240Y-23351805D01*
X109630668Y-23287996D01*
X109702097Y-23256091D01*
X109844954Y-23224186D01*
X109952097Y-23224186D01*
X110094954Y-23256091D01*
X110166382Y-23287996D01*
X110237811Y-23351805D01*
X110273525Y-23447520D01*
X110273525Y-23607043D01*
X109773525Y-22649900D02*
X110273525Y-22649900D01*
X109487811Y-22809424D02*
X110023525Y-22968948D01*
X110023525Y-22554186D01*
X109487811Y-21820377D02*
X110452097Y-22394662D01*
X109773525Y-21309900D02*
X110273525Y-21309900D01*
X109487811Y-21469424D02*
X110023525Y-21628948D01*
X110023525Y-21214186D01*
X105237811Y-26181091D02*
X105273525Y-26085377D01*
X105273525Y-25925853D01*
X105237811Y-25862043D01*
X105202097Y-25830139D01*
X105130668Y-25798234D01*
X105059240Y-25798234D01*
X104987811Y-25830139D01*
X104952097Y-25862043D01*
X104916382Y-25925853D01*
X104880668Y-26053472D01*
X104844954Y-26117281D01*
X104809240Y-26149186D01*
X104737811Y-26181091D01*
X104666382Y-26181091D01*
X104594954Y-26149186D01*
X104559240Y-26117281D01*
X104523525Y-26053472D01*
X104523525Y-25893948D01*
X104559240Y-25798234D01*
X105273525Y-25511091D02*
X104523525Y-25511091D01*
X104523525Y-25351567D01*
X104559240Y-25255853D01*
X104630668Y-25192043D01*
X104702097Y-25160139D01*
X104844954Y-25128234D01*
X104952097Y-25128234D01*
X105094954Y-25160139D01*
X105166382Y-25192043D01*
X105237811Y-25255853D01*
X105273525Y-25351567D01*
X105273525Y-25511091D01*
X105059240Y-24872996D02*
X105059240Y-24553948D01*
X105273525Y-24936805D02*
X104523525Y-24713472D01*
X105273525Y-24490139D01*
X104487811Y-23788234D02*
X105452097Y-24362520D01*
X105273525Y-23564900D02*
X104523525Y-23564900D01*
X104523525Y-23405377D01*
X104559240Y-23309662D01*
X104630668Y-23245853D01*
X104702097Y-23213948D01*
X104844954Y-23182043D01*
X104952097Y-23182043D01*
X105094954Y-23213948D01*
X105166382Y-23245853D01*
X105237811Y-23309662D01*
X105273525Y-23405377D01*
X105273525Y-23564900D01*
X105273525Y-22543948D02*
X105273525Y-22926805D01*
X105273525Y-22735377D02*
X104523525Y-22735377D01*
X104630668Y-22799186D01*
X104702097Y-22862996D01*
X104737811Y-22926805D01*
X104487811Y-21778234D02*
X105452097Y-22352520D01*
X104594954Y-21586805D02*
X104559240Y-21554900D01*
X104523525Y-21491091D01*
X104523525Y-21331567D01*
X104559240Y-21267758D01*
X104594954Y-21235853D01*
X104666382Y-21203948D01*
X104737811Y-21203948D01*
X104844954Y-21235853D01*
X105273525Y-21618710D01*
X105273525Y-21203948D01*
X107737811Y-26165139D02*
X107773525Y-26069424D01*
X107773525Y-25909900D01*
X107737811Y-25846091D01*
X107702097Y-25814186D01*
X107630668Y-25782281D01*
X107559240Y-25782281D01*
X107487811Y-25814186D01*
X107452097Y-25846091D01*
X107416382Y-25909900D01*
X107380668Y-26037520D01*
X107344954Y-26101329D01*
X107309240Y-26133234D01*
X107237811Y-26165139D01*
X107166382Y-26165139D01*
X107094954Y-26133234D01*
X107059240Y-26101329D01*
X107023525Y-26037520D01*
X107023525Y-25877996D01*
X107059240Y-25782281D01*
X107702097Y-25112281D02*
X107737811Y-25144186D01*
X107773525Y-25239900D01*
X107773525Y-25303710D01*
X107737811Y-25399424D01*
X107666382Y-25463234D01*
X107594954Y-25495139D01*
X107452097Y-25527043D01*
X107344954Y-25527043D01*
X107202097Y-25495139D01*
X107130668Y-25463234D01*
X107059240Y-25399424D01*
X107023525Y-25303710D01*
X107023525Y-25239900D01*
X107059240Y-25144186D01*
X107094954Y-25112281D01*
X107773525Y-24506091D02*
X107773525Y-24825139D01*
X107023525Y-24825139D01*
X106987811Y-23804186D02*
X107952097Y-24378472D01*
X107773525Y-23580853D02*
X107023525Y-23580853D01*
X107023525Y-23421329D01*
X107059240Y-23325615D01*
X107130668Y-23261805D01*
X107202097Y-23229900D01*
X107344954Y-23197996D01*
X107452097Y-23197996D01*
X107594954Y-23229900D01*
X107666382Y-23261805D01*
X107737811Y-23325615D01*
X107773525Y-23421329D01*
X107773525Y-23580853D01*
X107023525Y-22783234D02*
X107023525Y-22719424D01*
X107059240Y-22655615D01*
X107094954Y-22623710D01*
X107166382Y-22591805D01*
X107309240Y-22559900D01*
X107487811Y-22559900D01*
X107630668Y-22591805D01*
X107702097Y-22623710D01*
X107737811Y-22655615D01*
X107773525Y-22719424D01*
X107773525Y-22783234D01*
X107737811Y-22847043D01*
X107702097Y-22878948D01*
X107630668Y-22910853D01*
X107487811Y-22942758D01*
X107309240Y-22942758D01*
X107166382Y-22910853D01*
X107094954Y-22878948D01*
X107059240Y-22847043D01*
X107023525Y-22783234D01*
X106987811Y-21794186D02*
X107952097Y-22368472D01*
X107023525Y-21634662D02*
X107023525Y-21219900D01*
X107309240Y-21443234D01*
X107309240Y-21347520D01*
X107344954Y-21283710D01*
X107380668Y-21251805D01*
X107452097Y-21219900D01*
X107630668Y-21219900D01*
X107702097Y-21251805D01*
X107737811Y-21283710D01*
X107773525Y-21347520D01*
X107773525Y-21538948D01*
X107737811Y-21602758D01*
X107702097Y-21634662D01*
X112752097Y-23224186D02*
X112787811Y-23256091D01*
X112823525Y-23351805D01*
X112823525Y-23415615D01*
X112787811Y-23511329D01*
X112716382Y-23575139D01*
X112644954Y-23607043D01*
X112502097Y-23638948D01*
X112394954Y-23638948D01*
X112252097Y-23607043D01*
X112180668Y-23575139D01*
X112109240Y-23511329D01*
X112073525Y-23415615D01*
X112073525Y-23351805D01*
X112109240Y-23256091D01*
X112144954Y-23224186D01*
X112073525Y-22649900D02*
X112073525Y-22777520D01*
X112109240Y-22841329D01*
X112144954Y-22873234D01*
X112252097Y-22937043D01*
X112394954Y-22968948D01*
X112680668Y-22968948D01*
X112752097Y-22937043D01*
X112787811Y-22905139D01*
X112823525Y-22841329D01*
X112823525Y-22713710D01*
X112787811Y-22649900D01*
X112752097Y-22617996D01*
X112680668Y-22586091D01*
X112502097Y-22586091D01*
X112430668Y-22617996D01*
X112394954Y-22649900D01*
X112359240Y-22713710D01*
X112359240Y-22841329D01*
X112394954Y-22905139D01*
X112430668Y-22937043D01*
X112502097Y-22968948D01*
X112037811Y-21820377D02*
X113002097Y-22394662D01*
X112073525Y-21277996D02*
X112073525Y-21597043D01*
X112430668Y-21628948D01*
X112394954Y-21597043D01*
X112359240Y-21533234D01*
X112359240Y-21373710D01*
X112394954Y-21309900D01*
X112430668Y-21277996D01*
X112502097Y-21246091D01*
X112680668Y-21246091D01*
X112752097Y-21277996D01*
X112787811Y-21309900D01*
X112823525Y-21373710D01*
X112823525Y-21533234D01*
X112787811Y-21597043D01*
X112752097Y-21628948D01*
X122580668Y-23383710D02*
X122616382Y-23287996D01*
X122652097Y-23256091D01*
X122723525Y-23224186D01*
X122830668Y-23224186D01*
X122902097Y-23256091D01*
X122937811Y-23287996D01*
X122973525Y-23351805D01*
X122973525Y-23607043D01*
X122223525Y-23607043D01*
X122223525Y-23383710D01*
X122259240Y-23319900D01*
X122294954Y-23287996D01*
X122366382Y-23256091D01*
X122437811Y-23256091D01*
X122509240Y-23287996D01*
X122544954Y-23319900D01*
X122580668Y-23383710D01*
X122580668Y-23607043D01*
X122223525Y-22617996D02*
X122223525Y-22937043D01*
X122580668Y-22968948D01*
X122544954Y-22937043D01*
X122509240Y-22873234D01*
X122509240Y-22713710D01*
X122544954Y-22649900D01*
X122580668Y-22617996D01*
X122652097Y-22586091D01*
X122830668Y-22586091D01*
X122902097Y-22617996D01*
X122937811Y-22649900D01*
X122973525Y-22713710D01*
X122973525Y-22873234D01*
X122937811Y-22937043D01*
X122902097Y-22968948D01*
X122187811Y-21820377D02*
X123152097Y-22394662D01*
X122973525Y-21565139D02*
X122973525Y-21437520D01*
X122937811Y-21373710D01*
X122902097Y-21341805D01*
X122794954Y-21277996D01*
X122652097Y-21246091D01*
X122366382Y-21246091D01*
X122294954Y-21277996D01*
X122259240Y-21309900D01*
X122223525Y-21373710D01*
X122223525Y-21501329D01*
X122259240Y-21565139D01*
X122294954Y-21597043D01*
X122366382Y-21628948D01*
X122544954Y-21628948D01*
X122616382Y-21597043D01*
X122652097Y-21565139D01*
X122687811Y-21501329D01*
X122687811Y-21373710D01*
X122652097Y-21309900D01*
X122616382Y-21277996D01*
X122544954Y-21246091D01*
X97773525Y-24811091D02*
X97023525Y-24811091D01*
X97023525Y-24651567D01*
X97059240Y-24555853D01*
X97130668Y-24492043D01*
X97202097Y-24460139D01*
X97344954Y-24428234D01*
X97452097Y-24428234D01*
X97594954Y-24460139D01*
X97666382Y-24492043D01*
X97737811Y-24555853D01*
X97773525Y-24651567D01*
X97773525Y-24811091D01*
X97094954Y-24172996D02*
X97059240Y-24141091D01*
X97023525Y-24077281D01*
X97023525Y-23917758D01*
X97059240Y-23853948D01*
X97094954Y-23822043D01*
X97166382Y-23790139D01*
X97237811Y-23790139D01*
X97344954Y-23822043D01*
X97773525Y-24204900D01*
X97773525Y-23790139D01*
X96987811Y-23024424D02*
X97952097Y-23598710D01*
X97773525Y-22418234D02*
X97416382Y-22641567D01*
X97773525Y-22801091D02*
X97023525Y-22801091D01*
X97023525Y-22545853D01*
X97059240Y-22482043D01*
X97094954Y-22450139D01*
X97166382Y-22418234D01*
X97273525Y-22418234D01*
X97344954Y-22450139D01*
X97380668Y-22482043D01*
X97416382Y-22545853D01*
X97416382Y-22801091D01*
X97023525Y-22194900D02*
X97773525Y-21748234D01*
X97023525Y-21748234D02*
X97773525Y-22194900D01*
X97773525Y-21142043D02*
X97773525Y-21524900D01*
X97773525Y-21333472D02*
X97023525Y-21333472D01*
X97130668Y-21397281D01*
X97202097Y-21461091D01*
X97237811Y-21524900D01*
X120080668Y-23383710D02*
X120116382Y-23287996D01*
X120152097Y-23256091D01*
X120223525Y-23224186D01*
X120330668Y-23224186D01*
X120402097Y-23256091D01*
X120437811Y-23287996D01*
X120473525Y-23351805D01*
X120473525Y-23607043D01*
X119723525Y-23607043D01*
X119723525Y-23383710D01*
X119759240Y-23319900D01*
X119794954Y-23287996D01*
X119866382Y-23256091D01*
X119937811Y-23256091D01*
X120009240Y-23287996D01*
X120044954Y-23319900D01*
X120080668Y-23383710D01*
X120080668Y-23607043D01*
X119973525Y-22649900D02*
X120473525Y-22649900D01*
X119687811Y-22809424D02*
X120223525Y-22968948D01*
X120223525Y-22554186D01*
X119687811Y-21820377D02*
X120652097Y-22394662D01*
X120044954Y-21501329D02*
X120009240Y-21565139D01*
X119973525Y-21597043D01*
X119902097Y-21628948D01*
X119866382Y-21628948D01*
X119794954Y-21597043D01*
X119759240Y-21565139D01*
X119723525Y-21501329D01*
X119723525Y-21373710D01*
X119759240Y-21309900D01*
X119794954Y-21277996D01*
X119866382Y-21246091D01*
X119902097Y-21246091D01*
X119973525Y-21277996D01*
X120009240Y-21309900D01*
X120044954Y-21373710D01*
X120044954Y-21501329D01*
X120080668Y-21565139D01*
X120116382Y-21597043D01*
X120187811Y-21628948D01*
X120330668Y-21628948D01*
X120402097Y-21597043D01*
X120437811Y-21565139D01*
X120473525Y-21501329D01*
X120473525Y-21373710D01*
X120437811Y-21309900D01*
X120402097Y-21277996D01*
X120330668Y-21246091D01*
X120187811Y-21246091D01*
X120116382Y-21277996D01*
X120080668Y-21309900D01*
X120044954Y-21373710D01*
D10*
X90723525Y-29643948D02*
X89973525Y-29643948D01*
X90509240Y-29393948D01*
X89973525Y-29143948D01*
X90723525Y-29143948D01*
X90723525Y-28786805D02*
X90223525Y-28786805D01*
X89973525Y-28786805D02*
X90009240Y-28822520D01*
X90044954Y-28786805D01*
X90009240Y-28751091D01*
X89973525Y-28786805D01*
X90044954Y-28786805D01*
X90687811Y-28108234D02*
X90723525Y-28179662D01*
X90723525Y-28322520D01*
X90687811Y-28393948D01*
X90652097Y-28429662D01*
X90580668Y-28465377D01*
X90366382Y-28465377D01*
X90294954Y-28429662D01*
X90259240Y-28393948D01*
X90223525Y-28322520D01*
X90223525Y-28179662D01*
X90259240Y-28108234D01*
X90723525Y-27786805D02*
X90223525Y-27786805D01*
X90366382Y-27786805D02*
X90294954Y-27751091D01*
X90259240Y-27715377D01*
X90223525Y-27643948D01*
X90223525Y-27572520D01*
X90723525Y-27215377D02*
X90687811Y-27286805D01*
X90652097Y-27322520D01*
X90580668Y-27358234D01*
X90366382Y-27358234D01*
X90294954Y-27322520D01*
X90259240Y-27286805D01*
X90223525Y-27215377D01*
X90223525Y-27108234D01*
X90259240Y-27036805D01*
X90294954Y-27001091D01*
X90366382Y-26965377D01*
X90580668Y-26965377D01*
X90652097Y-27001091D01*
X90687811Y-27036805D01*
X90723525Y-27108234D01*
X90723525Y-27215377D01*
X89973525Y-26643948D02*
X90580668Y-26643948D01*
X90652097Y-26608234D01*
X90687811Y-26572520D01*
X90723525Y-26501091D01*
X90723525Y-26358234D01*
X90687811Y-26286805D01*
X90652097Y-26251091D01*
X90580668Y-26215377D01*
X89973525Y-26215377D01*
X90687811Y-25893948D02*
X90723525Y-25786805D01*
X90723525Y-25608234D01*
X90687811Y-25536805D01*
X90652097Y-25501091D01*
X90580668Y-25465377D01*
X90509240Y-25465377D01*
X90437811Y-25501091D01*
X90402097Y-25536805D01*
X90366382Y-25608234D01*
X90330668Y-25751091D01*
X90294954Y-25822520D01*
X90259240Y-25858234D01*
X90187811Y-25893948D01*
X90116382Y-25893948D01*
X90044954Y-25858234D01*
X90009240Y-25822520D01*
X89973525Y-25751091D01*
X89973525Y-25572520D01*
X90009240Y-25465377D01*
X90330668Y-24893948D02*
X90366382Y-24786805D01*
X90402097Y-24751091D01*
X90473525Y-24715377D01*
X90580668Y-24715377D01*
X90652097Y-24751091D01*
X90687811Y-24786805D01*
X90723525Y-24858234D01*
X90723525Y-25143948D01*
X89973525Y-25143948D01*
X89973525Y-24893948D01*
X90009240Y-24822520D01*
X90044954Y-24786805D01*
X90116382Y-24751091D01*
X90187811Y-24751091D01*
X90259240Y-24786805D01*
X90294954Y-24822520D01*
X90330668Y-24893948D01*
X90330668Y-25143948D01*
X90723525Y-29643948D02*
X89973525Y-29643948D01*
X90509240Y-29393948D01*
X89973525Y-29143948D01*
X90723525Y-29143948D01*
X90723525Y-28786805D02*
X90223525Y-28786805D01*
X89973525Y-28786805D02*
X90009240Y-28822520D01*
X90044954Y-28786805D01*
X90009240Y-28751091D01*
X89973525Y-28786805D01*
X90044954Y-28786805D01*
X90687811Y-28108234D02*
X90723525Y-28179662D01*
X90723525Y-28322520D01*
X90687811Y-28393948D01*
X90652097Y-28429662D01*
X90580668Y-28465377D01*
X90366382Y-28465377D01*
X90294954Y-28429662D01*
X90259240Y-28393948D01*
X90223525Y-28322520D01*
X90223525Y-28179662D01*
X90259240Y-28108234D01*
X90723525Y-27786805D02*
X90223525Y-27786805D01*
X90366382Y-27786805D02*
X90294954Y-27751091D01*
X90259240Y-27715377D01*
X90223525Y-27643948D01*
X90223525Y-27572520D01*
X90723525Y-27215377D02*
X90687811Y-27286805D01*
X90652097Y-27322520D01*
X90580668Y-27358234D01*
X90366382Y-27358234D01*
X90294954Y-27322520D01*
X90259240Y-27286805D01*
X90223525Y-27215377D01*
X90223525Y-27108234D01*
X90259240Y-27036805D01*
X90294954Y-27001091D01*
X90366382Y-26965377D01*
X90580668Y-26965377D01*
X90652097Y-27001091D01*
X90687811Y-27036805D01*
X90723525Y-27108234D01*
X90723525Y-27215377D01*
X89973525Y-26643948D02*
X90580668Y-26643948D01*
X90652097Y-26608234D01*
X90687811Y-26572520D01*
X90723525Y-26501091D01*
X90723525Y-26358234D01*
X90687811Y-26286805D01*
X90652097Y-26251091D01*
X90580668Y-26215377D01*
X89973525Y-26215377D01*
X90687811Y-25893948D02*
X90723525Y-25786805D01*
X90723525Y-25608234D01*
X90687811Y-25536805D01*
X90652097Y-25501091D01*
X90580668Y-25465377D01*
X90509240Y-25465377D01*
X90437811Y-25501091D01*
X90402097Y-25536805D01*
X90366382Y-25608234D01*
X90330668Y-25751091D01*
X90294954Y-25822520D01*
X90259240Y-25858234D01*
X90187811Y-25893948D01*
X90116382Y-25893948D01*
X90044954Y-25858234D01*
X90009240Y-25822520D01*
X89973525Y-25751091D01*
X89973525Y-25572520D01*
X90009240Y-25465377D01*
X90330668Y-24893948D02*
X90366382Y-24786805D01*
X90402097Y-24751091D01*
X90473525Y-24715377D01*
X90580668Y-24715377D01*
X90652097Y-24751091D01*
X90687811Y-24786805D01*
X90723525Y-24858234D01*
X90723525Y-25143948D01*
X89973525Y-25143948D01*
X89973525Y-24893948D01*
X90009240Y-24822520D01*
X90044954Y-24786805D01*
X90116382Y-24751091D01*
X90187811Y-24751091D01*
X90259240Y-24786805D01*
X90294954Y-24822520D01*
X90330668Y-24893948D01*
X90330668Y-25143948D01*
%TD*%
M02*
