%TF.GenerationSoftware,KiCad,Pcbnew,(5.1.9-0-10_14)*%
%TF.CreationDate,2021-04-30T13:47:16+09:00*%
%TF.ProjectId,seiren-pad,73656972-656e-42d7-9061-642e6b696361,rev?*%
%TF.SameCoordinates,Original*%
%TF.FileFunction,Copper,L2,Bot*%
%TF.FilePolarity,Positive*%
%FSLAX46Y46*%
G04 Gerber Fmt 4.6, Leading zero omitted, Abs format (unit mm)*
G04 Created by KiCad (PCBNEW (5.1.9-0-10_14)) date 2021-04-30 13:47:16*
%MOMM*%
%LPD*%
G01*
G04 APERTURE LIST*
%TA.AperFunction,SMDPad,CuDef*%
%ADD10R,1.000000X1.700000*%
%TD*%
%TA.AperFunction,SMDPad,CuDef*%
%ADD11C,0.100000*%
%TD*%
%TA.AperFunction,ComponentPad*%
%ADD12C,2.100000*%
%TD*%
%TA.AperFunction,SMDPad,CuDef*%
%ADD13R,2.550000X2.500000*%
%TD*%
%TA.AperFunction,SMDPad,CuDef*%
%ADD14R,1.700000X1.000000*%
%TD*%
%TA.AperFunction,ComponentPad*%
%ADD15C,1.750000*%
%TD*%
%TA.AperFunction,ComponentPad*%
%ADD16C,1.524000*%
%TD*%
%TA.AperFunction,ViaPad*%
%ADD17C,0.800000*%
%TD*%
%TA.AperFunction,Conductor*%
%ADD18C,0.250000*%
%TD*%
%TA.AperFunction,Conductor*%
%ADD19C,0.500000*%
%TD*%
G04 APERTURE END LIST*
D10*
%TO.P,LED6,2*%
%TO.N,Net-(LED6-Pad2)*%
X101894640Y-63025920D03*
%TO.P,LED6,1*%
%TO.N,VDD*%
X100494640Y-63025920D03*
%TO.P,LED6,3*%
%TO.N,GND*%
X101894640Y-57525920D03*
%TO.P,LED6,4*%
%TO.N,Net-(LED5-Pad2)*%
X100494640Y-57525920D03*
%TD*%
%TA.AperFunction,SMDPad,CuDef*%
D11*
%TO.P,SW14,2*%
%TO.N,Net-(D14-Pad2)*%
G36*
X187750833Y-63681090D02*
G01*
X187446160Y-66162455D01*
X184915167Y-65851688D01*
X185219840Y-63370323D01*
X187750833Y-63681090D01*
G37*
%TD.AperFunction*%
%TA.AperFunction,SMDPad,CuDef*%
%TO.P,SW14,1*%
%TO.N,col3*%
G36*
X174610641Y-64626752D02*
G01*
X174305968Y-67108117D01*
X171774975Y-66797350D01*
X172079648Y-64315985D01*
X174610641Y-64626752D01*
G37*
%TD.AperFunction*%
%TD*%
%TA.AperFunction,SMDPad,CuDef*%
%TO.P,SW13,2*%
%TO.N,Net-(D13-Pad2)*%
G36*
X168842829Y-61359479D02*
G01*
X168538156Y-63840844D01*
X166007163Y-63530077D01*
X166311836Y-61048712D01*
X168842829Y-61359479D01*
G37*
%TD.AperFunction*%
%TA.AperFunction,SMDPad,CuDef*%
%TO.P,SW13,1*%
%TO.N,col2*%
G36*
X155702637Y-62305141D02*
G01*
X155397964Y-64786506D01*
X152866971Y-64475739D01*
X153171644Y-61994374D01*
X155702637Y-62305141D01*
G37*
%TD.AperFunction*%
%TD*%
D12*
%TO.P,,*%
%TO.N,*%
X100543360Y-72938640D03*
%TD*%
%TA.AperFunction,SMDPad,CuDef*%
D11*
%TO.P,SW8,2*%
%TO.N,Net-(D8-Pad2)*%
G36*
X185307627Y-44188039D02*
G01*
X185002954Y-46669404D01*
X182471961Y-46358637D01*
X182776634Y-43877272D01*
X185307627Y-44188039D01*
G37*
%TD.AperFunction*%
%TA.AperFunction,SMDPad,CuDef*%
%TO.P,SW8,1*%
%TO.N,col3*%
G36*
X172167435Y-45133701D02*
G01*
X171862762Y-47615066D01*
X169331769Y-47304299D01*
X169636442Y-44822934D01*
X172167435Y-45133701D01*
G37*
%TD.AperFunction*%
%TD*%
%TA.AperFunction,SMDPad,CuDef*%
%TO.P,SW9,2*%
%TO.N,Net-(D9-Pad2)*%
G36*
X204215632Y-46509650D02*
G01*
X203910959Y-48991015D01*
X201379966Y-48680248D01*
X201684639Y-46198883D01*
X204215632Y-46509650D01*
G37*
%TD.AperFunction*%
%TA.AperFunction,SMDPad,CuDef*%
%TO.P,SW9,1*%
%TO.N,col4*%
G36*
X191075440Y-47455312D02*
G01*
X190770767Y-49936677D01*
X188239774Y-49625910D01*
X188544447Y-47144545D01*
X191075440Y-47455312D01*
G37*
%TD.AperFunction*%
%TD*%
D12*
%TO.P,,*%
%TO.N,*%
X191719200Y-90678000D03*
%TD*%
D13*
%TO.P,SW5,2*%
%TO.N,Net-(D5-Pad2)*%
X117871240Y-41574720D03*
%TO.P,SW5,1*%
%TO.N,col0*%
X104944240Y-44114720D03*
%TD*%
%TA.AperFunction,SMDPad,CuDef*%
D11*
%TO.P,SW4,2*%
%TO.N,Net-(D4-Pad2)*%
G36*
X220680430Y-29338211D02*
G01*
X220375757Y-31819576D01*
X217844764Y-31508809D01*
X218149437Y-29027444D01*
X220680430Y-29338211D01*
G37*
%TD.AperFunction*%
%TA.AperFunction,SMDPad,CuDef*%
%TO.P,SW4,1*%
%TO.N,col5*%
G36*
X207540238Y-30283873D02*
G01*
X207235565Y-32765238D01*
X204704572Y-32454471D01*
X205009245Y-29973106D01*
X207540238Y-30283873D01*
G37*
%TD.AperFunction*%
%TD*%
%TA.AperFunction,SMDPad,CuDef*%
%TO.P,SW10,2*%
%TO.N,Net-(D10-Pad2)*%
G36*
X223123636Y-48831261D02*
G01*
X222818963Y-51312626D01*
X220287970Y-51001859D01*
X220592643Y-48520494D01*
X223123636Y-48831261D01*
G37*
%TD.AperFunction*%
%TA.AperFunction,SMDPad,CuDef*%
%TO.P,SW10,1*%
%TO.N,col5*%
G36*
X209983444Y-49776923D02*
G01*
X209678771Y-52258288D01*
X207147778Y-51947521D01*
X207452451Y-49466156D01*
X209983444Y-49776923D01*
G37*
%TD.AperFunction*%
%TD*%
D13*
%TO.P,SW12,2*%
%TO.N,Net-(D12-Pad2)*%
X146408140Y-60624720D03*
%TO.P,SW12,1*%
%TO.N,col1*%
X133481140Y-63164720D03*
%TD*%
%TO.P,SW6,2*%
%TO.N,Net-(D6-Pad2)*%
X141721840Y-41574720D03*
%TO.P,SW6,1*%
%TO.N,col1*%
X128794840Y-44114720D03*
%TD*%
D12*
%TO.P,,*%
%TO.N,*%
X150876000Y-90932000D03*
%TD*%
%TA.AperFunction,SMDPad,CuDef*%
D11*
%TO.P,SW7,2*%
%TO.N,Net-(D7-Pad2)*%
G36*
X166399623Y-41866428D02*
G01*
X166094950Y-44347793D01*
X163563957Y-44037026D01*
X163868630Y-41555661D01*
X166399623Y-41866428D01*
G37*
%TD.AperFunction*%
%TA.AperFunction,SMDPad,CuDef*%
%TO.P,SW7,1*%
%TO.N,col2*%
G36*
X153259431Y-42812090D02*
G01*
X152954758Y-45293455D01*
X150423765Y-44982688D01*
X150728438Y-42501323D01*
X153259431Y-42812090D01*
G37*
%TD.AperFunction*%
%TD*%
D13*
%TO.P,SW11,2*%
%TO.N,Net-(D11-Pad2)*%
X120214390Y-60624720D03*
%TO.P,SW11,1*%
%TO.N,col0*%
X107287390Y-63164720D03*
%TD*%
%TA.AperFunction,SMDPad,CuDef*%
D11*
%TO.P,SW15,2*%
%TO.N,Net-(D15-Pad2)*%
G36*
X206658838Y-66002701D02*
G01*
X206354165Y-68484066D01*
X203823172Y-68173299D01*
X204127845Y-65691934D01*
X206658838Y-66002701D01*
G37*
%TD.AperFunction*%
%TA.AperFunction,SMDPad,CuDef*%
%TO.P,SW15,1*%
%TO.N,col4*%
G36*
X193518646Y-66948363D02*
G01*
X193213973Y-69429728D01*
X190682980Y-69118961D01*
X190987653Y-66637596D01*
X193518646Y-66948363D01*
G37*
%TD.AperFunction*%
%TD*%
D12*
%TO.P,,*%
%TO.N,*%
X217522445Y-24382352D03*
%TD*%
D14*
%TO.P,LED1,2*%
%TO.N,Net-(LED1-Pad2)*%
X132462840Y-21041720D03*
%TO.P,LED1,1*%
%TO.N,VDD*%
X132462840Y-19641720D03*
%TO.P,LED1,3*%
%TO.N,GND*%
X137962840Y-21041720D03*
%TO.P,LED1,4*%
%TO.N,LED*%
X137962840Y-19641720D03*
%TD*%
D12*
%TO.P,,*%
%TO.N,*%
X131790440Y-28178760D03*
%TD*%
%TA.AperFunction,SMDPad,CuDef*%
D11*
%TO.P,LED4,2*%
%TO.N,Net-(LED4-Pad2)*%
G36*
X187549824Y-96819552D02*
G01*
X187427955Y-97812098D01*
X185740626Y-97604920D01*
X185862495Y-96612374D01*
X187549824Y-96819552D01*
G37*
%TD.AperFunction*%
%TA.AperFunction,SMDPad,CuDef*%
%TO.P,LED4,1*%
%TO.N,VDD*%
G36*
X187720441Y-95429987D02*
G01*
X187598572Y-96422533D01*
X185911243Y-96215355D01*
X186033112Y-95222809D01*
X187720441Y-95429987D01*
G37*
%TD.AperFunction*%
%TA.AperFunction,SMDPad,CuDef*%
%TO.P,LED4,3*%
%TO.N,GND*%
G36*
X193008827Y-97489833D02*
G01*
X192886958Y-98482379D01*
X191199629Y-98275201D01*
X191321498Y-97282655D01*
X193008827Y-97489833D01*
G37*
%TD.AperFunction*%
%TA.AperFunction,SMDPad,CuDef*%
%TO.P,LED4,4*%
%TO.N,Net-(LED3-Pad2)*%
G36*
X193179444Y-96100268D02*
G01*
X193057575Y-97092814D01*
X191370246Y-96885636D01*
X191492115Y-95893090D01*
X193179444Y-96100268D01*
G37*
%TD.AperFunction*%
%TD*%
D14*
%TO.P,LED5,2*%
%TO.N,Net-(LED5-Pad2)*%
X116340440Y-91652320D03*
%TO.P,LED5,1*%
%TO.N,VDD*%
X116340440Y-90252320D03*
%TO.P,LED5,3*%
%TO.N,GND*%
X121840440Y-91652320D03*
%TO.P,LED5,4*%
%TO.N,Net-(LED4-Pad2)*%
X121840440Y-90252320D03*
%TD*%
%TA.AperFunction,SMDPad,CuDef*%
D11*
%TO.P,LED2,2*%
%TO.N,Net-(LED2-Pad2)*%
G36*
X204708629Y-24041078D02*
G01*
X204586760Y-25033624D01*
X202899431Y-24826446D01*
X203021300Y-23833900D01*
X204708629Y-24041078D01*
G37*
%TD.AperFunction*%
%TA.AperFunction,SMDPad,CuDef*%
%TO.P,LED2,1*%
%TO.N,VDD*%
G36*
X204879246Y-22651513D02*
G01*
X204757377Y-23644059D01*
X203070048Y-23436881D01*
X203191917Y-22444335D01*
X204879246Y-22651513D01*
G37*
%TD.AperFunction*%
%TA.AperFunction,SMDPad,CuDef*%
%TO.P,LED2,3*%
%TO.N,GND*%
G36*
X210167632Y-24711359D02*
G01*
X210045763Y-25703905D01*
X208358434Y-25496727D01*
X208480303Y-24504181D01*
X210167632Y-24711359D01*
G37*
%TD.AperFunction*%
%TA.AperFunction,SMDPad,CuDef*%
%TO.P,LED2,4*%
%TO.N,Net-(LED1-Pad2)*%
G36*
X210338249Y-23321794D02*
G01*
X210216380Y-24314340D01*
X208529051Y-24107162D01*
X208650920Y-23114616D01*
X210338249Y-23321794D01*
G37*
%TD.AperFunction*%
%TD*%
%TA.AperFunction,SMDPad,CuDef*%
%TO.P,LED3,2*%
%TO.N,Net-(LED3-Pad2)*%
G36*
X225088045Y-63702173D02*
G01*
X226080591Y-63824042D01*
X225873413Y-65511371D01*
X224880867Y-65389502D01*
X225088045Y-63702173D01*
G37*
%TD.AperFunction*%
%TA.AperFunction,SMDPad,CuDef*%
%TO.P,LED3,1*%
%TO.N,VDD*%
G36*
X223698480Y-63531556D02*
G01*
X224691026Y-63653425D01*
X224483848Y-65340754D01*
X223491302Y-65218885D01*
X223698480Y-63531556D01*
G37*
%TD.AperFunction*%
%TA.AperFunction,SMDPad,CuDef*%
%TO.P,LED3,3*%
%TO.N,GND*%
G36*
X225758326Y-58243170D02*
G01*
X226750872Y-58365039D01*
X226543694Y-60052368D01*
X225551148Y-59930499D01*
X225758326Y-58243170D01*
G37*
%TD.AperFunction*%
%TA.AperFunction,SMDPad,CuDef*%
%TO.P,LED3,4*%
%TO.N,Net-(LED2-Pad2)*%
G36*
X224368761Y-58072553D02*
G01*
X225361307Y-58194422D01*
X225154129Y-59881751D01*
X224161583Y-59759882D01*
X224368761Y-58072553D01*
G37*
%TD.AperFunction*%
%TD*%
D12*
%TO.P,SW21,*%
%TO.N,*%
X98187040Y-45343320D03*
D15*
%TO.P,SW21,1*%
%TO.N,reset*%
X95697040Y-44343320D03*
%TO.P,SW21,2*%
%TO.N,GND*%
X95697040Y-39343320D03*
D12*
%TO.P,SW21,*%
%TO.N,*%
X98187040Y-38333320D03*
%TD*%
%TA.AperFunction,SMDPad,CuDef*%
D11*
%TO.P,SW20,2*%
%TO.N,Net-(D20-Pad2)*%
G36*
X218518230Y-86651913D02*
G01*
X218213557Y-89133278D01*
X215682564Y-88822511D01*
X215987237Y-86341146D01*
X218518230Y-86651913D01*
G37*
%TD.AperFunction*%
%TA.AperFunction,SMDPad,CuDef*%
%TO.P,SW20,1*%
%TO.N,col4*%
G36*
X205378038Y-87597575D02*
G01*
X205073365Y-90078940D01*
X202542372Y-89768173D01*
X202847045Y-87286808D01*
X205378038Y-87597575D01*
G37*
%TD.AperFunction*%
%TD*%
D16*
%TO.P,U1,24*%
%TO.N,Net-(U1-Pad24)*%
X94856240Y-34756120D03*
%TO.P,U1,23*%
%TO.N,GND*%
X97396240Y-34756120D03*
%TO.P,U1,22*%
%TO.N,reset*%
X99936240Y-34756120D03*
%TO.P,U1,21*%
%TO.N,VDD*%
X102476240Y-34756120D03*
%TO.P,U1,20*%
%TO.N,col0*%
X105016240Y-34756120D03*
%TO.P,U1,19*%
%TO.N,col1*%
X107556240Y-34756120D03*
%TO.P,U1,18*%
%TO.N,col2*%
X110096240Y-34756120D03*
%TO.P,U1,17*%
%TO.N,col3*%
X112636240Y-34756120D03*
%TO.P,U1,16*%
%TO.N,col4*%
X115176240Y-34756120D03*
%TO.P,U1,15*%
%TO.N,col5*%
X117716240Y-34756120D03*
%TO.P,U1,14*%
%TO.N,Net-(U1-Pad14)*%
X120256240Y-34756120D03*
%TO.P,U1,13*%
%TO.N,Net-(U1-Pad13)*%
X122796240Y-34756120D03*
%TO.P,U1,12*%
%TO.N,Net-(U1-Pad12)*%
X122796240Y-19536120D03*
%TO.P,U1,11*%
%TO.N,Net-(U1-Pad11)*%
X120256240Y-19536120D03*
%TO.P,U1,10*%
%TO.N,row0*%
X117716240Y-19536120D03*
%TO.P,U1,9*%
%TO.N,row1*%
X115176240Y-19536120D03*
%TO.P,U1,8*%
%TO.N,row2*%
X112636240Y-19536120D03*
%TO.P,U1,7*%
%TO.N,row3*%
X110096240Y-19536120D03*
%TO.P,U1,6*%
%TO.N,Net-(U1-Pad6)*%
X107556240Y-19536120D03*
%TO.P,U1,5*%
%TO.N,Net-(U1-Pad5)*%
X105016240Y-19536120D03*
%TO.P,U1,4*%
%TO.N,GND*%
X102476240Y-19536120D03*
%TO.P,U1,3*%
X99936240Y-19536120D03*
%TO.P,U1,2*%
%TO.N,Net-(U1-Pad2)*%
X97396240Y-19536120D03*
%TO.P,U1,1*%
%TO.N,LED*%
X94856240Y-19536120D03*
%TD*%
D13*
%TO.P,SW18,2*%
%TO.N,Net-(D18-Pad2)*%
X136921240Y-79674720D03*
%TO.P,SW18,1*%
%TO.N,col1*%
X123994240Y-82214720D03*
%TD*%
%TA.AperFunction,SMDPad,CuDef*%
D11*
%TO.P,SW19,2*%
%TO.N,Net-(D19-Pad2)*%
G36*
X185429222Y-82589094D02*
G01*
X185124549Y-85070459D01*
X182593556Y-84759692D01*
X182898229Y-82278327D01*
X185429222Y-82589094D01*
G37*
%TD.AperFunction*%
%TA.AperFunction,SMDPad,CuDef*%
%TO.P,SW19,1*%
%TO.N,col3*%
G36*
X172289030Y-83534756D02*
G01*
X171984357Y-86016121D01*
X169453364Y-85705354D01*
X169758037Y-83223989D01*
X172289030Y-83534756D01*
G37*
%TD.AperFunction*%
%TD*%
%TA.AperFunction,SMDPad,CuDef*%
%TO.P,SW16,2*%
%TO.N,Net-(D16-Pad2)*%
G36*
X225566842Y-68324312D02*
G01*
X225262169Y-70805677D01*
X222731176Y-70494910D01*
X223035849Y-68013545D01*
X225566842Y-68324312D01*
G37*
%TD.AperFunction*%
%TA.AperFunction,SMDPad,CuDef*%
%TO.P,SW16,1*%
%TO.N,col5*%
G36*
X212426650Y-69269974D02*
G01*
X212121977Y-71751339D01*
X209590984Y-71440572D01*
X209895657Y-68959207D01*
X212426650Y-69269974D01*
G37*
%TD.AperFunction*%
%TD*%
D13*
%TO.P,SW17,2*%
%TO.N,Net-(D17-Pad2)*%
X113070640Y-79674720D03*
%TO.P,SW17,1*%
%TO.N,col0*%
X100143640Y-82214720D03*
%TD*%
%TA.AperFunction,SMDPad,CuDef*%
D11*
%TO.P,SW1,2*%
%TO.N,Net-(D1-Pad2)*%
G36*
X163956417Y-22373378D02*
G01*
X163651744Y-24854743D01*
X161120751Y-24543976D01*
X161425424Y-22062611D01*
X163956417Y-22373378D01*
G37*
%TD.AperFunction*%
%TA.AperFunction,SMDPad,CuDef*%
%TO.P,SW1,1*%
%TO.N,col2*%
G36*
X150816225Y-23319040D02*
G01*
X150511552Y-25800405D01*
X147980559Y-25489638D01*
X148285232Y-23008273D01*
X150816225Y-23319040D01*
G37*
%TD.AperFunction*%
%TD*%
D12*
%TO.P,,*%
%TO.N,*%
X125318520Y-56255920D03*
%TD*%
%TA.AperFunction,SMDPad,CuDef*%
D11*
%TO.P,SW2,2*%
%TO.N,Net-(D2-Pad2)*%
G36*
X182864421Y-24694989D02*
G01*
X182559748Y-27176354D01*
X180028755Y-26865587D01*
X180333428Y-24384222D01*
X182864421Y-24694989D01*
G37*
%TD.AperFunction*%
%TA.AperFunction,SMDPad,CuDef*%
%TO.P,SW2,1*%
%TO.N,col3*%
G36*
X169724229Y-25640651D02*
G01*
X169419556Y-28122016D01*
X166888563Y-27811249D01*
X167193236Y-25329884D01*
X169724229Y-25640651D01*
G37*
%TD.AperFunction*%
%TD*%
D12*
%TO.P,,*%
%TO.N,*%
X171551600Y-58597800D03*
%TD*%
%TA.AperFunction,SMDPad,CuDef*%
D11*
%TO.P,SW3,2*%
%TO.N,Net-(D3-Pad2)*%
G36*
X201772426Y-27016600D02*
G01*
X201467753Y-29497965D01*
X198936760Y-29187198D01*
X199241433Y-26705833D01*
X201772426Y-27016600D01*
G37*
%TD.AperFunction*%
%TA.AperFunction,SMDPad,CuDef*%
%TO.P,SW3,1*%
%TO.N,col4*%
G36*
X188632234Y-27962262D02*
G01*
X188327561Y-30443627D01*
X185796568Y-30132860D01*
X186101241Y-27651495D01*
X188632234Y-27962262D01*
G37*
%TD.AperFunction*%
%TD*%
D12*
%TO.P,,*%
%TO.N,*%
X209473800Y-63246000D03*
%TD*%
D17*
%TO.N,Net-(D1-Pad2)*%
X164581840Y-26233120D03*
%TO.N,Net-(D2-Pad2)*%
X183504840Y-28519120D03*
%TO.N,Net-(D3-Pad2)*%
X202384045Y-30833952D03*
%TO.N,Net-(D4-Pad2)*%
X221325440Y-33192720D03*
%TO.N,Net-(D5-Pad2)*%
X120360440Y-44063920D03*
%TO.N,Net-(D6-Pad2)*%
X144109440Y-44063920D03*
%TO.N,Net-(D7-Pad2)*%
X167045640Y-45714920D03*
%TO.N,Net-(D8-Pad2)*%
X185917840Y-48026320D03*
%TO.N,Net-(D9-Pad2)*%
X204817986Y-50320613D03*
%TO.N,Net-(D10-Pad2)*%
X224101045Y-50823752D03*
%TO.N,Net-(D11-Pad2)*%
X122748040Y-63113920D03*
%TO.N,Net-(D12-Pad2)*%
X148910040Y-63113920D03*
%TO.N,Net-(D13-Pad2)*%
X169484040Y-65222120D03*
%TO.N,Net-(D14-Pad2)*%
X188381640Y-67533520D03*
%TO.N,Net-(D15-Pad2)*%
X207235445Y-69797552D03*
%TO.N,Net-(D16-Pad2)*%
X226176840Y-72181720D03*
%TO.N,Net-(D17-Pad2)*%
X115559840Y-81147920D03*
%TO.N,Net-(D18-Pad2)*%
X139410440Y-82163920D03*
%TO.N,Net-(D19-Pad2)*%
X186070240Y-86431120D03*
%TO.N,Net-(D20-Pad2)*%
X219115640Y-90495120D03*
%TO.N,col0*%
X107279440Y-65349120D03*
X100142040Y-80335120D03*
%TD*%
D18*
%TO.N,Net-(D1-Pad2)*%
X163991797Y-23458677D02*
X164581840Y-24048720D01*
X162538584Y-23458677D02*
X163991797Y-23458677D01*
X164581840Y-24048720D02*
X164581840Y-26233120D01*
%TO.N,Net-(D2-Pad2)*%
X182899608Y-25780288D02*
X183504840Y-26385520D01*
X183504840Y-26385520D02*
X183504840Y-28519120D01*
X181446588Y-25780288D02*
X182899608Y-25780288D01*
%TO.N,Net-(D3-Pad2)*%
X202384045Y-28674952D02*
X202384045Y-30833952D01*
X201810992Y-28101899D02*
X202384045Y-28674952D01*
X200354593Y-28101899D02*
X201810992Y-28101899D01*
%TO.N,Net-(D4-Pad2)*%
X221325440Y-31008320D02*
X221325440Y-33192720D01*
X219262597Y-30423510D02*
X220740630Y-30423510D01*
X220740630Y-30423510D02*
X221325440Y-31008320D01*
%TO.N,Net-(D5-Pad2)*%
X120360440Y-42616120D02*
X120360440Y-44063920D01*
X119319040Y-41574720D02*
X120360440Y-42616120D01*
X117871240Y-41574720D02*
X119319040Y-41574720D01*
%TO.N,Net-(D6-Pad2)*%
X143144240Y-41574720D02*
X144109440Y-42539920D01*
X144109440Y-42539920D02*
X144109440Y-44063920D01*
X141721840Y-41574720D02*
X143144240Y-41574720D01*
%TO.N,Net-(D7-Pad2)*%
X167045640Y-43555920D02*
X167045640Y-45714920D01*
X166441447Y-42951727D02*
X167045640Y-43555920D01*
X164981790Y-42951727D02*
X166441447Y-42951727D01*
%TO.N,Net-(D8-Pad2)*%
X183889794Y-45273338D02*
X185374658Y-45273338D01*
X185374658Y-45273338D02*
X185917840Y-45816520D01*
X185917840Y-45816520D02*
X185917840Y-48026320D01*
%TO.N,Net-(D9-Pad2)*%
X202797799Y-47594949D02*
X204335431Y-47594949D01*
X204335431Y-47594949D02*
X204817986Y-48077504D01*
X204817986Y-48077504D02*
X204817986Y-50320613D01*
%TO.N,Net-(D10-Pad2)*%
X223193853Y-49916560D02*
X224101045Y-50823752D01*
X221705803Y-49916560D02*
X223193853Y-49916560D01*
%TO.N,Net-(D11-Pad2)*%
X121655840Y-60624720D02*
X122748040Y-61716920D01*
X120214390Y-60624720D02*
X121655840Y-60624720D01*
X122748040Y-61716920D02*
X122748040Y-63113920D01*
%TO.N,Net-(D12-Pad2)*%
X146408140Y-60624720D02*
X147843240Y-60624720D01*
X147843240Y-60624720D02*
X148910040Y-61691520D01*
X148910040Y-61691520D02*
X148910040Y-63113920D01*
%TO.N,Net-(D13-Pad2)*%
X167424996Y-62444778D02*
X168891098Y-62444778D01*
X168891098Y-62444778D02*
X169484040Y-63037720D01*
X169484040Y-63037720D02*
X169484040Y-65222120D01*
%TO.N,Net-(D14-Pad2)*%
X186333000Y-64766389D02*
X187905589Y-64766389D01*
X187905589Y-64766389D02*
X188381640Y-65242440D01*
X188381640Y-65242440D02*
X188381640Y-67533520D01*
%TO.N,Net-(D15-Pad2)*%
X205241005Y-67088000D02*
X206835882Y-67088000D01*
X206835882Y-67088000D02*
X207235445Y-67487562D01*
X207235445Y-67487562D02*
X207235445Y-69797552D01*
%TO.N,Net-(D16-Pad2)*%
X224149009Y-69409611D02*
X225614531Y-69409611D01*
X225614531Y-69409611D02*
X226176840Y-69971920D01*
X226176840Y-69971920D02*
X226176840Y-72181720D01*
%TO.N,Net-(D17-Pad2)*%
X113070640Y-79674720D02*
X114518440Y-79674720D01*
X115559840Y-80716120D02*
X115559840Y-81147920D01*
X114518440Y-79674720D02*
X115559840Y-80716120D01*
%TO.N,Net-(D18-Pad2)*%
X136921240Y-79674720D02*
X138369040Y-79674720D01*
X139410440Y-80716120D02*
X139410440Y-82163920D01*
X138369040Y-79674720D02*
X139410440Y-80716120D01*
%TO.N,Net-(D19-Pad2)*%
X184011389Y-83674393D02*
X185472513Y-83674393D01*
X185472513Y-83674393D02*
X186070240Y-84272120D01*
X186070240Y-84272120D02*
X186070240Y-86431120D01*
%TO.N,Net-(D20-Pad2)*%
X217100397Y-87737212D02*
X218592932Y-87737212D01*
X218592932Y-87737212D02*
X219115640Y-88259920D01*
X219115640Y-88259920D02*
X219115640Y-90495120D01*
D19*
%TO.N,GND*%
X101894640Y-57525920D02*
X101894640Y-56765918D01*
X101894640Y-56765918D02*
X101354641Y-56225919D01*
X101354641Y-56225919D02*
X99634639Y-56225919D01*
X121457640Y-93035120D02*
X121840440Y-92652320D01*
X98684620Y-57175938D02*
X98684620Y-66356274D01*
X109479274Y-77150928D02*
X109489240Y-77150928D01*
X114264440Y-77160120D02*
X117109240Y-80004920D01*
X99634639Y-56225919D02*
X98684620Y-57175938D01*
X109489240Y-77150928D02*
X109489240Y-77160120D01*
X117109240Y-86608920D02*
X114289840Y-89428320D01*
X109489240Y-77160120D02*
X114264440Y-77160120D01*
X117109240Y-80004920D02*
X117109240Y-86608920D01*
X98684620Y-66356274D02*
X109479274Y-77150928D01*
X114289840Y-89428320D02*
X114289840Y-91663520D01*
X114289840Y-91663520D02*
X115661440Y-93035120D01*
X115661440Y-93035120D02*
X121457640Y-93035120D01*
X121840440Y-92652320D02*
X121840440Y-91652320D01*
X227377645Y-50595152D02*
X227377645Y-56183152D01*
X224253445Y-29919552D02*
X224253445Y-47470952D01*
X220773645Y-26439752D02*
X224253445Y-29919552D01*
X209263033Y-25104043D02*
X209263033Y-26155940D01*
X224253445Y-47470952D02*
X227377645Y-50595152D01*
X209546845Y-26439752D02*
X220773645Y-26439752D01*
X227377645Y-56183152D02*
X226151010Y-57409787D01*
X226151010Y-57409787D02*
X226151010Y-59147769D01*
X209263033Y-26155940D02*
X209546845Y-26439752D01*
X138668677Y-21041720D02*
X137962840Y-21041720D01*
X139950845Y-19759552D02*
X138668677Y-21041720D01*
X180642419Y-21766150D02*
X166037419Y-21766150D01*
X199978067Y-24121330D02*
X187721999Y-24121330D01*
X202763397Y-21336000D02*
X199978067Y-24121330D01*
X209082640Y-21336000D02*
X202763397Y-21336000D01*
X210886040Y-23139400D02*
X209082640Y-21336000D01*
X210465717Y-25104043D02*
X210886040Y-24683720D01*
X209263033Y-25104043D02*
X210465717Y-25104043D01*
X166037419Y-21766150D02*
X164030821Y-19759552D01*
X149102402Y-19759552D02*
X139950845Y-19759552D01*
X164030821Y-19759552D02*
X149102402Y-19759552D01*
X181480621Y-22604352D02*
X180642419Y-21766150D01*
X186205021Y-22604352D02*
X181480621Y-22604352D01*
X187721999Y-24121330D02*
X186205021Y-22604352D01*
X210886040Y-24683720D02*
X210886040Y-23139400D01*
X195645576Y-95197552D02*
X192960611Y-97882517D01*
X205584444Y-98270951D02*
X202511045Y-95197552D01*
X192960611Y-97882517D02*
X192104228Y-97882517D01*
X220265646Y-98270951D02*
X205584444Y-98270951D01*
X226151010Y-59147769D02*
X226786262Y-59147769D01*
X227714866Y-87913431D02*
X223847045Y-91781252D01*
X226786262Y-59147769D02*
X227479245Y-59840752D01*
X227714866Y-79010731D02*
X227714866Y-87913431D01*
X228511455Y-78214142D02*
X227714866Y-79010731D01*
X223847045Y-94689552D02*
X220265646Y-98270951D01*
X228511456Y-69736787D02*
X228511455Y-78214142D01*
X227479245Y-68704576D02*
X228511456Y-69736787D01*
X223847045Y-91781252D02*
X223847045Y-94689552D01*
X202511045Y-95197552D02*
X195645576Y-95197552D01*
X227479245Y-59840752D02*
X227479245Y-68704576D01*
X97396240Y-36406684D02*
X97396240Y-34756120D01*
X95697040Y-38105884D02*
X97396240Y-36406684D01*
X95697040Y-39343320D02*
X95697040Y-38105884D01*
X103499297Y-17831700D02*
X102476240Y-18854757D01*
X102476240Y-18854757D02*
X102476240Y-19536120D01*
X138784993Y-17831700D02*
X103499297Y-17831700D01*
X139950845Y-18997552D02*
X138784993Y-17831700D01*
X139950845Y-19759552D02*
X139950845Y-18997552D01*
X102476240Y-19536120D02*
X99936240Y-19536120D01*
X98381672Y-17981552D02*
X99936240Y-19536120D01*
X97396240Y-34756120D02*
X97396240Y-24677547D01*
X94307045Y-17981552D02*
X98381672Y-17981552D01*
X93443445Y-20724752D02*
X93443445Y-18845152D01*
X93443445Y-18845152D02*
X94307045Y-17981552D01*
X97396240Y-24677547D02*
X93443445Y-20724752D01*
X101300338Y-44946618D02*
X95697040Y-39343320D01*
X101300338Y-56171616D02*
X101300338Y-44946618D01*
X101354641Y-56225919D02*
X101300338Y-56171616D01*
D18*
%TO.N,LED*%
X96389845Y-22832952D02*
X94856240Y-21299347D01*
X126031257Y-22832952D02*
X96389845Y-22832952D01*
X94856240Y-21299347D02*
X94856240Y-19536120D01*
X130457498Y-18406711D02*
X126031257Y-22832952D01*
X137477831Y-18406711D02*
X130457498Y-18406711D01*
X137962840Y-18891720D02*
X137477831Y-18406711D01*
X137962840Y-19641720D02*
X137962840Y-18891720D01*
D19*
%TO.N,VDD*%
X100494640Y-65188640D02*
X100494640Y-63785922D01*
X114756229Y-76000909D02*
X109955629Y-76000909D01*
X118268451Y-79513131D02*
X114756229Y-76000909D01*
X118268451Y-87253497D02*
X118268451Y-79513131D01*
X116340440Y-89181508D02*
X118268451Y-87253497D01*
X116340440Y-90252320D02*
X116340440Y-89181508D01*
X109955629Y-76000909D02*
X100494640Y-66539920D01*
X100494640Y-63785922D02*
X100494640Y-63025920D01*
X100494640Y-66539920D02*
X100494640Y-65188640D01*
X223991561Y-64336552D02*
X224091164Y-64436155D01*
X224091164Y-64436155D02*
X224091164Y-64854433D01*
X223587410Y-64436155D02*
X224091164Y-64436155D01*
X226227623Y-55351974D02*
X222780245Y-58799352D01*
X202356720Y-23805741D02*
X202356720Y-26441400D01*
X223103425Y-47947308D02*
X226227623Y-51071506D01*
X203118264Y-23044197D02*
X202356720Y-23805741D01*
X220315669Y-27608152D02*
X223103425Y-30395908D01*
X209088869Y-27608152D02*
X220315669Y-27608152D01*
X208533642Y-27052925D02*
X209088869Y-27608152D01*
X202968245Y-27052925D02*
X208533642Y-27052925D01*
X202356720Y-26441400D02*
X202968245Y-27052925D01*
X222780245Y-63628990D02*
X223587410Y-64436155D01*
X223103425Y-30395908D02*
X223103425Y-47947308D01*
X222780245Y-58799352D02*
X222780245Y-63628990D01*
X226227623Y-51071506D02*
X226227623Y-55351974D01*
X203974647Y-23044197D02*
X203118264Y-23044197D01*
X180166065Y-22916172D02*
X181004267Y-23754372D01*
X140932624Y-20909574D02*
X163554467Y-20909574D01*
X185728666Y-23754373D02*
X187245645Y-25271352D01*
X202356720Y-24206477D02*
X202356720Y-23805741D01*
X131162839Y-21901721D02*
X132202398Y-22941280D01*
X132462840Y-19641720D02*
X131702838Y-19641720D01*
X187245645Y-25271352D02*
X201291845Y-25271352D01*
X138900918Y-22941280D02*
X140932624Y-20909574D01*
X131702838Y-19641720D02*
X131162839Y-20181719D01*
X165561065Y-22916172D02*
X180166065Y-22916172D01*
X131162839Y-20181719D02*
X131162839Y-21901721D01*
X163554467Y-20909574D02*
X165561065Y-22916172D01*
X132202398Y-22941280D02*
X138900918Y-22941280D01*
X181004267Y-23754372D02*
X185728666Y-23754373D01*
X201291845Y-25271352D02*
X202356720Y-24206477D01*
X202968633Y-94003752D02*
X187575845Y-94003752D01*
X222627845Y-94130752D02*
X219706845Y-97051752D01*
X222627845Y-91336752D02*
X222627845Y-94130752D01*
X226564845Y-87399752D02*
X222627845Y-91336752D01*
X227361434Y-70213141D02*
X227361434Y-77534587D01*
X226564845Y-78331176D02*
X226564845Y-87399752D01*
X226107645Y-68959352D02*
X227361434Y-70213141D01*
X224091164Y-65292538D02*
X226107645Y-67309019D01*
X224091164Y-64436155D02*
X224091164Y-65292538D01*
X227361434Y-77534587D02*
X226564845Y-78331176D01*
X187575845Y-94003752D02*
X186815842Y-94763755D01*
X186815842Y-94763755D02*
X186815842Y-95822671D01*
X219706845Y-97051752D02*
X206016633Y-97051752D01*
X206016633Y-97051752D02*
X202968633Y-94003752D01*
X226107645Y-67309019D02*
X226107645Y-68959352D01*
X103266240Y-56713120D02*
X103266240Y-63850520D01*
X102605840Y-64510920D02*
X101172360Y-64510920D01*
X102000349Y-55447229D02*
X103266240Y-56713120D01*
X101172360Y-64510920D02*
X100494640Y-65188640D01*
X103266240Y-63850520D02*
X102605840Y-64510920D01*
X102476240Y-34756120D02*
X102476240Y-35898157D01*
X102476240Y-35898157D02*
X102000349Y-36374048D01*
X102000349Y-36374048D02*
X102000349Y-55447229D01*
X102476240Y-26677957D02*
X102476240Y-34756120D01*
X105711645Y-23442552D02*
X102476240Y-26677957D01*
X130035677Y-19641720D02*
X126234845Y-23442552D01*
X126234845Y-23442552D02*
X105711645Y-23442552D01*
X132462840Y-19641720D02*
X130035677Y-19641720D01*
D18*
%TO.N,col2*%
X148346160Y-45730160D02*
X148346160Y-60467240D01*
X151841598Y-43897389D02*
X150178931Y-43897389D01*
X150178931Y-43897389D02*
X148346160Y-45730160D01*
X149398392Y-24404339D02*
X149392640Y-24410091D01*
X151269360Y-63390440D02*
X154284804Y-63390440D01*
X148346160Y-60467240D02*
X151269360Y-63390440D01*
X149398392Y-24404339D02*
X149398392Y-37670872D01*
X149398392Y-38071699D02*
X149399645Y-38072952D01*
X149398392Y-37670872D02*
X149398392Y-38071699D01*
X151831040Y-41571147D02*
X151831040Y-43886831D01*
X149399645Y-39139752D02*
X151831040Y-41571147D01*
X151831040Y-43886831D02*
X151841598Y-43897389D01*
X149399645Y-37793552D02*
X149399645Y-39139752D01*
X149398392Y-24404339D02*
X149369579Y-24433152D01*
X109587277Y-34756120D02*
X109616240Y-34756120D01*
X110096240Y-36513947D02*
X110096240Y-34756120D01*
X128622445Y-37412552D02*
X110994845Y-37412552D01*
X110994845Y-37412552D02*
X110096240Y-36513947D01*
X130349645Y-34237552D02*
X130349645Y-35685352D01*
X141703445Y-22883752D02*
X130349645Y-34237552D01*
X130349645Y-35685352D02*
X128622445Y-37412552D01*
X147877805Y-22883752D02*
X141703445Y-22883752D01*
X149398392Y-24404339D02*
X147877805Y-22883752D01*
%TO.N,col3*%
X170871197Y-67009963D02*
X170871197Y-84620055D01*
X172844171Y-65712051D02*
X173192808Y-65712051D01*
X170749602Y-46219000D02*
X169301160Y-47667442D01*
X169301160Y-47667442D02*
X169301160Y-62169040D01*
X169301160Y-62169040D02*
X172844171Y-65712051D01*
X173192808Y-65712051D02*
X172169109Y-65712051D01*
X172169109Y-65712051D02*
X170871197Y-67009963D01*
X168306396Y-26725950D02*
X168306396Y-37399876D01*
X170754040Y-46214562D02*
X170749602Y-46219000D01*
X170754040Y-40809147D02*
X170754040Y-46214562D01*
X168306396Y-38361503D02*
X170754040Y-40809147D01*
X168306396Y-37399876D02*
X168306396Y-38361503D01*
X168306396Y-26725950D02*
X168306396Y-30672401D01*
X128422067Y-36955352D02*
X113687245Y-36955352D01*
X129874234Y-35503185D02*
X128422067Y-36955352D01*
X154461434Y-22433741D02*
X141517045Y-22433741D01*
X158746845Y-26719152D02*
X154461434Y-22433741D01*
X158746845Y-29792554D02*
X158746845Y-26719152D01*
X165579447Y-33399352D02*
X162353643Y-33399352D01*
X166595445Y-27176352D02*
X166595445Y-32383354D01*
X162353643Y-33399352D02*
X158746845Y-29792554D01*
X112636240Y-35904347D02*
X112636240Y-34756120D01*
X166595445Y-32383354D02*
X165579447Y-33399352D01*
X167045847Y-26725950D02*
X166595445Y-27176352D01*
X129874234Y-34076552D02*
X129874234Y-35503185D01*
X113687245Y-36955352D02*
X112636240Y-35904347D01*
X141517045Y-22433741D02*
X129874234Y-34076552D01*
X168306396Y-26725950D02*
X167045847Y-26725950D01*
%TO.N,col4*%
X189651640Y-40301147D02*
X187213240Y-37862747D01*
X189651640Y-48534644D02*
X189651640Y-40301147D01*
X189657607Y-48540611D02*
X189651640Y-48534644D01*
X189657607Y-48564190D02*
X189657607Y-48540611D01*
X188259720Y-64439800D02*
X188259720Y-49962077D01*
X188259720Y-49962077D02*
X189657607Y-48564190D01*
X191853582Y-68033662D02*
X188259720Y-64439800D01*
X192100813Y-68033662D02*
X191853582Y-68033662D01*
X187213240Y-29048722D02*
X187214401Y-29047561D01*
X187213240Y-37862747D02*
X187213240Y-29048722D01*
X204129640Y-88513439D02*
X203960205Y-88682874D01*
X200758445Y-78281152D02*
X204129640Y-81652347D01*
X195500645Y-78281152D02*
X200758445Y-78281152D01*
X204129640Y-81652347D02*
X204129640Y-88513439D01*
X192100813Y-74881320D02*
X195500645Y-78281152D01*
X192100813Y-68033662D02*
X192100813Y-74881320D01*
X116049445Y-36498152D02*
X115176240Y-35624947D01*
X129424223Y-35316785D02*
X128242856Y-36498152D01*
X154647834Y-21983730D02*
X141308067Y-21983730D01*
X159196856Y-26532752D02*
X154647834Y-21983730D01*
X141308067Y-21983730D02*
X129424223Y-33867574D01*
X159196856Y-29606154D02*
X159196856Y-26532752D01*
X128242856Y-36498152D02*
X116049445Y-36498152D01*
X165400236Y-32942152D02*
X162532854Y-32942152D01*
X162532854Y-32942152D02*
X159196856Y-29606154D01*
X166145434Y-32196954D02*
X165400236Y-32942152D01*
X129424223Y-33867574D02*
X129424223Y-35316785D01*
X183545845Y-35297163D02*
X179286845Y-35297163D01*
X172970845Y-23975952D02*
X167738445Y-23975952D01*
X177873045Y-28878152D02*
X172970845Y-23975952D01*
X185679236Y-29047561D02*
X185035845Y-29690952D01*
X187214401Y-29047561D02*
X185679236Y-29047561D01*
X177873045Y-33883363D02*
X177873045Y-28878152D01*
X179286845Y-35297163D02*
X177873045Y-33883363D01*
X185035845Y-33807163D02*
X183545845Y-35297163D01*
X185035845Y-29690952D02*
X185035845Y-33807163D01*
X166145434Y-25568963D02*
X166145434Y-32196954D01*
X115176240Y-35624947D02*
X115176240Y-34756120D01*
X167738445Y-23975952D02*
X166145434Y-25568963D01*
%TO.N,col5*%
X208565611Y-51230669D02*
X208565611Y-50862222D01*
X210725394Y-70341101D02*
X210994645Y-70341101D01*
X210994645Y-70341101D02*
X211008817Y-70355273D01*
X208834566Y-70355273D02*
X211008817Y-70355273D01*
X207685455Y-67301162D02*
X207685455Y-69206162D01*
X207685455Y-69206162D02*
X208834566Y-70355273D01*
X207184645Y-66800352D02*
X207685455Y-67301162D01*
X207184645Y-52243188D02*
X207184645Y-66800352D01*
X208565611Y-50862222D02*
X207184645Y-52243188D01*
X206122405Y-31369172D02*
X206508730Y-31755497D01*
X205305045Y-47928152D02*
X204695445Y-47318552D01*
X204619245Y-35710752D02*
X204619245Y-32872332D01*
X202384045Y-45007152D02*
X202384045Y-37945952D01*
X203250766Y-45873873D02*
X202384045Y-45007152D01*
X204342966Y-45873873D02*
X203250766Y-45873873D01*
X204695445Y-46226352D02*
X204342966Y-45873873D01*
X204695445Y-47318552D02*
X204695445Y-46226352D01*
X202384045Y-37945952D02*
X204619245Y-35710752D01*
X205305045Y-49579152D02*
X205305045Y-47928152D01*
X204619245Y-32872332D02*
X206122405Y-31369172D01*
X206588115Y-50862222D02*
X205305045Y-49579152D01*
X208565611Y-50862222D02*
X206588115Y-50862222D01*
X117716240Y-35624947D02*
X117716240Y-34756120D01*
X128974212Y-33681174D02*
X128974212Y-35130385D01*
X141121667Y-21533719D02*
X128974212Y-33681174D01*
X154834234Y-21533719D02*
X141121667Y-21533719D01*
X128063645Y-36040952D02*
X118132245Y-36040952D01*
X159646867Y-26346352D02*
X154834234Y-21533719D01*
X118132245Y-36040952D02*
X117716240Y-35624947D01*
X165221025Y-32484952D02*
X162712065Y-32484952D01*
X165695423Y-32010554D02*
X165221025Y-32484952D01*
X165695423Y-25382563D02*
X165695423Y-32010554D01*
X173157245Y-23525941D02*
X167552045Y-23525941D01*
X192833645Y-26998552D02*
X186026445Y-26998552D01*
X184578645Y-33627952D02*
X183359445Y-34847152D01*
X183359445Y-34847152D02*
X179473245Y-34847152D01*
X178323056Y-28691752D02*
X173157245Y-23525941D01*
X167552045Y-23525941D02*
X165695423Y-25382563D01*
X179473245Y-34847152D02*
X178323056Y-33696963D01*
X162712065Y-32484952D02*
X159646867Y-29419754D01*
X159646867Y-29419754D02*
X159646867Y-26346352D01*
X184578645Y-28446352D02*
X184578645Y-33627952D01*
X186026445Y-26998552D02*
X184578645Y-28446352D01*
X178323056Y-33696963D02*
X178323056Y-28691752D01*
X196923045Y-31087952D02*
X192833645Y-26998552D01*
X196923045Y-36117152D02*
X196923045Y-31087952D01*
X204212845Y-31900752D02*
X204212845Y-35558352D01*
X204744425Y-31369172D02*
X204212845Y-31900752D01*
X206122405Y-31369172D02*
X204744425Y-31369172D01*
X128974212Y-35130385D02*
X128063645Y-36040952D01*
X202079245Y-37691952D02*
X198497845Y-37691952D01*
X198497845Y-37691952D02*
X196923045Y-36117152D01*
X204212845Y-35558352D02*
X202079245Y-37691952D01*
%TO.N,col0*%
X105003600Y-63164720D02*
X107287390Y-63164720D01*
X103870760Y-62031880D02*
X105003600Y-63164720D01*
X104944240Y-44114720D02*
X103850440Y-44114720D01*
X103870760Y-56423560D02*
X103870760Y-62031880D01*
X103850440Y-44114720D02*
X102636320Y-45328840D01*
X102636320Y-55189120D02*
X103870760Y-56423560D01*
X100142040Y-82213120D02*
X100143640Y-82214720D01*
X100142040Y-80335120D02*
X100142040Y-82213120D01*
X107287390Y-63164720D02*
X107287390Y-65341170D01*
X107287390Y-65341170D02*
X107279440Y-65349120D01*
X102636320Y-45328840D02*
X102636320Y-55189120D01*
X105016240Y-36634757D02*
X105016240Y-34756120D01*
X102575360Y-39075637D02*
X105016240Y-36634757D01*
X102575360Y-42448480D02*
X102575360Y-39075637D01*
X104241600Y-44114720D02*
X102575360Y-42448480D01*
X104944240Y-44114720D02*
X104241600Y-44114720D01*
%TO.N,col1*%
X130803413Y-63164720D02*
X133481140Y-63164720D01*
X128794840Y-61156147D02*
X130803413Y-63164720D01*
X128794840Y-44114720D02*
X128794840Y-61156147D01*
X133481140Y-63164720D02*
X133481140Y-68941247D01*
X133481140Y-68941247D02*
X133481140Y-69256857D01*
X131264045Y-77696952D02*
X133481140Y-75479857D01*
X126133245Y-77696952D02*
X131264045Y-77696952D01*
X133481140Y-75479857D02*
X133481140Y-68941247D01*
X123994240Y-79835957D02*
X126133245Y-77696952D01*
X123994240Y-82214720D02*
X123994240Y-79835957D01*
X109242245Y-37869752D02*
X107556240Y-36183747D01*
X117573445Y-37869752D02*
X109242245Y-37869752D01*
X119664480Y-39960787D02*
X117573445Y-37869752D01*
X107556240Y-36183747D02*
X107556240Y-34756120D01*
X120810450Y-42288890D02*
X119664480Y-41142920D01*
X120810450Y-43467450D02*
X120810450Y-42288890D01*
X121457720Y-44114720D02*
X120810450Y-43467450D01*
X119664480Y-41142920D02*
X119664480Y-39960787D01*
X128794840Y-44114720D02*
X121457720Y-44114720D01*
%TO.N,Net-(LED1-Pad2)*%
X209433650Y-23714478D02*
X209433650Y-22545530D01*
X208803240Y-21915120D02*
X202997465Y-21915120D01*
X202997465Y-21915120D02*
X200216244Y-24696341D01*
X163792644Y-20334563D02*
X140671234Y-20334563D01*
X138729067Y-22276730D02*
X133253364Y-22276730D01*
X185966844Y-23179363D02*
X181242443Y-23179362D01*
X200216244Y-24696341D02*
X187483821Y-24696340D01*
X133252434Y-22275800D02*
X132946920Y-22275800D01*
X133253364Y-22276730D02*
X133252434Y-22275800D01*
X209433650Y-22545530D02*
X208803240Y-21915120D01*
X181242443Y-23179362D02*
X180404242Y-22341161D01*
X180404242Y-22341161D02*
X165799241Y-22341160D01*
X132946920Y-22275800D02*
X132462840Y-21791720D01*
X132462840Y-21791720D02*
X132462840Y-21041720D01*
X140671234Y-20334563D02*
X138729067Y-22276730D01*
X165799241Y-22341160D02*
X163792644Y-20334563D01*
X187483821Y-24696340D02*
X185966844Y-23179363D01*
%TO.N,Net-(LED2-Pad2)*%
X226802634Y-55944975D02*
X224761445Y-57986164D01*
X208688023Y-26394118D02*
X209308668Y-27014763D01*
X203804030Y-25121785D02*
X205076363Y-26394118D01*
X203804030Y-24433762D02*
X203804030Y-25121785D01*
X205076363Y-26394118D02*
X208688023Y-26394118D01*
X209308668Y-27014763D02*
X220535468Y-27014763D01*
X223678434Y-30157729D02*
X223678435Y-47709130D01*
X223678435Y-47709130D02*
X226802634Y-50833329D01*
X226802634Y-50833329D02*
X226802634Y-55944975D01*
X220535468Y-27014763D02*
X223678434Y-30157729D01*
X224761445Y-57986164D02*
X224761445Y-58977152D01*
%TO.N,Net-(LED3-Pad2)*%
X192723510Y-96044287D02*
X192274845Y-96492952D01*
X202714633Y-94587952D02*
X194179845Y-94587952D01*
X225480729Y-64606772D02*
X226758856Y-65884899D01*
X223202856Y-91574929D02*
X223202856Y-94419341D01*
X205822622Y-97695941D02*
X202714633Y-94587952D01*
X194179845Y-94587952D02*
X192723510Y-96044287D01*
X227936445Y-69974964D02*
X227936445Y-77975964D01*
X227936445Y-77975964D02*
X227139856Y-78772553D01*
X219926256Y-97695941D02*
X205822622Y-97695941D01*
X226758856Y-68797375D02*
X227936445Y-69974964D01*
X227139856Y-78772553D02*
X227139855Y-87637930D01*
X226758856Y-65884899D02*
X226758856Y-68797375D01*
X227139855Y-87637930D02*
X223202856Y-91574929D01*
X223202856Y-94419341D02*
X219926256Y-97695941D01*
%TO.N,Net-(LED4-Pad2)*%
X185782036Y-97212236D02*
X186645225Y-97212236D01*
X183286400Y-91262200D02*
X185242200Y-93218000D01*
X185242200Y-96672400D02*
X185782036Y-97212236D01*
X173349920Y-91262200D02*
X183286400Y-91262200D01*
X123776960Y-88315800D02*
X170403520Y-88315800D01*
X170403520Y-88315800D02*
X173349920Y-91262200D01*
X185242200Y-93218000D02*
X185242200Y-96672400D01*
X121840440Y-90252320D02*
X123776960Y-88315800D01*
%TO.N,Net-(LED5-Pad2)*%
X100494640Y-57525920D02*
X100050154Y-57525920D01*
X115240440Y-91652320D02*
X116340440Y-91652320D01*
X99259630Y-58316444D02*
X99259630Y-66118098D01*
X99259630Y-66118098D02*
X109717452Y-76575920D01*
X109717452Y-76575920D02*
X114518052Y-76575920D01*
X100050154Y-57525920D02*
X99259630Y-58316444D01*
X117693440Y-79751308D02*
X117693440Y-87015320D01*
X117693440Y-87015320D02*
X114864851Y-89843909D01*
X114518052Y-76575920D02*
X117693440Y-79751308D01*
X114864851Y-91276731D02*
X115240440Y-91652320D01*
X114864851Y-89843909D02*
X114864851Y-91276731D01*
%TD*%
M02*
